<?xml version="1.0" encoding="utf-8"?>
<!-- Generator: Adobe Illustrator 15.1.0, SVG Export Plug-In . SVG Version: 6.00 Build 0)  -->
<!DOCTYPE svg PUBLIC "-//W3C//DTD SVG 1.1//EN" "http://www.w3.org/Graphics/SVG/1.1/DTD/svg11.dtd">
<svg version="1.1" id="npeu-logo" xmlns="http://www.w3.org/2000/svg" xmlns:xlink="http://www.w3.org/1999/xlink" x="0px" y="0px"
	 width="242.568px" height="212.598px" viewBox="0 0 242.568 212.598" enable-background="new 0 0 242.568 212.598"
	 xml:space="preserve">
<g id="text">
	<g id="npeu">
		<path fill="#748797" d="M13.345,107.756c4.401-7.125,11.136-10.881,19.946-10.881c14.382,0,19.817,8.549,19.817,25.262v25.777
			c0,5.446,0.772,8.166,6.604,8.939v2.079c-3.626-0.519-6.344-0.907-8.287-0.907c-1.292,0-3.367,0.257-6.344,0.907
			c0.773-5.053,1.165-9.584,1.165-13.475v-23.321c0-13.34-3.238-19.82-14.511-19.82c-12.435,0-18.265,7.258-18.265,21.634v23.963
			c0,5.446,0.776,8.165,6.607,8.939v2.077c-4.796-0.652-8.164-0.906-9.976-0.906c-1.811,0-5.311,0.255-10.104,0.907v-2.077
			c5.832-0.771,6.606-3.499,6.606-8.939v-39.118c0-4.282-0.914-5.311-4.021-5.573l-2.458-0.262v-1.937
			c4.274-0.655,8.81-2.461,13.991-5.315C13.732,100.755,13.345,104.773,13.345,107.756z"/>
		<path fill="#748797" d="M73.322,109.957c5.572-8.686,12.697-13.088,21.504-13.088c14.9,0,26.556,12.707,26.556,32
			c0,17.36-11.915,30.702-27.208,30.702c-8.287,0-15.416-4.145-20.858-12.306v23.321c0,5.438,0.772,8.027,6.603,8.937v2.077
			c-4.401-0.518-7.642-0.909-9.972-0.909c-2.336,0-5.703,0.396-10.104,0.909v-2.077c5.828-0.908,6.604-3.499,6.604-8.937v-61.791
			c0-4.282-0.907-5.31-4.016-5.572l-2.46-0.262v-1.938c4.146-0.521,8.68-2.46,14.123-5.315
			C73.71,100.101,73.322,104.773,73.322,109.957z M73.192,128.092c0,16.71,9.586,26.298,20.208,26.298
			c10.494,0,20.208-9.589,20.208-23.967c0-17.356-9.068-28.245-20.982-28.245C83.037,102.179,73.192,111.768,73.192,128.092z"/>
		<path fill="#748797" d="M132.653,125.636c0,0,0,1.03,0,3.105c0,13.215,10.493,25.647,25.127,25.647
			c6.479,0,12.564-3.112,18.395-9.197l-0.772,7.512c-5.834,4.926-12.7,7.519-19.688,7.519c-17.495,0-30.83-13.987-30.83-32.262
			c0-18.011,12.691-31.608,28.235-31.608c15.411,0,25.646,10.497,25.646,27.208c0,0.649,0,1.288,0,2.075L132.653,125.636
			L132.653,125.636L132.653,125.636z M171.252,120.835c0-11.526-8.684-19.693-18.006-19.693c-10.364,0-18.779,7.647-20.337,19.954
			h38.34C171.252,120.965,171.252,120.965,171.252,120.835z"/>
		<path fill="#748797" d="M226.179,147.394c-4.4,8.026-11.012,12.176-19.953,12.176c-13.595,0-19.815-7.771-19.815-23.188v-27.59
			c0-5.052-1.288-5.707-6.479-5.834v-1.815c4.278-0.651,8.684-2.588,13.864-5.442c-0.52,2.336-0.52,5.054-0.52,8.16
			c0,1.173,0,2.462,0,3.893v26.555c0,0.257,0,0.515,0,0.771c0,12.82,3.627,19.04,14.383,19.04c12.055,0,18.27-7.898,18.27-23.703
			v-21.626c0-5.054-1.169-5.707-6.343-5.836v-1.814c4.272-0.65,8.681-2.594,13.86-5.442c-0.649,3.5-0.771,7.511-0.771,12.052v40.16
			c0,5.444,0.771,8.162,6.604,8.937v2.08c-2.853-0.774-5.569-0.91-8.287-0.91c-2.199,0-4.021,0.257-5.706,0.91
			C225.918,155.685,226.051,151.798,226.179,147.394z"/>
	</g>
	<g id="strap">
		<path fill="#A4AA9A" d="M88.57,187.771c0.75-0.101,1.069-0.399,1.069-1.045c0-0.06,0-0.244,0-0.552v-9.37
			c0-0.212-0.021-0.395-0.021-0.524c0-0.586-0.307-0.847-1.051-0.973v-0.399c0.764,0.104,1.374,0.137,1.802,0.137
			c0.387,0,0.887-0.045,1.456-0.124l6.909,10.342v-8.442c0-1.05-0.136-1.375-1.196-1.543v-0.387c0.685,0.083,1.276,0.14,1.774,0.14
			c0.487,0,1.069-0.044,1.739-0.14v0.387c-1.019,0.162-1.097,0.527-1.097,1.494v11.339h-1.387l-7.699-11.457v9.532
			c0,1.045,0.102,1.412,1.232,1.57v0.398c-0.685-0.104-1.291-0.161-1.799-0.161c-0.582,0-1.152,0.059-1.737,0.161L88.57,187.771
			L88.57,187.771z"/>
		<path fill="#A4AA9A" d="M111.156,188.177c-0.401-0.104-0.867-0.158-1.355-0.158c-0.319,0-0.753,0.042-1.289,0.126l0.062-1.82
			c-0.77,1.288-2.005,1.998-3.454,1.998c-1.806,0-3.058-1.197-3.058-2.744c0-0.997,0.47-1.837,1.255-2.325
			c0.708-0.439,1.806-0.5,3.191-0.686c1.31-0.184,1.937-0.304,1.937-1.354c0-1.065-0.811-1.86-2.198-1.86
			c-1.493,0-2.587,0.753-2.89,1.918h-0.398c0.123-0.79,0.18-1.473,0.18-2.001c0-0.078,0-0.155,0-0.222
			c1.071-0.486,2.096-0.701,3.193-0.701c2.641,0,3.842,1.146,3.842,3.551v4.501c0,0.165,0,0.265,0,0.348
			c0,0.665,0.315,1.021,0.991,1.021L111.156,188.177L111.156,188.177z M103.885,185.366c0,0.931,0.753,1.691,1.816,1.691
			c1.619,0,2.809-1.231,2.809-3.313c0-0.399,0-0.604,0-0.604C105.597,183.732,103.885,183.673,103.885,185.366z"/>
		<path fill="#A4AA9A" d="M114.674,175.794c-0.389,0.544-0.833,0.886-1.416,1.069v1.721h-1.208v1.026h1.208v5.678
			c0,2.065,0.833,3.054,2.589,3.054c0.665,0,1.286-0.182,1.901-0.55l0.06-1.225c-0.521,0.342-0.991,0.521-1.471,0.521
			c-1.096,0-1.374-0.706-1.374-1.962v-5.511h2.646v-1.03h-2.646v-2.792L114.674,175.794L114.674,175.794z"/>
		<path fill="#A4AA9A" d="M118.808,187.771c0.891-0.126,0.991-0.569,0.991-1.456v-5.938c0-0.788-0.155-0.931-0.965-0.969v-0.339
			c0.842-0.107,1.733-0.398,2.749-0.841c-0.079,0.62-0.106,1.271-0.106,1.932v6.159c0,0.912,0.127,1.355,1.013,1.457v0.389
			c-0.683-0.103-1.31-0.16-1.854-0.16c-0.47,0-1.069,0.059-1.82,0.16L118.808,187.771L118.808,187.771z M120.55,174.596
			c0.605,0,1.131,0.524,1.131,1.196c0,0.623-0.504,1.127-1.172,1.127c-0.604,0-1.114-0.503-1.114-1.148
			C119.399,175.163,119.882,174.596,120.55,174.596z"/>
		<path fill="#A4AA9A" d="M123.623,183.386c0-3.027,2.163-5.107,4.865-5.107c2.689,0,4.85,2.08,4.85,5.004
			c0,3.013-2.166,5.112-4.865,5.112C125.781,188.398,123.623,186.335,123.623,183.386z M128.73,187.39
			c1.558,0,2.852-1.434,2.852-3.433c0-2.905-1.52-4.664-3.335-4.664c-1.555,0-2.874,1.456-2.874,3.451
			C125.374,185.632,126.915,187.39,128.73,187.39z"/>
		<path fill="#A4AA9A" d="M138.148,187.73v0.423c-0.786-0.106-1.372-0.159-1.818-0.159c-0.465,0-1.07,0.053-1.813,0.159v-0.423
			c0.751-0.044,0.994-0.361,0.994-1.15v-5.88c0-0.847,0-1.046-0.994-1.174v-0.399c0.707-0.104,1.558-0.468,2.623-0.931
			c-0.078,0.75-0.12,1.535-0.12,2.345c0.387-1.313,1.549-2.139,3.029-2.139c2.36,0,3.192,1.454,3.192,4.439v3.74
			c0,0.784,0.238,1.107,0.991,1.149v0.423c-0.547-0.106-1.048-0.161-1.536-0.161c-0.287,0-0.684,0-1.233,0.102
			c0.058-0.646,0.104-1.271,0.104-1.877c0-0.079,0-0.309,0-0.753v-3.454c0-1.595-0.487-2.349-1.675-2.349
			c-0.933,0-1.833,0.525-2.306,1.374c-0.387,0.68-0.398,1.438-0.398,2.325c0,0.162,0,0.317,0,0.485v2.727
			C137.177,187.368,137.4,187.688,138.148,187.73z"/>
		<path fill="#A4AA9A" d="M154.41,188.177c-0.398-0.104-0.869-0.158-1.355-0.158c-0.323,0-0.751,0.042-1.29,0.126l0.06-1.82
			c-0.766,1.288-2.001,1.998-3.455,1.998c-1.803,0-3.056-1.197-3.056-2.744c0-0.997,0.468-1.837,1.253-2.325
			c0.706-0.439,1.803-0.5,3.195-0.686c1.31-0.184,1.934-0.304,1.934-1.354c0-1.065-0.807-1.86-2.198-1.86
			c-1.493,0-2.588,0.753-2.889,1.918h-0.399c0.123-0.79,0.184-1.473,0.184-2.001c0-0.078,0-0.155,0-0.222
			c1.071-0.486,2.098-0.701,3.195-0.701c2.643,0,3.84,1.146,3.84,3.551v4.501c0,0.165,0,0.265,0,0.348
			c0,0.665,0.315,1.021,0.985,1.021v0.411h-0.003V188.177z M147.135,185.366c0,0.931,0.752,1.691,1.818,1.691
			c1.615,0,2.806-1.231,2.806-3.313c0-0.399,0-0.604,0-0.604C148.85,183.732,147.135,183.673,147.135,185.366z"/>
		<path fill="#A4AA9A" d="M155.524,188.154c0.729-0.104,1.331-0.16,1.801-0.16c0.542,0,1.172,0.056,1.856,0.16v-0.388
			c-0.911-0.125-0.993-0.571-0.993-1.46V175.1c0-0.61,0.023-1.278,0.106-1.943c-0.991,0.427-1.904,0.753-2.77,0.844v0.365
			c0.808,0.045,0.989,0.162,0.989,0.946v10.991c0,0.89-0.08,1.333-0.989,1.461L155.524,188.154L155.524,188.154z"/>
		<path fill="#A4AA9A" d="M165.418,187.771c0.969-0.16,1.096-0.5,1.096-1.417v-9.596c0-0.907-0.139-1.274-1.096-1.435v-0.385h4.769
			c3.582,0,5.392,1.454,5.392,4.099c0,2.146-1.675,3.819-4.224,3.819c-1.253,0-2.062-0.287-2.062-0.569
			c0-0.128,0.157-0.222,0.467-0.222c0.239,0,0.423,0.025,0.583,0.025c2.118,0,3.313-1.196,3.313-2.934
			c0-1.98-1.373-3.009-4.139-3.009h-1.148v10.205c0,0.975,0.18,1.277,1.148,1.416v0.398c-0.787-0.103-1.475-0.159-2.081-0.159
			c-0.667,0-1.335,0.058-2.021,0.159L165.418,187.771L165.418,187.771L165.418,187.771z"/>
		<path fill="#A4AA9A" d="M177.254,183.145c0.045,2.381,1.554,3.94,3.639,3.94c1.128,0,2.117-0.441,3.029-1.357l-0.201,1.471
			c-0.95,0.753-2.146,1.152-3.298,1.152c-2.825,0-4.99-2.199-4.99-5.128c0-2.83,2.04-4.914,4.664-4.914
			c2.462,0,4.181,1.721,4.181,4.465c0,0.128-0.023,0.245-0.023,0.364L177.254,183.145L177.254,183.145z M180.01,179.366
			c-1.376,0-2.528,1.051-2.73,2.792h5.219C182.453,180.48,181.316,179.366,180.01,179.366z"/>
		<path fill="#A4AA9A" d="M185.38,187.771c0.884-0.126,0.99-0.569,0.99-1.456v-5.938c0-0.788-0.161-0.931-0.969-0.969v-0.339
			c0.864-0.107,1.754-0.398,2.704-0.841c-0.056,0.6-0.075,1.329-0.075,2.114c0.708-1.232,1.718-1.904,2.787-1.904
			c0.222,0,0.424,0.042,0.628,0.121l0.188,1.918h-0.245c-0.285-0.283-0.601-0.487-1.071-0.487c-1.308,0-2.26,1.181-2.26,3.357v2.968
			c0,0.916,0.133,1.373,1.068,1.454v0.391c-0.726-0.105-1.33-0.158-1.878-0.158c-0.525,0-1.128,0.053-1.854,0.158v-0.389H185.38
			L185.38,187.771z"/>
		<path fill="#A4AA9A" d="M192.059,187.771c0.89-0.126,0.994-0.569,0.994-1.456v-5.938c0-0.788-0.161-0.931-0.972-0.969v-0.339
			c0.847-0.107,1.739-0.398,2.751-0.841c-0.078,0.62-0.104,1.271-0.104,1.932v6.159c0,0.912,0.128,1.355,1.014,1.457v0.389
			c-0.686-0.103-1.307-0.16-1.855-0.16c-0.467,0-1.074,0.059-1.822,0.16L192.059,187.771L192.059,187.771z M193.803,174.596
			c0.603,0,1.127,0.524,1.127,1.196c0,0.623-0.502,1.127-1.174,1.127c-0.604,0-1.11-0.503-1.11-1.148
			C192.648,175.163,193.131,174.596,193.803,174.596z"/>
		<path fill="#A4AA9A" d="M199.499,186.579v-2.727c0-0.155,0-0.312,0-0.483c0-0.889,0.02-1.641,0.398-2.328
			c0.47-0.846,1.379-1.373,2.305-1.373c1.198,0,1.677,0.753,1.677,2.349v3.455c0,0.442,0,0.665,0,0.753
			c0,0.603-0.046,1.229-0.102,1.875c0.542-0.101,0.943-0.101,1.229-0.101c0.485,0,0.992,0.059,1.541,0.161v-0.423
			c-0.753-0.042-0.993-0.365-0.993-1.15v-3.738c0-2.987-0.832-4.441-3.195-4.441c-1.469,0-2.647,0.827-3.028,2.139
			c0-0.81,0.045-1.595,0.125-2.345c-1.072,0.464-1.914,0.829-2.626,0.931v0.399c0.991,0.124,0.991,0.317,0.991,1.174v5.881
			c0,0.789-0.241,1.112-0.991,1.149v0.424c0.75-0.104,1.354-0.16,1.814-0.16c0.447,0,1.026,0.057,1.817,0.16v-0.424
			C199.721,187.688,199.499,187.368,199.499,186.579z"/>
		<path fill="#A4AA9A" d="M216.734,188.177c-0.401-0.104-0.87-0.158-1.357-0.158c-0.316,0-0.748,0.042-1.286,0.126l0.051-1.82
			c-0.761,1.288-1.997,1.998-3.451,1.998c-1.804,0-3.057-1.197-3.057-2.744c0-0.997,0.467-1.837,1.254-2.325
			c0.708-0.439,1.806-0.5,3.191-0.686c1.313-0.184,1.94-0.304,1.94-1.354c0-1.065-0.813-1.86-2.203-1.86
			c-1.492,0-2.585,0.753-2.887,1.918h-0.399c0.12-0.79,0.182-1.473,0.182-2.001c0-0.078,0-0.155,0-0.222
			c1.071-0.486,2.097-0.701,3.192-0.701c2.646,0,3.837,1.146,3.837,3.551v4.501c0,0.165,0,0.265,0,0.348
			c0,0.665,0.324,1.021,0.994,1.021v0.405L216.734,188.177L216.734,188.177z M209.459,185.366c0,0.931,0.749,1.691,1.815,1.691
			c1.619,0,2.81-1.231,2.81-3.313c0-0.399,0-0.604,0-0.604C211.177,183.732,209.459,183.673,209.459,185.366z"/>
		<path fill="#A4AA9A" d="M220.248,175.794c-0.391,0.544-0.83,0.886-1.416,1.069v1.721h-1.21v1.026h1.206v5.678
			c0,2.065,0.836,3.054,2.595,3.054c0.665,0,1.29-0.182,1.899-0.55l0.058-1.225c-0.521,0.342-0.992,0.521-1.471,0.521
			c-1.094,0-1.376-0.706-1.376-1.962v-5.511h2.647v-1.03h-2.647v-2.792L220.248,175.794L220.248,175.794L220.248,175.794z"/>
		<path fill="#A4AA9A" d="M233.422,187.771c-0.67,0-0.994-0.364-0.994-1.023c0-0.08,0-0.18,0-0.345v-4.5
			c0-2.405-1.196-3.553-3.842-3.553c-1.096,0-2.119,0.221-3.188,0.7c0,0.063,0,0.142,0,0.223c0,0.526-0.058,1.209-0.185,2.003h0.4
			c0.31-1.177,1.396-1.921,2.891-1.921c1.388,0,2.195,0.794,2.195,1.861c0,1.049-0.627,1.178-1.934,1.357
			c-1.391,0.185-2.488,0.24-3.194,0.684c-0.783,0.484-1.252,1.329-1.252,2.326c0,1.553,1.252,2.745,3.058,2.745
			c1.457,0,2.688-0.706,3.45-2.003l-0.056,1.822c0.545-0.083,0.97-0.128,1.293-0.128c0.486,0,0.946,0.056,1.356,0.16
			L233.422,187.771L233.422,187.771L233.422,187.771z M230.772,183.145c0,0,0,0.206,0,0.604c0,2.081-1.195,3.313-2.808,3.313
			c-1.073,0-1.814-0.762-1.814-1.692C226.146,183.673,227.863,183.732,230.772,183.145z"/>
		<path fill="#A4AA9A" d="M234.535,187.771c0.912-0.126,0.993-0.569,0.993-1.456v-10.994c0-0.784-0.187-0.909-0.993-0.947v-0.361
			c0.865-0.104,1.777-0.422,2.769-0.85c-0.079,0.669-0.104,1.34-0.104,1.944v11.208c0,0.887,0.084,1.331,0.996,1.456v0.39
			c-0.687-0.103-1.313-0.158-1.862-0.158c-0.464,0-1.071,0.057-1.804,0.158L234.535,187.771L234.535,187.771z"/>
		<path fill="#A4AA9A" d="M98.226,195.573c0,1.049,0.102,2.018,0.236,2.929h-0.386c-0.263-1.639-0.83-1.723-2.326-1.723h-4.262
			v4.449h2.807c0.97,0,1.338-0.085,1.493-1.097h0.365c-0.058,0.604-0.127,1.149-0.127,1.676c0,0.523,0.025,1.093,0.103,1.697H95.8
			c-0.157-1.019-0.525-1.111-1.493-1.111h-2.808v5.112h4.402c1.86,0,2.409-0.302,2.707-2.177h0.388
			c-0.204,1.069-0.307,2.196-0.317,3.41H88.556v-0.4c0.97-0.156,1.097-0.499,1.097-1.408v-9.531c0-0.916-0.141-1.283-1.097-1.438
			v-0.39L98.226,195.573L98.226,195.573z"/>
		<path fill="#A4AA9A" d="M103.441,212.018v0.428c-0.768-0.104-1.375-0.155-1.819-0.155c-0.487,0-1.094,0.051-1.815,0.155v-0.428
			c0.75-0.041,0.993-0.362,0.993-1.15v-9.535c0-0.861-0.023-1.042-0.993-1.164v-0.403c0.81-0.139,1.68-0.473,2.624-0.933
			c-0.079,0.708-0.121,1.376-0.121,2.019c0.666-1.171,1.856-1.832,3.271-1.832c2.747,0,4.603,1.884,4.603,4.911
			c0,2.829-2,5.009-4.626,5.009c-1.471,0-2.511-0.5-3.087-1.492v3.432C102.469,211.656,102.688,211.977,103.441,212.018z
			 M105.175,207.797c1.903,0,3.19-1.47,3.19-3.814c0-2.348-1.274-3.815-3.25-3.815c-1.803,0-2.706,1.273-2.706,3.815
			C102.406,206.524,103.295,207.797,105.175,207.797z"/>
		<path fill="#A4AA9A" d="M111.377,208.404c0.889-0.132,0.993-0.572,0.993-1.463v-5.937c0-0.787-0.157-0.932-0.966-0.97v-0.341
			c0.843-0.103,1.734-0.399,2.742-0.844c-0.077,0.63-0.105,1.277-0.105,1.941v6.156c0,0.91,0.13,1.358,1.019,1.46v0.388
			c-0.687-0.103-1.312-0.16-1.859-0.16c-0.467,0-1.07,0.059-1.818,0.16L111.377,208.404L111.377,208.404z M113.114,195.231
			c0.606,0,1.126,0.524,1.126,1.189c0,0.635-0.5,1.132-1.171,1.132c-0.602,0-1.109-0.498-1.109-1.147
			C111.965,195.795,112.452,195.231,113.114,195.231z"/>
		<path fill="#A4AA9A" d="M125.26,196.038v10.931c0,0.973,0.126,1.372,1.048,1.438v0.385c-0.627-0.077-1.127-0.139-1.492-0.139
			s-0.787,0.044-1.313,0.139c0.08-0.522,0.103-1.13,0.139-1.856c-0.753,1.289-1.905,1.983-3.188,1.983
			c-2.407,0-4.224-2.039-4.224-4.929c0-2.876,1.837-4.915,4.345-4.915c1.23,0,2.199,0.506,2.986,1.556v-4.001
			c0-1.099-0.104-1.463-1.095-1.463c-0.023,0-0.061,0-0.079,0v-0.342c0.946-0.155,1.938-0.519,2.968-1.019
			C125.299,194.463,125.26,195.207,125.26,196.038z M118.064,203.875c0,2.323,1.233,3.843,2.769,3.843
			c1.514,0,2.769-1.412,2.769-3.776c0-2.383-1.206-3.739-2.745-3.739C119.338,200.199,118.064,201.576,118.064,203.875z"/>
		<path fill="#A4AA9A" d="M129.157,203.775c0.045,2.384,1.558,3.94,3.636,3.94c1.128,0,2.122-0.443,3.03-1.354l-0.205,1.471
			c-0.944,0.75-2.143,1.146-3.291,1.146c-2.829,0-4.993-2.197-4.993-5.128c0-2.824,2.035-4.91,4.663-4.91
			c2.465,0,4.185,1.719,4.185,4.465c0,0.126-0.022,0.243-0.022,0.365L129.157,203.775L129.157,203.775z M131.905,199.995
			c-1.376,0-2.528,1.05-2.727,2.791h5.214C134.351,201.109,133.216,199.995,131.905,199.995z"/>
		<path fill="#A4AA9A" d="M137.279,208.404c0.893-0.132,0.993-0.572,0.993-1.463v-5.937c0-0.787-0.164-0.932-0.972-0.97v-0.341
			c0.87-0.103,1.757-0.399,2.704-0.844c-0.054,0.733-0.074,1.417-0.104,2.001c0.585-1.152,1.658-1.815,2.856-1.815
			c1.354,0,2.273,0.708,2.624,1.958c0.581-1.25,1.676-1.938,3.011-1.938c1.719,0,2.809,1.13,2.809,3.056
			c0,0.138,0.021,0.389,0.021,0.761v3.48c0,1.274,0.128,1.958,0.988,2.063v0.387c-0.596-0.103-1.122-0.158-1.566-0.158
			c-0.306,0-0.707,0.042-1.232,0.136c0.126-1.027,0.161-1.835,0.161-2.347v-3.089c0-1.98-0.397-2.952-1.801-2.952
			c-1.471,0-2.202,1.075-2.202,3.172v3.394c0,0.911,0.104,1.373,1.052,1.46v0.391c-0.789-0.104-1.39-0.162-1.836-0.162
			c-0.485,0-1.096,0.058-1.833,0.162v-0.395c0.908-0.128,0.993-0.571,0.993-1.461v-3.659c0-1.913-0.323-2.905-1.778-2.905
			c-1.475,0-2.2,1.075-2.2,3.172v3.393c0,0.912,0.126,1.358,1.012,1.461v0.389c-0.678-0.104-1.308-0.16-1.854-0.16
			c-0.475,0-1.076,0.058-1.819,0.16L137.279,208.404L137.279,208.404z"/>
		<path fill="#A4AA9A" d="M153.338,208.404c0.893-0.132,0.991-0.572,0.991-1.463v-5.937c0-0.787-0.159-0.932-0.973-0.97v-0.341
			c0.849-0.103,1.74-0.399,2.754-0.844c-0.085,0.63-0.105,1.277-0.105,1.941v6.156c0,0.91,0.128,1.358,1.016,1.46v0.388
			c-0.68-0.103-1.308-0.16-1.859-0.16c-0.468,0-1.071,0.059-1.814,0.16L153.338,208.404L153.338,208.404z M155.078,195.231
			c0.604,0,1.125,0.524,1.125,1.189c0,0.635-0.496,1.132-1.174,1.132c-0.603,0-1.107-0.498-1.107-1.147
			C153.929,195.795,154.41,195.231,155.078,195.231z"/>
		<path fill="#A4AA9A" d="M158.147,204.018c0-3.034,2.167-5.114,4.865-5.114c2.692,0,4.851,2.082,4.851,5.012
			c0,3.007-2.166,5.113-4.868,5.113C160.309,209.031,158.147,206.968,158.147,204.018z M163.257,208.019
			c1.554,0,2.851-1.434,2.851-3.433c0-2.905-1.516-4.666-3.331-4.666c-1.557,0-2.877,1.46-2.877,3.455
			C159.902,206.261,161.441,208.019,163.257,208.019z"/>
		<path fill="#A4AA9A" d="M169.035,208.404c0.909-0.132,0.988-0.572,0.988-1.463v-10.992c0-0.782-0.179-0.905-0.988-0.943v-0.366
			c0.867-0.104,1.777-0.422,2.772-0.846c-0.083,0.667-0.109,1.334-0.109,1.939v11.209c0,0.889,0.085,1.333,0.993,1.46v0.385
			c-0.683-0.103-1.308-0.157-1.858-0.157c-0.466,0-1.067,0.056-1.801,0.157L169.035,208.404L169.035,208.404z"/>
		<path fill="#A4AA9A" d="M173.823,204.018c0-3.034,2.168-5.114,4.866-5.114c2.693,0,4.848,2.082,4.848,5.012
			c0,3.007-2.163,5.113-4.864,5.113C175.989,209.031,173.823,206.968,173.823,204.018z M178.938,208.019
			c1.554,0,2.847-1.434,2.847-3.433c0-2.905-1.517-4.666-3.332-4.666c-1.554,0-2.873,1.46-2.873,3.455
			C175.578,206.261,177.116,208.019,178.938,208.019z"/>
		<path fill="#A4AA9A" d="M193.887,200.282c-0.343,0.051-0.586,0.051-0.707,0.051c-0.39,0-0.787-0.023-1.213-0.124
			c0.626,0.587,0.934,1.213,0.934,2.021c0,1.854-1.678,3.475-3.925,3.475c-0.787,0-1.458-0.204-2.121-0.604
			c-0.525,0.365-0.811,0.604-0.811,0.992c0,0.866,1.028,1.025,3.074,1.072c3.029,0.059,4.725,0.388,4.725,2.261
			c0,1.781-1.749,3.172-4.7,3.172c-2.281,0-3.561-1.019-3.561-2.305c0-0.307,0.104-0.583,0.264-0.889l1.653-0.624
			c-0.222,0.392-0.315,0.731-0.315,1.07c0,1.021,0.863,1.783,2.238,1.783c1.561,0,2.594-0.839,2.594-1.761
			c0-0.931-0.847-1.21-2.445-1.21c-0.287,0-0.571,0-0.831,0c-1.196,0-2.146-0.022-2.906-0.315c-0.837-0.341-1.355-1.051-1.355-1.917
			c0-0.18,0.022-0.417,0.077-0.666c0.786-0.342,1.393-0.666,1.775-1.013c-0.627-0.665-0.94-1.454-0.94-2.305
			c0-2.039,1.594-3.476,3.997-3.476c1.029,0,2.083,0.387,3.416,0.387c0.524,0,0.99-0.04,1.438-0.137L193.887,200.282z
			 M186.998,202.081c0,1.517,1.092,2.605,2.301,2.605c1.07,0,2.001-0.912,2.001-2.177c0-1.441-1.015-2.546-2.247-2.546
			C187.948,199.954,186.998,200.785,186.998,202.081z"/>
		<path fill="#A4AA9A" d="M194.891,201.127c-0.344-0.93-0.627-1.433-1.288-1.549v-0.398c0.568,0.103,1.195,0.136,1.877,0.136
			c0.625,0,1.233-0.044,1.86-0.136v0.392c-0.627,0.053-0.918,0.23-0.918,0.622c0,0.136,0.043,0.338,0.127,0.602l2.041,5.898
			l1.958-5.898c0.086-0.238,0.124-0.466,0.124-0.646c0-0.388-0.285-0.548-0.933-0.584v-0.39c0.523,0.08,1.072,0.124,1.596,0.124
			c0.524,0,1.015-0.021,1.536-0.124v0.39c-0.65,0.104-0.911,0.584-1.211,1.461l-2.804,8.062c-0.807,2.304-1.435,3.499-2.974,3.499
			c-0.399,0-0.747-0.104-1.067-0.346c-0.021-0.708-0.083-1.415-0.186-2.095h0.365c0.103,0.604,0.448,0.931,0.968,0.931
			c0.67,0,1.212-0.448,1.438-1.129l0.363-1.074L194.891,201.127z"/>
		<path fill="#A4AA9A" d="M210.29,195.698c0.687,0,1.331-0.045,2.023-0.161v0.399c-0.956,0.134-1.077,0.483-1.077,1.409v6.146
			c0,2.847,0.627,4.287,3.087,4.287c2.446,0,3.087-1.44,3.087-4.287v-6.159c0-0.931-0.124-1.256-1.094-1.415v-0.39
			c0.706,0.102,1.374,0.141,2.019,0.141c0.683,0,1.359-0.045,2.018-0.141v0.39c-0.99,0.159-1.093,0.501-1.093,1.415v6.159
			c0,3.777-1.314,5.512-4.951,5.512c-3.677,0-4.973-1.733-4.973-5.512v-6.146c0-0.886-0.075-1.253-1.094-1.409v-0.399
			C208.956,195.63,209.62,195.698,210.29,195.698z"/>
		<path fill="#A4AA9A" d="M225.036,208.363v0.423c-0.783-0.102-1.373-0.161-1.814-0.161c-0.466,0-1.071,0.061-1.82,0.161v-0.423
			c0.753-0.044,0.993-0.365,0.993-1.149v-5.885c0-0.844,0-1.042-0.993-1.164v-0.403c0.708-0.104,1.554-0.473,2.628-0.932
			c-0.078,0.752-0.124,1.539-0.124,2.348c0.386-1.311,1.553-2.142,3.031-2.142c2.356,0,3.19,1.456,3.19,4.443v3.739
			c0,0.784,0.237,1.109,0.99,1.149v0.421c-0.545-0.104-1.051-0.16-1.537-0.16c-0.286,0-0.68,0-1.229,0.103
			c0.06-0.647,0.104-1.279,0.104-1.875c0-0.085,0-0.312,0-0.753v-3.455c0-1.59-0.485-2.345-1.678-2.345
			c-0.93,0-1.837,0.522-2.3,1.372c-0.389,0.684-0.399,1.438-0.399,2.33c0,0.155,0,0.314,0,0.48v2.728
			C224.069,207.997,224.292,208.319,225.036,208.363z"/>
		<path fill="#A4AA9A" d="M232.272,208.404c0.883-0.132,0.987-0.572,0.987-1.463v-5.937c0-0.787-0.16-0.932-0.969-0.97v-0.341
			c0.847-0.103,1.74-0.399,2.746-0.844c-0.08,0.63-0.104,1.277-0.104,1.941v6.156c0,0.91,0.132,1.358,1.018,1.46v0.388
			c-0.687-0.103-1.313-0.16-1.858-0.16c-0.467,0-1.071,0.059-1.815,0.16L232.272,208.404L232.272,208.404z M234.012,195.231
			c0.603,0,1.124,0.524,1.124,1.189c0,0.635-0.5,1.132-1.169,1.132c-0.604,0-1.108-0.498-1.108-1.147
			C232.862,195.795,233.34,195.231,234.012,195.231z"/>
		<path fill="#A4AA9A" d="M239.722,196.421v2.792h2.645v1.028h-2.645v5.513c0,1.249,0.29,1.96,1.376,1.96
			c0.485,0,0.95-0.182,1.471-0.52l-0.056,1.227c-0.604,0.365-1.229,0.546-1.905,0.546c-1.754,0-2.589-0.989-2.589-3.053v-5.676
			h-1.209v-1.027h1.209v-1.718c0.584-0.188,1.027-0.524,1.416-1.076L239.722,196.421L239.722,196.421z"/>
	</g>
</g>
<g id="figure-2">
	<g id="arm-2-base">
		<path fill="#748797" d="M127.443,54.54c22.16,1.992,28.391-16.243,28.391-16.243c3.843-10.164,14.877-8.96,14.877-8.96
			c15.554,2.984-4.079,20.809-4.079,20.809c-14.095,11.418-30.187,9.382-40.011,6.403c0,0-1.216-0.293-1.092-1.256
			C125.53,55.299,125.587,54.135,127.443,54.54z"/>
		<path fill="#798B9B" d="M170.63,29.774c15.027,2.932-4.286,20.413-4.286,20.413c-14.111,11.38-29.865,9.291-39.72,6.359
			c0,0-1.2-0.292-1.076-1.252c0,0,0.075-1.112,1.933-0.712c22.163,1.996,28.508-16.047,28.508-16.047
			C159.908,28.411,170.63,29.774,170.63,29.774z"/>
		<path fill="#7E90A0" d="M170.549,30.209c14.494,2.878-4.488,20.016-4.488,20.016c-14.122,11.335-29.54,9.198-39.432,6.317
			c0,0-1.185-0.287-1.042-1.249c0,0,0.098-1.072,1.953-0.667c22.16,1.992,28.622-15.854,28.622-15.854
			C160.14,28.689,170.549,30.209,170.549,30.209z"/>
		<path fill="#8294A4" d="M170.471,30.648c13.96,2.832-4.7,19.615-4.7,19.615c-14.129,11.295-29.2,9.107-39.127,6.273
			c0,0-1.169-0.283-1.026-1.245c0,0,0.125-1.026,1.979-0.627c22.167,1.993,28.745-15.658,28.745-15.658
			C160.374,28.966,170.471,30.648,170.471,30.648z"/>
		<path fill="#8798A8" d="M170.393,31.079c13.425,2.787-4.911,19.221-4.911,19.221c-14.134,11.254-28.88,9.013-38.836,6.231
			c0,0-1.145-0.279-1.017-1.239c0,0,0.142-0.993,2.003-0.581c22.16,1.995,28.846-15.462,28.846-15.462
			C160.605,29.244,170.393,31.079,170.393,31.079z"/>
		<path fill="#8C9DAC" d="M170.31,31.519c12.895,2.728-5.106,18.82-5.106,18.82c-14.154,11.206-28.554,8.923-38.553,6.187
			c0,0-1.117-0.274-0.987-1.237c0,0,0.164-0.941,2.015-0.54c22.173,1.99,28.965-15.273,28.965-15.273
			C160.841,29.523,170.31,31.519,170.31,31.519z"/>
		<path fill="#91A2B1" d="M170.23,31.951c12.359,2.689-5.313,18.424-5.313,18.424c-14.17,11.17-28.222,8.83-38.261,6.149
			c0,0-1.107-0.269-0.965-1.23c0,0,0.193-0.9,2.045-0.497c22.162,1.995,29.077-15.082,29.077-15.082
			C161.068,29.803,170.23,31.951,170.23,31.951z"/>
		<path fill="#97A6B5" d="M170.151,32.386c11.827,2.63-5.524,18.026-5.524,18.026c-14.188,11.125-27.896,8.74-37.961,6.103
			c0,0-1.086-0.266-0.944-1.228c0,0,0.221-0.856,2.071-0.459c22.17,1.994,29.188-14.882,29.188-14.882
			C161.302,30.084,170.151,32.386,170.151,32.386z"/>
		<path fill="#9CABBA" d="M170.073,32.819c11.299,2.587-5.731,17.631-5.731,17.631c-14.192,11.089-27.566,8.646-37.667,6.062
			c0,0-1.063-0.262-0.931-1.223c0,0,0.229-0.815,2.09-0.413C150,56.87,157.137,40.188,157.137,40.188
			C161.541,30.364,170.073,32.819,170.073,32.819z"/>
		<path fill="#A2B0BE" d="M127.885,54.914c22.171,1.99,29.423-14.5,29.423-14.5c4.464-9.774,12.688-7.153,12.688-7.153
			c10.768,2.531-5.936,17.228-5.936,17.228c-14.205,11.047-27.241,8.555-37.381,6.018c0,0-1.042-0.257-0.903-1.218
			C125.77,55.282,126.033,54.51,127.885,54.914z"/>
	</g>
	<g id="arm-2-blend">
		<path fill="#A2B0BE" d="M127.885,54.914c22.171,1.99,29.423-14.5,29.423-14.5c4.464-9.774,12.688-7.153,12.688-7.153
			c10.768,2.531-5.936,17.228-5.936,17.228c-14.205,11.047-27.241,8.555-37.381,6.018c0,0-1.042-0.257-0.903-1.218
			C125.77,55.282,126.033,54.51,127.885,54.914z"/>
		<path fill="#A9B7C4" d="M169.739,33.756c10.313,2.449-5.091,16.099-5.864,16.768c-13.611,10.674-26.924,8.472-36.954,5.98
			c0,0-1.097-0.253-0.964-1.188c0,0,0.245-0.714,2.086-0.328c21.73,1.908,29.104-13.843,29.213-14.023
			C161.62,31.653,169.313,33.641,169.739,33.756z"/>
		<path fill="#B0BDC9" d="M169.494,34.255c9.854,2.369-4.248,14.972-5.8,16.313c-13.024,10.302-26.61,8.376-36.535,5.947
			c0,0-1.13-0.259-1.021-1.155c0,0,0.23-0.656,2.067-0.291c21.293,1.826,28.783-13.185,29.012-13.547
			C161.467,32.674,168.644,34.024,169.494,34.255z"/>
		<path fill="#B9C4D0" d="M169.254,34.758c9.386,2.288-3.415,13.846-5.736,15.846c-12.438,9.933-26.288,8.296-36.107,5.913
			c0,0-1.188-0.255-1.091-1.118c0,0,0.222-0.592,2.047-0.245c20.851,1.744,28.471-12.535,28.809-13.069
			C161.315,33.69,167.966,34.408,169.254,34.758z"/>
		<path fill="#C1CBD6" d="M169.002,35.255c8.922,2.205-2.569,12.711-5.664,15.387c-11.844,9.559-25.97,8.202-35.684,5.881
			c0,0-1.233-0.255-1.148-1.093c0,0,0.21-0.535,2.021-0.207c20.412,1.663,28.148-11.881,28.602-12.6
			C161.164,34.708,167.296,34.795,169.002,35.255z"/>
		<path fill="#C9D2DC" d="M168.755,35.755c8.464,2.128-1.729,11.587-5.597,14.93c-11.257,9.185-25.649,8.11-35.256,5.838
			c0,0-1.288-0.253-1.214-1.054c0,0,0.194-0.483,2.005-0.166c19.972,1.584,27.836-11.224,28.391-12.125
			C161.017,35.723,166.62,35.176,168.755,35.755z"/>
		<path fill="#D2DAE2" d="M168.508,36.252c8.006,2.043-0.892,10.455-5.527,14.479c-10.672,8.813-25.336,8.02-34.837,5.801
			c0,0-1.328-0.25-1.277-1.021c0,0,0.182-0.416,1.981-0.128c19.531,1.501,27.511-10.572,28.191-11.647
			C160.865,36.743,165.944,35.558,168.508,36.252z"/>
		<path fill="#DBE1E8" d="M168.255,36.756c7.545,1.96-0.044,9.327-5.454,14.011c-10.078,8.439-25.016,7.937-34.414,5.771
			c0,0-1.377-0.251-1.336-0.992c0,0,0.166-0.36,1.96-0.083c19.091,1.42,27.195-9.916,27.981-11.172
			C160.711,37.757,165.271,35.946,168.255,36.756z"/>
		<path fill="#E4E9EE" d="M168.017,37.255c7.083,1.875,0.791,8.194-5.396,13.552c-9.487,8.065-24.692,7.845-33.985,5.73
			c0,0-1.429-0.253-1.395-0.955c0,0,0.148-0.307,1.935-0.042c18.65,1.337,26.885-9.264,27.776-10.7
			C160.562,38.773,164.594,36.326,168.017,37.255z"/>
		<path fill="#EEF1F4" d="M129.334,55.622c18.212,1.254,26.562-8.607,27.572-10.23c3.506-5.608,7.02-8.686,10.858-7.644
			c6.622,1.796,1.638,7.069-5.324,13.088c-8.901,7.694-24.378,7.759-33.562,5.7c0,0-1.477-0.249-1.465-0.926
			C127.417,55.62,127.561,55.373,129.334,55.622z"/>
	</g>
	<path id="arm-2-highlight" fill="#FFFFFF" d="M172.606,31.564c-2.002-0.849-4.019-0.45-4.911,0.002
		c1.089,0.2,2.729,0.238,4.501,0.998c1.837,0.603,2.525,1.994,2.607,3.137C175.534,34.872,174.871,32.213,172.606,31.564z"/>
	<g id="head-2-base">
		<path fill="#748797" d="M171.121,24.693c6.437-1.297,10.621-7.575,9.313-14.034c-1.291-6.438-7.575-10.608-14.021-9.314
			c-5.767,1.162-9.687,6.312-9.521,12.001c0.017-5.291,3.744-10.025,9.138-11.113c6.16-1.244,12.171,2.749,13.413,8.913
			c1.241,6.157-2.749,12.167-8.909,13.405c-2.239,0.45-4.451,0.195-6.422-0.582C166.246,24.88,168.668,25.184,171.121,24.693z"/>
		<path fill="#748797" d="M170.529,24.552c6.162-1.239,10.152-7.243,8.908-13.406c-1.238-6.164-7.245-10.154-13.418-8.913
			c-5.389,1.086-9.116,5.814-9.133,11.113c0.02,0.666,0.055,1.342,0.193,2.016c0.013,0.041,0.028,0.065,0.042,0.103
			c-1.114-6.073,2.817-11.95,8.897-13.175c6.146-1.238,12.129,2.736,13.368,8.883c1.234,6.146-2.74,12.126-8.886,13.362
			c-2.259,0.454-4.489,0.197-6.474-0.607c0.03,0.013,0.045,0.029,0.066,0.042C166.078,24.746,168.289,25.003,170.529,24.552z"/>
		<path fill="#758898" d="M170.509,24.535c6.144-1.237,10.116-7.22,8.883-13.364c-1.242-6.146-7.221-10.119-13.365-8.88
			c-6.075,1.221-10.021,7.098-8.897,13.172c0.007,0.036,0.019,0.059,0.025,0.093c-1.166-6.085,2.779-11.991,8.865-13.216
			c6.124-1.232,12.088,2.728,13.33,8.854c1.23,6.127-2.73,12.093-8.858,13.326c-2.27,0.462-4.513,0.194-6.514-0.625
			c0.027,0.013,0.044,0.025,0.063,0.036C166.018,24.728,168.246,24.991,170.509,24.535z"/>
		<path fill="#768999" d="M170.484,24.518c6.126-1.231,10.093-7.196,8.861-13.323c-1.238-6.124-7.201-10.086-13.332-8.854
			c-6.087,1.225-10.028,7.131-8.868,13.216c0.013,0.041,0.032,0.067,0.041,0.112c-1.223-6.101,2.722-12.04,8.82-13.269
			c6.105-1.229,12.051,2.717,13.276,8.82c1.229,6.104-2.72,12.05-8.821,13.278c-2.321,0.473-4.62,0.179-6.643-0.688
			c0.048,0.027,0.103,0.053,0.146,0.081C165.971,24.714,168.214,24.98,170.484,24.518z"/>
		<path fill="#778A9A" d="M170.464,24.502c6.104-1.229,10.054-7.175,8.821-13.278c-1.227-6.101-7.174-10.055-13.272-8.821
			c-6.104,1.229-10.057,7.169-8.823,13.27c0.159,0.72,0.376,1.417,0.656,2.075c-0.263-0.655-0.486-1.337-0.629-2.054
			c-1.229-6.084,2.708-12.007,8.792-13.235c6.086-1.227,12.011,2.708,13.238,8.798c1.226,6.085-2.708,12.009-8.796,13.24
			c-2.993,0.601-5.938-0.051-8.318-1.59c0.535,0.357,1.107,0.653,1.692,0.921C165.842,24.677,168.141,24.969,170.464,24.502z"/>
		<path fill="#788B9B" d="M170.443,24.485c6.084-1.223,10.021-7.148,8.795-13.237C178.019,5.164,172.092,1.227,166,2.449
			c-6.083,1.223-10.024,7.147-8.796,13.239c0.139,0.716,0.367,1.396,0.633,2.049c0.013,0.026,0.033,0.044,0.043,0.075
			c-0.279-0.668-0.499-1.374-0.652-2.109c-1.226-6.067,2.702-11.972,8.766-13.19c6.068-1.22,11.971,2.701,13.192,8.765
			c1.22,6.067-2.705,11.972-8.769,13.194c-3.007,0.603-5.977-0.059-8.352-1.618c0.024,0.01,0.042,0.028,0.051,0.044
			C164.503,24.431,167.451,25.088,170.443,24.485z"/>
		<path fill="#798C9C" d="M170.421,24.467c6.063-1.22,9.988-7.126,8.769-13.191c-1.223-6.063-7.131-9.988-13.194-8.77
			c-6.063,1.222-9.987,7.132-8.766,13.19c0.144,0.742,0.374,1.446,0.655,2.109c0.304,0.678,0.651,1.333,1.054,1.931
			c-0.795-1.188-1.38-2.54-1.684-4.031c-1.217-6.046,2.694-11.929,8.734-13.151c6.044-1.216,11.933,2.697,13.15,8.737
			c1.217,6.046-2.694,11.926-8.732,13.149c-3.455,0.697-6.831-0.323-9.344-2.423c0.331,0.289,0.663,0.579,1.019,0.825
			C164.451,24.408,167.413,25.072,170.421,24.467z"/>
		<path fill="#7A8D9C" d="M170.404,24.448c6.044-1.216,9.957-7.106,8.732-13.15c-1.211-6.047-7.104-9.96-13.15-8.736
			c-6.049,1.219-9.963,7.104-8.734,13.15c0.303,1.486,0.888,2.85,1.684,4.031c0.018,0.02,0.038,0.031,0.043,0.046
			c-0.813-1.197-1.402-2.563-1.715-4.07c-1.203-6.025,2.689-11.896,8.715-13.105c6.023-1.207,11.895,2.688,13.104,8.711
			c1.21,6.022-2.688,11.895-8.713,13.106c-3.765,0.753-7.466-0.485-10.011-2.983c0.219,0.217,0.469,0.383,0.69,0.579
			C163.571,24.125,166.947,25.146,170.404,24.448z"/>
		<path fill="#7B8D9D" d="M170.375,24.436c6.024-1.216,9.934-7.084,8.716-13.107c-1.21-6.022-7.08-9.922-13.105-8.712
			c-6.023,1.21-9.922,7.08-8.714,13.104c0.311,1.504,0.9,2.878,1.715,4.067c0.406,0.595,0.877,1.15,1.38,1.659
			C162.91,23.952,166.611,25.195,170.375,24.436z"/>
		<circle fill="#7B8D9D" cx="168.166" cy="13.546" r="11.089"/>
		<circle fill="#7C8E9E" cx="168.166" cy="13.546" r="11.089"/>
		<circle fill="#7C8E9E" cx="168.15" cy="13.561" r="11.053"/>
		<circle fill="#7D8F9F" cx="168.15" cy="13.561" r="11.053"/>
		<circle fill="#7D8F9F" cx="168.137" cy="13.584" r="11.02"/>
		<circle fill="#7E90A0" cx="168.137" cy="13.584" r="11.015"/>
		<circle fill="#7E90A0" cx="168.125" cy="13.599" r="10.981"/>
		<circle fill="#7F91A1" cx="168.125" cy="13.599" r="10.981"/>
		<circle fill="#7F91A1" cx="168.108" cy="13.616" r="10.943"/>
		<circle fill="#8092A2" cx="168.108" cy="13.616" r="10.943"/>
		<circle fill="#8092A2" cx="168.099" cy="13.64" r="10.908"/>
		<circle fill="#8193A3" cx="168.097" cy="13.64" r="10.908"/>
		<circle fill="#8193A3" cx="168.076" cy="13.656" r="10.872"/>
		<circle fill="#8294A4" cx="168.076" cy="13.656" r="10.872"/>
		<circle fill="#8294A4" cx="168.061" cy="13.678" r="10.834"/>
		<circle fill="#8395A5" cx="168.061" cy="13.678" r="10.834"/>
		<circle fill="#8395A5" cx="168.055" cy="13.695" r="10.798"/>
		<circle fill="#8596A6" cx="168.052" cy="13.695" r="10.798"/>
		<circle fill="#8596A6" cx="168.039" cy="13.712" r="10.762"/>
		<circle fill="#8697A6" cx="168.039" cy="13.712" r="10.762"/>
		<circle fill="#8697A6" cx="168.023" cy="13.731" r="10.724"/>
		<circle fill="#8798A7" cx="168.023" cy="13.733" r="10.721"/>
		<circle fill="#8798A7" cx="168.01" cy="13.752" r="10.688"/>
		<circle fill="#8899A8" cx="168.01" cy="13.752" r="10.688"/>
		<circle fill="#8899A8" cx="167.995" cy="13.771" r="10.654"/>
		<circle fill="#899AA9" cx="167.995" cy="13.771" r="10.654"/>
		<circle fill="#899AA9" cx="167.98" cy="13.791" r="10.615"/>
		<circle fill="#8A9BAA" cx="167.98" cy="13.791" r="10.615"/>
		<circle fill="#8A9BAA" cx="167.964" cy="13.808" r="10.579"/>
		<circle fill="#8B9CAB" cx="167.964" cy="13.808" r="10.579"/>
		<circle fill="#8B9CAB" cx="167.951" cy="13.826" r="10.541"/>
		<circle fill="#8C9DAC" cx="167.955" cy="13.826" r="10.541"/>
		<circle fill="#8C9DAC" cx="167.935" cy="13.845" r="10.507"/>
		<circle fill="#8D9EAD" cx="167.935" cy="13.845" r="10.507"/>
		<circle fill="#8D9EAD" cx="167.927" cy="13.863" r="10.468"/>
		<circle fill="#8E9FAE" cx="167.927" cy="13.863" r="10.468"/>
		<circle fill="#8E9FAE" cx="167.908" cy="13.884" r="10.434"/>
		<circle fill="#8FA0AF" cx="167.908" cy="13.884" r="10.433"/>
		<circle fill="#8FA0AF" cx="167.89" cy="13.903" r="10.396"/>
		<circle fill="#90A1B0" cx="167.89" cy="13.903" r="10.396"/>
		<circle fill="#90A1B0" cx="167.881" cy="13.918" r="10.358"/>
		<circle fill="#91A2B1" cx="167.881" cy="13.918" r="10.362"/>
		<circle fill="#91A2B1" cx="167.866" cy="13.94" r="10.322"/>
		<circle fill="#93A3B2" cx="167.866" cy="13.94" r="10.324"/>
		<circle fill="#93A3B2" cx="167.85" cy="13.961" r="10.284"/>
		<circle fill="#94A4B3" cx="167.85" cy="13.957" r="10.286"/>
		<circle fill="#94A4B3" cx="167.838" cy="13.973" r="10.25"/>
		<circle fill="#95A5B3" cx="167.838" cy="13.973" r="10.25"/>
		<circle fill="#95A5B3" cx="167.821" cy="13.995" r="10.211"/>
		<circle fill="#96A6B4" cx="167.821" cy="13.994" r="10.214"/>
		<circle fill="#96A6B4" cx="167.805" cy="14.012" r="10.177"/>
		<circle fill="#97A7B5" cx="167.805" cy="14.014" r="10.179"/>
		<circle fill="#97A7B5" cx="167.793" cy="14.033" r="10.139"/>
		<circle fill="#98A8B6" cx="167.793" cy="14.035" r="10.141"/>
		<circle fill="#98A8B6" cx="167.781" cy="14.053" r="10.103"/>
		<circle fill="#99A9B7" cx="167.781" cy="14.052" r="10.101"/>
		<circle fill="#99A9B7" cx="167.766" cy="14.067" r="10.067"/>
		<circle fill="#9BAAB8" cx="167.766" cy="14.067" r="10.065"/>
		<circle fill="#9BAAB8" cx="167.753" cy="14.088" r="10.028"/>
		<circle fill="#9CABB9" cx="167.752" cy="14.088" r="10.028"/>
		<circle fill="#9CABB9" cx="167.738" cy="14.107" r="9.994"/>
		<circle fill="#9DACBA" cx="167.738" cy="14.105" r="9.992"/>
		<circle fill="#9DACBA" cx="167.72" cy="14.129" r="9.956"/>
		<circle fill="#9EADBB" cx="167.72" cy="14.129" r="9.956"/>
		<circle fill="#9EADBB" cx="167.706" cy="14.146" r="9.92"/>
		<circle fill="#9FAEBC" cx="167.706" cy="14.146" r="9.92"/>
		<circle fill="#9FAEBC" cx="167.695" cy="14.165" r="9.884"/>
		<circle fill="#A1AFBD" cx="167.695" cy="14.167" r="9.882"/>
		<circle fill="#A1AFBD" cx="167.678" cy="14.182" r="9.848"/>
		<circle fill="#A2B0BE" cx="167.678" cy="14.182" r="9.848"/>
		<circle fill="#A2B0BE" cx="167.666" cy="14.203" r="9.809"/>
		<circle fill="#A3B1BF" cx="167.666" cy="14.203" r="9.809"/>
		<circle fill="#A3B1BF" cx="167.653" cy="14.222" r="9.773"/>
		<circle fill="#A4B2C0" cx="167.653" cy="14.222" r="9.773"/>
		<circle fill="#A4B2C0" cx="167.637" cy="14.239" r="9.739"/>
		<circle fill="#A6B4C1" cx="167.637" cy="14.239" r="9.739"/>
		<circle fill="#A6B4C1" cx="167.615" cy="14.256" r="9.701"/>
		<circle fill="#A7B5C2" cx="167.615" cy="14.256" r="9.701"/>
		<circle fill="#A7B5C2" cx="167.606" cy="14.275" r="9.665"/>
		<circle fill="#A8B6C3" cx="167.606" cy="14.275" r="9.665"/>
		<circle fill="#A8B6C3" cx="167.595" cy="14.297" r="9.627"/>
		<circle fill="#A9B7C4" cx="167.595" cy="14.297" r="9.627"/>
		<circle fill="#A9B7C4" cx="167.579" cy="14.314" r="9.59"/>
		<circle fill="#ABB8C5" cx="167.579" cy="14.314" r="9.59"/>
		<circle fill="#ABB8C5" cx="167.568" cy="14.335" r="9.555"/>
		<circle fill="#ACB9C6" cx="167.568" cy="14.335" r="9.555"/>
		<circle fill="#ACB9C6" cx="167.549" cy="14.35" r="9.518"/>
		<circle fill="#ADBAC7" cx="167.549" cy="14.35" r="9.518"/>
		<circle fill="#ADBAC7" cx="167.532" cy="14.369" r="9.48"/>
		<circle fill="#AEBBC8" cx="167.532" cy="14.371" r="9.48"/>
		<circle fill="#AEBBC8" cx="167.52" cy="14.39" r="9.446"/>
		<circle fill="#B0BCC9" cx="167.52" cy="14.39" r="9.446"/>
		<circle fill="#B0BCC9" cx="167.507" cy="14.407" r="9.41"/>
		<circle fill="#B1BECA" cx="167.507" cy="14.409" r="9.407"/>
		<circle fill="#B1BECA" cx="167.494" cy="14.429" r="9.371"/>
		<circle fill="#B2BFCB" cx="167.494" cy="14.429" r="9.371"/>
		<circle fill="#B2BFCB" cx="167.479" cy="14.443" r="9.333"/>
		<circle fill="#B4C0CC" cx="167.479" cy="14.443" r="9.335"/>
		<circle fill="#B4C0CC" cx="167.462" cy="14.465" r="9.297"/>
		<circle fill="#B5C1CD" cx="167.462" cy="14.465" r="9.297"/>
		<circle fill="#B5C1CD" cx="167.451" cy="14.484" r="9.261"/>
		<circle fill="#B6C2CE" cx="167.447" cy="14.484" r="9.261"/>
		<circle fill="#B6C2CE" cx="167.434" cy="14.505" r="9.225"/>
		<circle fill="#B8C3CF" cx="167.434" cy="14.505" r="9.225"/>
		<circle fill="#B8C3CF" cx="167.422" cy="14.524" r="9.188"/>
		<circle fill="#B9C5D0" cx="167.422" cy="14.524" r="9.188"/>
		<circle fill="#B9C5D0" cx="167.404" cy="14.543" r="9.152"/>
		<circle fill="#BAC6D1" cx="167.404" cy="14.543" r="9.152"/>
		<circle fill="#BAC6D1" cx="167.396" cy="14.558" r="9.112"/>
		<circle fill="#BCC7D2" cx="167.396" cy="14.558" r="9.112"/>
		<circle fill="#BCC7D2" cx="167.381" cy="14.579" r="9.08"/>
		<circle fill="#BDC8D3" cx="167.381" cy="14.577" r="9.08"/>
		<circle fill="#BDC8D3" cx="167.381" cy="14.575" r="9.042"/>
		<circle fill="#BDC8D3" cx="167.381" cy="14.575" r="9.042"/>
		<circle fill="#BDC8D3" cx="167.33" cy="14.643" r="8.918"/>
		<circle fill="#BFC9D4" cx="167.33" cy="14.643" r="8.916"/>
		<circle fill="#BFC9D4" cx="167.283" cy="14.705" r="8.795"/>
		<circle fill="#C0CBD5" cx="167.283" cy="14.705" r="8.795"/>
		<circle fill="#C0CBD5" cx="167.229" cy="14.775" r="8.67"/>
		<circle fill="#C2CCD6" cx="167.234" cy="14.775" r="8.67"/>
		<circle fill="#C2CCD6" cx="167.177" cy="14.836" r="8.549"/>
		<circle fill="#C3CDD7" cx="167.177" cy="14.836" r="8.549"/>
		<circle fill="#C3CDD7" cx="167.135" cy="14.9" r="8.426"/>
		<circle fill="#C5CED8" cx="167.135" cy="14.9" r="8.426"/>
		<circle fill="#C5CED8" cx="167.081" cy="14.964" r="8.3"/>
		<circle fill="#C6D0D9" cx="167.081" cy="14.964" r="8.3"/>
		<circle fill="#C6D0D9" cx="167.037" cy="15.028" r="8.179"/>
		<circle fill="#C7D1DA" cx="167.037" cy="15.028" r="8.179"/>
		<circle fill="#C7D1DA" cx="166.985" cy="15.096" r="8.053"/>
		<circle fill="#C9D2DB" cx="166.985" cy="15.096" r="8.053"/>
		<circle fill="#C9D2DB" cx="166.934" cy="15.157" r="7.93"/>
		<circle fill="#CAD3DD" cx="166.934" cy="15.157" r="7.93"/>
		<circle fill="#CAD3DD" cx="166.887" cy="15.221" r="7.807"/>
		<circle fill="#CCD5DE" cx="166.887" cy="15.221" r="7.807"/>
		<circle fill="#CCD5DE" cx="166.837" cy="15.289" r="7.679"/>
		<circle fill="#CED6DF" cx="166.837" cy="15.289" r="7.679"/>
		<circle fill="#CED6DF" cx="166.789" cy="15.353" r="7.558"/>
		<circle fill="#CFD7E0" cx="166.789" cy="15.353" r="7.558"/>
		<circle fill="#CFD7E0" cx="166.737" cy="15.415" r="7.437"/>
		<circle fill="#D1D9E1" cx="166.737" cy="15.415" r="7.437"/>
		<circle fill="#D1D9E1" cx="166.69" cy="15.481" r="7.311"/>
		<circle fill="#D2DAE2" cx="166.69" cy="15.481" r="7.311"/>
		<circle fill="#D2DAE2" cx="166.639" cy="15.547" r="7.188"/>
		<circle fill="#D4DBE3" cx="166.639" cy="15.547" r="7.188"/>
		<circle fill="#D4DBE3" cx="166.593" cy="15.608" r="7.064"/>
		<circle fill="#D5DDE4" cx="166.593" cy="15.608" r="7.064"/>
		<circle fill="#D5DDE4" cx="166.543" cy="15.676" r="6.941"/>
		<circle fill="#D7DEE5" cx="166.543" cy="15.676" r="6.941"/>
		<circle fill="#D7DEE5" cx="166.494" cy="15.74" r="6.818"/>
		<circle fill="#D9DFE6" cx="166.494" cy="15.74" r="6.818"/>
		<circle fill="#D9DFE6" cx="166.445" cy="15.802" r="6.693"/>
		<circle fill="#DAE1E7" cx="166.445" cy="15.802" r="6.693"/>
		<circle fill="#DAE1E7" cx="166.394" cy="15.868" r="6.57"/>
		<circle fill="#DCE2E8" cx="166.394" cy="15.868" r="6.57"/>
		<circle fill="#DCE2E8" cx="166.345" cy="15.936" r="6.446"/>
		<circle fill="#DDE3E9" cx="166.345" cy="15.936" r="6.446"/>
		<circle fill="#DDE3E9" cx="166.292" cy="15.995" r="6.323"/>
		<circle fill="#DFE5EB" cx="166.292" cy="15.995" r="6.323"/>
		<circle fill="#DFE5EB" cx="166.25" cy="16.061" r="6.197"/>
		<circle fill="#E1E6EC" cx="166.25" cy="16.061" r="6.197"/>
		<circle fill="#E1E6EC" cx="166.195" cy="16.125" r="6.076"/>
		<circle fill="#E2E7ED" cx="166.195" cy="16.125" r="6.076"/>
		<circle fill="#E2E7ED" cx="166.152" cy="16.193" r="5.952"/>
		<circle fill="#E4E9EE" cx="166.152" cy="16.193" r="5.952"/>
		<circle fill="#E4E9EE" cx="166.101" cy="16.254" r="5.827"/>
		<circle fill="#E6EAEF" cx="166.101" cy="16.254" r="5.827"/>
		<circle fill="#E6EAEF" cx="166.052" cy="16.322" r="5.706"/>
		<circle fill="#E7ECF0" cx="166.052" cy="16.322" r="5.706"/>
		<circle fill="#E7ECF0" cx="166.002" cy="16.384" r="5.58"/>
		<circle fill="#E9EDF1" cx="166.002" cy="16.384" r="5.58"/>
		<circle fill="#E9EDF1" cx="165.95" cy="16.448" r="5.458"/>
		<circle fill="#EBEEF2" cx="165.95" cy="16.448" r="5.458"/>
		<circle fill="#EBEEF2" cx="165.905" cy="16.516" r="5.334"/>
		<circle fill="#ECF0F3" cx="165.905" cy="16.516" r="5.334"/>
		<circle fill="#ECF0F3" cx="165.851" cy="16.578" r="5.209"/>
		<circle fill="#EEF1F4" cx="165.851" cy="16.578" r="5.209"/>
		<circle fill="#EEF1F4" cx="165.851" cy="16.578" r="5.085"/>
		<circle fill="#EEF1F4" cx="165.851" cy="16.578" r="5.085"/>
		<circle fill="#EEF1F4" cx="165.697" cy="16.782" r="4.724"/>
		<circle fill="#F0F3F5" cx="165.697" cy="16.782" r="4.724"/>
		<circle fill="#F0F3F5" cx="165.542" cy="16.988" r="4.36"/>
		<circle fill="#F2F4F7" cx="165.542" cy="16.988" r="4.36"/>
		<circle fill="#F2F4F7" cx="165.385" cy="17.19" r="3.997"/>
		<circle fill="#F4F6F8" cx="165.385" cy="17.19" r="3.997"/>
		<circle fill="#F4F6F8" cx="165.227" cy="17.392" r="3.634"/>
		<circle fill="#F5F7F9" cx="165.227" cy="17.392" r="3.634"/>
		<circle fill="#F5F7F9" cx="165.076" cy="17.598" r="3.272"/>
		<circle fill="#F7F9FA" cx="165.076" cy="17.598" r="3.272"/>
		<circle fill="#F7F9FA" cx="164.921" cy="17.805" r="2.908"/>
		<circle fill="#F9FAFC" cx="164.921" cy="17.805" r="2.908"/>
		<circle fill="#F9FAFC" cx="164.765" cy="18.011" r="2.545"/>
		<circle fill="#FBFCFD" cx="164.765" cy="18.011" r="2.545"/>
		<circle fill="#FBFCFD" cx="164.606" cy="18.211" r="2.181"/>
		<circle fill="#FDFDFE" cx="164.606" cy="18.211" r="2.181"/>
		<circle fill="#FDFDFE" cx="164.454" cy="18.412" r="1.816"/>
		<circle fill="#FFFFFF" cx="164.454" cy="18.412" r="1.816"/>
	</g>
	<path id="head-2-highlight" fill="#FFFFFF" d="M174.621,4.413c-3.003-1.964-6.334-1.646-7.839-1.042
		c1.683,0.03,4.574,0.184,7.251,1.927c2.645,1.788,3.912,4.396,4.591,5.938C178.594,9.607,177.598,6.418,174.621,4.413z"/>
</g>
<g id="figure-1">
	<g id="arm-1-base_1_">
		<path fill="#A4AA9A" d="M185.041,45.678c-8.616,17.142-26.75,41.239-61.31,44.111c0,0-36.552,3.305-31.775-22.102
			c0,0,3.914-18.736,28.303-7.185c0,0,34.83,17.494,61.855-16.716c0,0,1.127-1.604,2.506-0.653
			C184.614,43.133,185.86,44.027,185.041,45.678z"/>
		<path fill="#A8AD9E" d="M184.259,43.767c0,0,1.181,0.861,0.361,2.517C175.992,63,158.219,86.89,123.658,89.75
			c0,0-36.317,3.298-31.509-21.889c0,0,3.898-18.323,28.288-6.771c0,0,34.438,17.183,61.203-16.578
			C181.636,44.52,182.882,42.817,184.259,43.767z"/>
		<path fill="#ACB1A2" d="M183.904,44.407c0,0,1.108,0.838,0.296,2.486c-8.638,16.291-26.057,39.96-60.614,42.832
			c0,0-36.086,3.295-31.245-21.68c0,0,3.882-17.903,28.271-6.345c0,0,34.054,16.871,60.563-16.436
			C181.166,45.251,182.529,43.454,183.904,44.407z"/>
		<path fill="#AFB4A6" d="M183.547,45.043c0,0,1.043,0.807,0.221,2.454c-8.645,15.865-25.714,39.318-60.266,42.185
			c0,0-35.852,3.288-30.982-21.47c0,0,3.871-17.487,28.257-5.934c0,0,33.661,16.558,59.924-16.298
			C180.696,45.983,182.174,44.091,183.547,45.043z"/>
		<path fill="#B3B8A9" d="M183.191,45.678c0,0,0.977,0.772,0.161,2.432c-8.657,15.435-25.365,38.672-59.918,41.542
			c0,0-35.625,3.286-30.721-21.262c0,0,3.854-17.068,28.235-5.518c0,0,33.276,16.249,59.275-16.164
			C180.224,46.716,181.819,44.726,183.191,45.678z"/>
		<path fill="#B7BCAE" d="M182.837,46.314c0,0,0.907,0.749,0.094,2.4c-8.668,15.009-25.016,38.032-59.57,40.898
			c0,0-35.39,3.278-30.458-21.044c0,0,3.843-16.653,28.22-5.1c0,0,32.896,15.936,58.626-16.014
			C179.752,47.449,181.466,45.359,182.837,46.314z"/>
		<path fill="#BBBFB2" d="M182.482,46.948c0,0,0.841,0.719,0.025,2.368c-8.68,14.577-24.666,37.391-59.219,40.261
			c0,0-35.15,3.271-30.19-20.841c0,0,3.829-16.238,28.214-4.682c0,0,32.497,15.629,57.979-15.875
			C179.285,48.181,181.108,45.995,182.482,46.948z"/>
		<path fill="#BEC3B6" d="M182.127,47.587c0,0,0.768,0.688-0.045,2.341c-8.69,14.146-24.316,36.746-58.866,39.62
			c0,0-34.922,3.267-29.93-20.629c0,0,3.812-15.819,28.199-4.265c0,0,32.113,15.309,57.342-15.736
			C178.818,48.912,180.754,46.633,182.127,47.587z"/>
		<path fill="#C2C7BA" d="M181.769,48.224c0,0,0.706,0.665-0.11,2.309c-8.696,13.729-23.968,36.105-58.517,38.976
			c0,0-34.686,3.263-29.667-20.417c0,0,3.799-15.404,28.185-3.854c0,0,31.727,15.005,56.692-15.598
			C178.343,49.644,180.4,47.269,181.769,48.224z"/>
		<path fill="#C6CABF" d="M181.236,51.138c-8.709,13.296-23.622,35.469-58.172,38.33c0,0-34.452,3.255-29.399-20.206
			c0,0,3.786-14.988,28.166-3.432c0,0,31.335,14.688,56.046-15.458c0,0,2.171-2.469,3.538-1.516
			C181.415,48.859,182.046,49.49,181.236,51.138z"/>
	</g>
	<g id="arm-1-blend">
		<path fill="#C6CABF" d="M181.236,51.138c-8.709,13.296-23.622,35.469-58.172,38.33c0,0-34.452,3.255-29.399-20.206
			c0,0,3.786-14.988,28.166-3.432c0,0,31.335,14.688,56.046-15.458c0,0,2.171-2.469,3.538-1.516
			C181.415,48.859,182.046,49.49,181.236,51.138z"/>
		<path fill="#CBCFC4" d="M180.541,50.092c0,0,0.556,0.742-0.339,2.407c-9.062,13.271-23.682,33.933-56.824,36.796
			c0,0-34.462,3.188-29.306-19.654c0,0,3.719-14.414,27.771-3.141c0,0,30.791,14.118,55.179-14.836
			C177.011,51.653,179.177,49.146,180.541,50.092z"/>
		<path fill="#D0D4CA" d="M179.663,51.317c0,0,0.48,0.848-0.487,2.53c-9.434,13.242-23.752,32.399-55.496,35.251
			c0,0-34.466,3.115-29.203-19.101c0,0,3.655-13.848,27.366-2.846c0,0,30.251,13.539,54.313-14.22
			C176.148,52.934,178.304,50.387,179.663,51.317z"/>
		<path fill="#D6D9D0" d="M178.791,52.545c0,0,0.398,0.959-0.66,2.656c-9.786,13.222-23.813,30.872-54.146,33.711
			c0,0-34.479,3.038-29.109-18.555c0,0,3.588-13.28,26.968-2.547c0,0,29.711,12.962,53.44-13.601
			C175.286,54.213,177.436,51.625,178.791,52.545z"/>
		<path fill="#DBDED5" d="M177.92,53.776c0,0,0.311,1.07-0.818,2.781c-10.146,13.193-23.873,29.343-52.801,32.179
			c0,0-34.489,2.966-29.012-18c0,0,3.512-12.711,26.563-2.26c0,0,29.164,12.382,52.574-12.984
			C174.423,55.488,176.565,52.866,177.92,53.776z"/>
		<path fill="#E0E2DB" d="M177.046,55.005c0,0,0.227,1.18-0.977,2.9c-10.498,13.171-23.938,27.813-51.453,30.64
			c0,0-34.5,2.893-28.923-17.445c0,0,3.455-12.145,26.171-1.967c0,0,28.62,11.811,51.697-12.357
			C173.557,56.77,175.696,54.104,177.046,55.005z"/>
		<path fill="#E5E7E1" d="M176.172,56.234c0,0,0.148,1.283-1.132,3.027c-10.862,13.149-24.009,26.281-50.112,29.099
			c0,0-34.501,2.814-28.827-16.891c0,0,3.385-11.571,25.768-1.674c0,0,28.075,11.23,50.827-11.746
			C172.702,58.048,174.833,55.341,176.172,56.234z"/>
		<path fill="#EAECE7" d="M175.293,57.465c0,0,0.068,1.393-1.29,3.149c-11.215,13.119-24.061,24.753-48.767,27.563
			c0,0-34.505,2.742-28.732-16.345c0,0,3.322-11.009,25.371-1.378c0,0,27.531,10.654,49.962-11.13
			C171.833,59.323,173.956,56.583,175.293,57.465z"/>
		<path fill="#F0F1ED" d="M174.423,58.692c0,0-0.019,1.507-1.464,3.276c-11.573,13.099-24.122,23.22-47.423,26.02
			c0,0-34.514,2.672-28.631-15.792c0,0,3.253-10.435,24.966-1.084c0,0,26.985,10.069,49.095-10.513
			C170.972,60.603,173.087,57.82,174.423,58.692z"/>
		<path fill="#F5F6F4" d="M171.934,63.322c-11.939,13.071-24.196,21.688-46.083,24.487c0,0-34.528,2.603-28.532-15.241
			c0,0,3.181-9.872,24.563-0.791c0,0,26.444,9.498,48.226-9.892c0,0,2.106-2.822,3.437-1.963
			C173.547,59.925,173.453,61.538,171.934,63.322z"/>
	</g>
	<path id="arm-1-highlight" fill="#FFFFFF" d="M112.149,60.907c-4.737-1.493-9.473-0.71-11.443,0.785
		c2.346-0.755,6.538-0.943,11.101,0.463c4.547,1.247,8.415,3.243,10.896,3.539C120.501,64.683,116.971,62.247,112.149,60.907z"/>
	<g id="head-1-base">
		<path fill="#A4AA9A" d="M132.597,48.224c13.181-2.658,21.72-15.497,19.063-28.688c-2.658-13.17-15.501-21.705-28.676-19.053
			c-12.467,2.52-20.772,14.155-19.37,26.563c-0.985-11.627,6.871-22.394,18.588-24.751c12.607-2.541,24.877,5.619,27.417,18.223
			c2.54,12.606-5.623,24.878-18.227,27.417c-4.55,0.917-9.048,0.423-13.065-1.152C122.686,48.628,127.62,49.229,132.597,48.224z"/>
		<path fill="#A4AA9A" d="M131.398,47.938c12.609-2.543,20.77-14.815,18.227-27.417c-2.537-12.609-14.816-20.771-27.416-18.223
			c-11.721,2.36-19.573,13.131-18.589,24.758c0.078,0.697,0.172,1.399,0.31,2.101c0.015,0.066,0.041,0.128,0.044,0.188
			c-2.271-12.409,5.796-24.402,18.21-26.898c12.552-2.526,24.779,5.6,27.313,18.145c2.526,12.551-5.6,24.777-18.148,27.31
			c-4.656,0.938-9.261,0.401-13.349-1.274c0.117,0.052,0.221,0.113,0.342,0.16C122.352,48.362,126.853,48.854,131.398,47.938z"/>
		<path fill="#A5AB9B" d="M131.343,47.894c12.551-2.526,20.681-14.752,18.146-27.311c-2.53-12.55-14.75-20.68-27.309-18.148
			c-12.422,2.5-20.484,14.49-18.209,26.897c0.16,0.774,0.353,1.534,0.58,2.272c-0.174-0.602-0.342-1.208-0.472-1.834
			c-2.518-12.503,5.573-24.675,18.079-27.193c12.503-2.521,24.67,5.572,27.195,18.074c2.523,12.499-5.572,24.67-18.071,27.194
			c-5.358,1.077-10.646,0.199-15.146-2.132c0.6,0.33,1.216,0.623,1.846,0.904C122.076,48.295,126.685,48.829,131.343,47.894z"/>
		<path fill="#A6AC9C" d="M131.288,47.849c12.499-2.523,20.596-14.696,18.071-27.194c-2.521-12.503-14.693-20.597-27.193-18.076
			c-12.502,2.521-20.595,14.692-18.07,27.191c0.13,0.627,0.293,1.234,0.468,1.833c0.044,0.146,0.113,0.289,0.157,0.436
			c-0.221-0.733-0.41-1.471-0.574-2.241c-2.511-12.445,5.548-24.574,18.002-27.078c12.446-2.514,24.575,5.549,27.082,18.003
			c2.506,12.445-5.552,24.571-18.006,27.078c-6.078,1.221-12.076-0.082-16.915-3.181c0.591,0.397,1.201,0.752,1.829,1.099
			C120.643,48.05,125.934,48.927,131.288,47.849z"/>
		<path fill="#A7AD9D" d="M131.23,47.804c12.445-2.512,20.508-14.637,18.003-27.079c-2.511-12.448-14.636-20.507-27.081-18.003
			c-12.447,2.509-20.51,14.635-18.001,27.078c0.153,0.764,0.348,1.515,0.574,2.241c0.245,0.75,0.527,1.476,0.846,2.192
			c-0.583-1.392-1.046-2.866-1.357-4.401c-2.5-12.395,5.53-24.475,17.928-26.973c12.396-2.496,24.467,5.534,26.965,17.933
			c2.493,12.398-5.53,24.474-17.929,26.97c-6.184,1.245-12.278-0.133-17.155-3.352c0.101,0.071,0.194,0.149,0.295,0.221
			C119.152,47.721,125.148,49.033,131.23,47.804z"/>
		<path fill="#A8AE9E" d="M131.174,47.76c12.396-2.498,20.417-14.572,17.926-26.97c-2.501-12.4-14.572-20.419-26.969-17.931
			c-12.394,2.499-20.42,14.572-17.929,26.975c0.311,1.54,0.763,3.006,1.36,4.396c0.603,1.374,1.32,2.674,2.151,3.879
			c-1.64-2.428-2.836-5.2-3.451-8.248c-2.489-12.352,5.502-24.375,17.85-26.86c12.352-2.485,24.375,5.504,26.858,17.851
			c2.486,12.35-5.507,24.373-17.851,26.859c-7.669,1.549-15.222-0.961-20.427-6.049c1.02,1.02,2.149,1.92,3.329,2.736
			C118.889,47.634,124.995,49.006,131.174,47.76z"/>
		<path fill="#A9AF9F" d="M131.116,47.717c12.349-2.488,20.334-14.509,17.852-26.857c-2.484-12.348-14.51-20.331-26.858-17.851
			c-12.348,2.489-20.333,14.511-17.85,26.857c0.614,3.051,1.816,5.823,3.451,8.249c0.882,1.286,1.879,2.474,2.974,3.561
			C115.896,46.754,123.445,49.26,131.116,47.717z"/>
		<circle fill="#A9AF9F" cx="126.576" cy="25.413" r="22.708"/>
		<circle fill="#AAB0A0" cx="126.576" cy="25.413" r="22.708"/>
		<circle fill="#AAB0A0" cx="126.537" cy="25.463" r="22.61"/>
		<circle fill="#ABB1A1" cx="126.537" cy="25.463" r="22.61"/>
		<circle fill="#ABB1A1" cx="126.503" cy="25.511" r="22.514"/>
		<circle fill="#ACB2A3" cx="126.503" cy="25.511" r="22.514"/>
		<circle fill="#ACB2A3" cx="126.464" cy="25.558" r="22.419"/>
		<circle fill="#ADB3A4" cx="126.464" cy="25.555" r="22.421"/>
		<circle fill="#ADB3A4" cx="126.427" cy="25.609" r="22.323"/>
		<circle fill="#AEB4A5" cx="126.427" cy="25.609" r="22.323"/>
		<circle fill="#AEB4A5" cx="126.387" cy="25.66" r="22.227"/>
		<circle fill="#AFB5A6" cx="126.387" cy="25.66" r="22.227"/>
		<circle fill="#AFB5A6" cx="126.346" cy="25.709" r="22.132"/>
		<circle fill="#B0B6A7" cx="126.346" cy="25.709" r="22.132"/>
		<circle fill="#B0B6A7" cx="126.312" cy="25.76" r="22.034"/>
		<circle fill="#B1B7A8" cx="126.312" cy="25.76" r="22.034"/>
		<circle fill="#B1B7A8" cx="126.274" cy="25.809" r="21.94"/>
		<circle fill="#B2B8A9" cx="126.274" cy="25.809" r="21.94"/>
		<circle fill="#B2B8A9" cx="126.236" cy="25.856" r="21.843"/>
		<circle fill="#B4B9AA" cx="126.236" cy="25.856" r="21.843"/>
		<circle fill="#B4B9AA" cx="126.204" cy="25.907" r="21.749"/>
		<circle fill="#B5B9AB" cx="126.204" cy="25.907" r="21.749"/>
		<circle fill="#B5B9AB" cx="126.16" cy="25.954" r="21.651"/>
		<circle fill="#B6BAAC" cx="126.16" cy="25.956" r="21.654"/>
		<circle fill="#B6BAAC" cx="126.122" cy="26.007" r="21.558"/>
		<circle fill="#B7BBAD" cx="126.122" cy="26.007" r="21.558"/>
		<circle fill="#B7BBAD" cx="126.084" cy="26.053" r="21.46"/>
		<circle fill="#B8BCAF" cx="126.084" cy="26.053" r="21.46"/>
		<circle fill="#B8BCAF" cx="126.047" cy="26.106" r="21.365"/>
		<circle fill="#B9BDB0" cx="126.047" cy="26.106" r="21.365"/>
		<circle fill="#B9BDB0" cx="126.007" cy="26.153" r="21.269"/>
		<circle fill="#BABEB1" cx="126.007" cy="26.153" r="21.269"/>
		<circle fill="#BABEB1" cx="125.972" cy="26.204" r="21.175"/>
		<circle fill="#BBBFB2" cx="125.97" cy="26.204" r="21.173"/>
		<circle fill="#BBBFB2" cx="125.938" cy="26.251" r="21.08"/>
		<circle fill="#BCC0B3" cx="125.938" cy="26.251" r="21.08"/>
		<circle fill="#BCC0B3" cx="125.898" cy="26.302" r="20.984"/>
		<circle fill="#BDC1B4" cx="125.896" cy="26.302" r="20.984"/>
		<circle fill="#BDC1B4" cx="125.86" cy="26.351" r="20.886"/>
		<circle fill="#BEC2B5" cx="125.86" cy="26.351" r="20.886"/>
		<circle fill="#BEC2B5" cx="125.819" cy="26.4" r="20.792"/>
		<circle fill="#BFC4B7" cx="125.819" cy="26.4" r="20.792"/>
		<circle fill="#BFC4B7" cx="125.786" cy="26.449" r="20.695"/>
		<circle fill="#C0C5B8" cx="125.786" cy="26.449" r="20.695"/>
		<circle fill="#C0C5B8" cx="125.748" cy="26.498" r="20.599"/>
		<circle fill="#C1C6B9" cx="125.748" cy="26.498" r="20.599"/>
		<circle fill="#C1C6B9" cx="125.707" cy="26.547" r="20.503"/>
		<circle fill="#C2C7BA" cx="125.707" cy="26.547" r="20.505"/>
		<circle fill="#C2C7BA" cx="125.676" cy="26.6" r="20.409"/>
		<circle fill="#C3C8BB" cx="125.676" cy="26.6" r="20.409"/>
		<circle fill="#C3C8BB" cx="125.631" cy="26.649" r="20.314"/>
		<circle fill="#C4C9BD" cx="125.632" cy="26.644" r="20.314"/>
		<circle fill="#C4C9BD" cx="125.596" cy="26.7" r="20.214"/>
		<circle fill="#C5CABE" cx="125.596" cy="26.7" r="20.214"/>
		<circle fill="#C5CABE" cx="125.554" cy="26.746" r="20.12"/>
		<circle fill="#C7CBBF" cx="125.556" cy="26.746" r="20.12"/>
		<circle fill="#C7CBBF" cx="125.522" cy="26.795" r="20.025"/>
		<circle fill="#C8CCC0" cx="125.522" cy="26.795" r="20.025"/>
		<circle fill="#C8CCC0" cx="125.481" cy="26.844" r="19.929"/>
		<circle fill="#C9CDC1" cx="125.481" cy="26.844" r="19.929"/>
		<circle fill="#C9CDC1" cx="125.447" cy="26.895" r="19.833"/>
		<circle fill="#CACEC3" cx="125.447" cy="26.895" r="19.833"/>
		<circle fill="#CACEC3" cx="125.409" cy="26.944" r="19.738"/>
		<circle fill="#CBCFC4" cx="125.409" cy="26.944" r="19.738"/>
		<circle fill="#CBCFC4" cx="125.367" cy="26.995" r="19.642"/>
		<circle fill="#CCD0C5" cx="125.367" cy="26.995" r="19.642"/>
		<circle fill="#CCD0C5" cx="125.333" cy="27.044" r="19.545"/>
		<circle fill="#CDD1C6" cx="125.333" cy="27.044" r="19.545"/>
		<circle fill="#CDD1C6" cx="125.29" cy="27.089" r="19.451"/>
		<circle fill="#CED2C8" cx="125.29" cy="27.093" r="19.451"/>
		<circle fill="#CED2C8" cx="125.257" cy="27.144" r="19.355"/>
		<circle fill="#CFD3C9" cx="125.257" cy="27.144" r="19.355"/>
		<circle fill="#CFD3C9" cx="125.222" cy="27.193" r="19.26"/>
		<circle fill="#D1D4CA" cx="125.222" cy="27.193" r="19.26"/>
		<circle fill="#D1D4CA" cx="125.182" cy="27.239" r="19.164"/>
		<circle fill="#D2D5CB" cx="125.182" cy="27.239" r="19.164"/>
		<circle fill="#D2D5CB" cx="125.146" cy="27.289" r="19.066"/>
		<circle fill="#D3D6CD" cx="125.146" cy="27.29" r="19.068"/>
		<circle fill="#D3D6CD" cx="125.105" cy="27.335" r="18.97"/>
		<circle fill="#D4D7CE" cx="125.105" cy="27.335" r="18.97"/>
		<circle fill="#D4D7CE" cx="125.067" cy="27.389" r="18.875"/>
		<circle fill="#D5D8CF" cx="125.067" cy="27.389" r="18.875"/>
		<circle fill="#D5D8CF" cx="125.029" cy="27.44" r="18.779"/>
		<circle fill="#D6D9D0" cx="125.029" cy="27.442" r="18.781"/>
		<circle fill="#D6D9D0" cx="124.995" cy="27.486" r="18.681"/>
		<circle fill="#D7DAD2" cx="124.995" cy="27.488" r="18.683"/>
		<circle fill="#D7DAD2" cx="124.959" cy="27.538" r="18.59"/>
		<circle fill="#D8DCD3" cx="124.959" cy="27.538" r="18.59"/>
		<circle fill="#D8DCD3" cx="124.959" cy="27.535" r="18.492"/>
		<circle fill="#D8DCD3" cx="124.959" cy="27.535" r="18.492"/>
		<circle fill="#D8DCD3" cx="124.825" cy="27.709" r="18.171"/>
		<circle fill="#DADDD4" cx="124.825" cy="27.709" r="18.171"/>
		<circle fill="#DADDD4" cx="124.697" cy="27.88" r="17.845"/>
		<circle fill="#DBDED6" cx="124.697" cy="27.88" r="17.845"/>
		<circle fill="#DBDED6" cx="124.56" cy="28.046" r="17.522"/>
		<circle fill="#DCDFD7" cx="124.56" cy="28.046" r="17.522"/>
		<circle fill="#DCDFD7" cx="124.435" cy="28.216" r="17.197"/>
		<circle fill="#DDE0D8" cx="124.435" cy="28.216" r="17.197"/>
		<circle fill="#DDE0D8" cx="124.302" cy="28.39" r="16.874"/>
		<circle fill="#DEE1DA" cx="124.302" cy="28.39" r="16.874"/>
		<circle fill="#DEE1DA" cx="124.174" cy="28.562" r="16.549"/>
		<circle fill="#E0E2DB" cx="124.174" cy="28.562" r="16.549"/>
		<circle fill="#E0E2DB" cx="124.045" cy="28.73" r="16.226"/>
		<circle fill="#E1E3DC" cx="124.045" cy="28.73" r="16.226"/>
		<circle fill="#E1E3DC" cx="123.917" cy="28.9" r="15.9"/>
		<circle fill="#E2E4DE" cx="123.917" cy="28.9" r="15.9"/>
		<circle fill="#E2E4DE" cx="123.785" cy="29.072" r="15.582"/>
		<circle fill="#E3E6DF" cx="123.785" cy="29.072" r="15.582"/>
		<circle fill="#E3E6DF" cx="123.657" cy="29.24" r="15.256"/>
		<circle fill="#E4E7E0" cx="123.657" cy="29.24" r="15.256"/>
		<circle fill="#E4E7E0" cx="123.528" cy="29.411" r="14.933"/>
		<circle fill="#E6E8E2" cx="123.528" cy="29.411" r="14.933"/>
		<circle fill="#E6E8E2" cx="123.394" cy="29.585" r="14.61"/>
		<circle fill="#E7E9E3" cx="123.394" cy="29.585" r="14.61"/>
		<circle fill="#E7E9E3" cx="123.264" cy="29.752" r="14.284"/>
		<circle fill="#E8EAE4" cx="123.264" cy="29.752" r="14.284"/>
		<circle fill="#E8EAE4" cx="123.138" cy="29.923" r="13.961"/>
		<circle fill="#E9EBE6" cx="123.138" cy="29.923" r="13.961"/>
		<circle fill="#E9EBE6" cx="123.01" cy="30.097" r="13.638"/>
		<circle fill="#EBECE7" cx="123.01" cy="30.097" r="13.638"/>
		<circle fill="#EBECE7" cx="122.873" cy="30.263" r="13.315"/>
		<circle fill="#ECEDE9" cx="122.873" cy="30.263" r="13.315"/>
		<circle fill="#ECEDE9" cx="122.75" cy="30.435" r="12.992"/>
		<circle fill="#EDEEEA" cx="122.75" cy="30.435" r="12.992"/>
		<circle fill="#EDEEEA" cx="122.614" cy="30.603" r="12.667"/>
		<circle fill="#EEF0EB" cx="122.614" cy="30.603" r="12.667"/>
		<circle fill="#EEF0EB" cx="122.488" cy="30.777" r="12.346"/>
		<circle fill="#EFF1ED" cx="122.488" cy="30.777" r="12.346"/>
		<circle fill="#EFF1ED" cx="122.354" cy="30.947" r="12.021"/>
		<circle fill="#F1F2EE" cx="122.354" cy="30.947" r="12.021"/>
		<circle fill="#F1F2EE" cx="122.224" cy="31.117" r="11.697"/>
		<circle fill="#F2F3F0" cx="122.224" cy="31.117" r="11.697"/>
		<circle fill="#F2F3F0" cx="122.094" cy="31.288" r="11.374"/>
		<circle fill="#F3F4F1" cx="122.094" cy="31.288" r="11.374"/>
		<circle fill="#F3F4F1" cx="121.967" cy="31.457" r="11.051"/>
		<circle fill="#F4F5F3" cx="121.967" cy="31.457" r="11.051"/>
		<circle fill="#F4F5F3" cx="121.834" cy="31.628" r="10.723"/>
		<circle fill="#F5F6F4" cx="121.834" cy="31.628" r="10.723"/>
		<circle fill="#F5F6F4" cx="121.834" cy="31.626" r="10.4"/>
		<circle fill="#F5F6F4" cx="121.834" cy="31.626" r="10.4"/>
		<circle fill="#F5F6F4" cx="121.427" cy="32.165" r="9.474"/>
		<circle fill="#F7F8F6" cx="121.427" cy="32.165" r="9.474"/>
		<circle fill="#F7F8F6" cx="121.015" cy="32.701" r="8.547"/>
		<circle fill="#F8F9F7" cx="121.015" cy="32.701" r="8.547"/>
		<circle fill="#F8F9F7" cx="120.61" cy="33.239" r="7.618"/>
		<circle fill="#FAFAF9" cx="120.61" cy="33.239" r="7.618"/>
		<circle fill="#FAFAF9" cx="120.199" cy="33.773" r="6.687"/>
		<circle fill="#FBFBFA" cx="120.199" cy="33.773" r="6.687"/>
		<circle fill="#FBFBFA" cx="119.789" cy="34.313" r="5.759"/>
		<circle fill="#FCFDFC" cx="119.789" cy="34.313" r="5.759"/>
		<circle fill="#FCFDFC" cx="119.385" cy="34.849" r="4.83"/>
		<circle fill="#FEFEFD" cx="119.385" cy="34.849" r="4.83"/>
		<circle fill="#FEFEFD" cx="118.969" cy="35.384" r="3.899"/>
		<circle fill="#FFFFFF" cx="118.969" cy="35.384" r="3.899"/>
	</g>
	<path id="head-1-highlight" fill="#FFFFFF" d="M139.76,6.262c-6.129-4.099-13.02-3.576-16.166-2.313
		c3.432-0.17,9.586,0.128,15.14,3.842c5.582,3.678,8.242,9.233,9.409,12.46C148.105,16.874,145.908,10.314,139.76,6.262z"/>
</g>
</svg>
