<?xml version="1.0" encoding="utf-8"?>
<!-- Generator: Adobe Illustrator 15.1.0, SVG Export Plug-In . SVG Version: 6.00 Build 0)  -->
<!DOCTYPE svg PUBLIC "-//W3C//DTD SVG 1.1//EN" "http://www.w3.org/Graphics/SVG/1.1/DTD/svg11.dtd">
<svg version="1.1" id="Layer_1" xmlns="http://www.w3.org/2000/svg" xmlns:xlink="http://www.w3.org/1999/xlink" x="0px" y="0px"
	 width="243.299px" height="212.6px" viewBox="0 0 243.299 212.6" enable-background="new 0 0 243.299 212.6" xml:space="preserve">
<g>
	<path fill="#23605A" d="M19.245,210.238c-1.623,1.593-4.164,2.357-6.766,2.357c-3.978,0-9.457-2.939-9.457-10.103
		c0-7.438,6.488-10.284,10.772-10.284c1.562,0,3.243,0.277,4.651,0.946c0.031,1.53,0.152,3.059,0.306,4.59h-0.427
		c-0.61-2.785-3.215-3.645-5.357-3.645c-4.07,0-7.13,2.91-7.13,7.38c0,4.716,3.335,9.028,7.655,9.028
		c2.111,0,4.164-0.854,5.877-1.988L19.245,210.238z"/>
	<path fill="#23605A" d="M23.376,192.636c0-0.7-0.274-0.854-1.102-1.103c-0.215-0.061-0.43-0.092-0.705-0.153v-0.242
		c1.438-0.399,3.49-0.944,4.592-1.375c-0.063,1.438-0.153,2.878-0.153,4.315v16.619c0,0.736,0.797,1.073,1.653,1.165v0.425
		c-1.041-0.091-1.866-0.182-2.967-0.182c-1.102,0-1.927,0.092-2.969,0.182v-0.425c0.855-0.092,1.652-0.429,1.652-1.165
		L23.376,192.636L23.376,192.636z"/>
	<path fill="#23605A" d="M31.888,200.414c0-0.762-0.336-0.946-1.348-1.163c-0.151-0.031-0.307-0.06-0.487-0.092v-0.247
		c1.592-0.398,3.151-0.887,4.622-1.373c-0.063,0.979-0.152,2.111-0.152,3.089v10.069c0,0.74,0.795,1.073,1.651,1.167v0.425
		c-1.04-0.092-1.867-0.183-2.968-0.183c-1.102,0-1.926,0.092-2.969,0.183v-0.425c0.857-0.097,1.652-0.431,1.652-1.169
		L31.888,200.414L31.888,200.414z M33.263,191.874c0.979,0,1.775,0.797,1.775,1.778c0,0.979-0.799,1.771-1.775,1.771
		c-0.98,0-1.775-0.792-1.775-1.771C31.489,192.671,32.282,191.874,33.263,191.874z"/>
	<path fill="#23605A" d="M40.211,200.535c0-1.04-0.366-1.315-1.405-1.373v-0.247c1.346-0.396,3.03-0.979,4.129-1.373
		c-0.06,0.672-0.091,1.716-0.091,2.447h0.06c0.797-1.502,2.265-2.447,3.918-2.447c2.938,0,4.898,1.716,4.898,5.385v7.499
		c0,0.921,0.245,1.316,1.407,1.441v0.428c-0.579-0.061-1.407-0.186-2.111-0.186c-0.519,0-1.558,0.126-2.11,0.186
		c0.06-0.609,0.183-1.316,0.183-1.992v-7.865c0-2.263-1.163-3-2.604-3c-2.021,0-3.642,1.776-3.642,4.38v6.888
		c0,0.736,0.795,1.072,1.651,1.164v0.428c-1.039-0.094-1.866-0.186-2.967-0.186c-1.102,0-1.927,0.094-2.969,0.186v-0.428
		c0.857-0.092,1.65-0.428,1.65-1.164L40.211,200.535L40.211,200.535z"/>
	<path fill="#23605A" d="M57.416,200.414c0-0.762-0.339-0.946-1.351-1.163c-0.15-0.031-0.306-0.06-0.486-0.092v-0.247
		c1.592-0.398,3.152-0.887,4.621-1.373c-0.062,0.979-0.152,2.111-0.152,3.089v10.069c0,0.74,0.795,1.073,1.652,1.167v0.425
		c-1.039-0.092-1.866-0.183-2.969-0.183c-1.104,0-1.929,0.092-2.968,0.183v-0.425c0.856-0.094,1.651-0.428,1.651-1.167
		L57.416,200.414L57.416,200.414z M58.79,191.874c0.979,0,1.775,0.797,1.775,1.778c0,0.979-0.798,1.771-1.775,1.771
		c-0.979,0-1.775-0.792-1.775-1.771C57.015,192.671,57.812,191.874,58.79,191.874z"/>
	<path fill="#23605A" d="M75.961,210.788c-1.407,1.225-3.091,1.81-4.593,1.81c-4.713,0-7.191-3.185-7.191-7.622
		c0-4.255,3.521-7.438,7.407-7.438c1.467,0,2.661,0.274,3.854,0.61c-0.092,1.283-0.061,2.538,0,3.736h-0.431
		c-0.521-1.686-1.806-2.815-3.583-2.815c-2.111,0-4.621,1.622-4.621,6.03c0,3.585,2.447,5.603,5.018,5.603
		c1.625,0,3.217-0.856,4.406-1.868L75.961,210.788z"/>
	<path fill="#23605A" d="M79.479,198.389c1.467-0.606,3.059-0.852,4.622-0.852c3.335,0,5.785,1.406,5.785,5.325v7.22
		c0,1.014,0.125,1.718,1.254,1.779v0.426c-0.642-0.06-1.254-0.184-1.897-0.184c-0.584,0-1.195,0.124-1.808,0.184v-2.904h-0.062
		c-1.04,2.235-2.662,3.215-5.111,3.215c-2.664,0-4.5-1.378-4.5-4.131c0-2.479,1.624-3.946,4.745-4.38l4.315-0.58
		c0.58-0.094,0.612-0.642,0.612-1.07c0-2.173-1.196-3.184-3.336-3.184c-2.052,0-3.521,0.702-4.471,2.479h-0.333L79.479,198.389z
		 M83.43,205.587c-2.144,0.367-3.03,1.256-3.03,2.724c0,1.682,1.164,2.388,2.756,2.388c2.908,0,4.133-3.09,4.133-5.174v-0.612
		L83.43,205.587z"/>
	<path fill="#23605A" d="M94.817,192.636c0-0.7-0.274-0.854-1.102-1.103c-0.217-0.061-0.43-0.092-0.704-0.153v-0.242
		c1.438-0.399,3.489-0.944,4.59-1.375c-0.06,1.438-0.149,2.878-0.149,4.315v16.619c0,0.736,0.797,1.073,1.651,1.165v0.425
		c-1.04-0.091-1.866-0.182-2.968-0.182s-1.928,0.092-2.968,0.182v-0.425c0.856-0.092,1.651-0.429,1.651-1.165L94.817,192.636
		L94.817,192.636z"/>
	<path fill="#23605A" d="M115.05,194.415h-2.814c-1.716,0-2.57,0.553-3.125,3.307h-0.613c0.217-1.683,0.4-3.336,0.488-5.02h15.122
		c0.093,1.684,0.276,3.337,0.486,5.02h-0.612c-0.551-2.754-1.405-3.307-3.123-3.307h-2.816v15.669c0,1.041,0.367,1.594,1.928,1.779
		v0.425c-1.197,0-2.511-0.182-3.429-0.182s-2.234,0.182-3.425,0.182v-0.425c1.558-0.187,1.926-0.738,1.926-1.779L115.05,194.415
		L115.05,194.415z"/>
	<path fill="#23605A" d="M126.683,200.535c0-1.04-0.369-1.315-1.407-1.373v-0.247c1.35-0.396,3.032-0.979,4.132-1.373
		c-0.061,0.672-0.095,1.716-0.095,2.753h0.063c0.795-1.499,2.295-2.447,3.795-2.447c0.612,0,0.945,0.126,1.194,0.247
		c0.06,0.673,0.126,1.499,0.126,2.57c-0.738-0.43-1.105-0.735-1.994-0.735c-1.924,0-3.184,1.773-3.184,3.766v7.008
		c0,0.74,0.795,1.073,1.652,1.166v0.426c-1.04-0.092-1.866-0.183-2.969-0.183c-1.104,0-1.929,0.092-2.968,0.183v-0.426
		c0.856-0.094,1.651-0.427,1.651-1.166v-10.167L126.683,200.535L126.683,200.535z"/>
	<path fill="#23605A" d="M137.058,200.414c0-0.762-0.336-0.946-1.349-1.163c-0.15-0.031-0.309-0.06-0.488-0.092v-0.247
		c1.593-0.398,3.152-0.887,4.624-1.373c-0.06,0.979-0.151,2.111-0.151,3.089v10.069c0,0.74,0.793,1.073,1.65,1.167v0.425
		c-1.039-0.092-1.866-0.183-2.969-0.183c-1.104,0-1.93,0.092-2.968,0.183v-0.425c0.855-0.094,1.65-0.428,1.65-1.167V200.414
		L137.058,200.414z M138.434,191.874c0.979,0,1.775,0.797,1.775,1.778c0,0.979-0.795,1.771-1.775,1.771
		c-0.979,0-1.774-0.792-1.774-1.771C136.658,192.671,137.455,191.874,138.434,191.874z"/>
	<path fill="#23605A" d="M145.537,198.389c1.465-0.606,3.058-0.852,4.622-0.852c3.334,0,5.787,1.406,5.787,5.325v7.22
		c0,1.014,0.123,1.718,1.255,1.779v0.426c-0.646-0.06-1.255-0.184-1.898-0.184c-0.581,0-1.198,0.124-1.811,0.184v-2.904h-0.06
		c-1.04,2.235-2.663,3.215-5.111,3.215c-2.661,0-4.498-1.378-4.498-4.131c0-2.479,1.621-3.946,4.742-4.38l4.313-0.58
		c0.581-0.094,0.612-0.642,0.612-1.07c0-2.173-1.194-3.184-3.333-3.184c-2.053,0-3.519,0.702-4.473,2.479h-0.337L145.537,198.389z
		 M149.483,205.587c-2.143,0.367-3.029,1.256-3.029,2.724c0,1.682,1.162,2.388,2.755,2.388c2.907,0,4.13-3.09,4.13-5.174v-0.612
		L149.483,205.587z"/>
	<path fill="#23605A" d="M160.873,192.636c0-0.7-0.275-0.854-1.104-1.103c-0.217-0.061-0.43-0.092-0.706-0.153v-0.242
		c1.441-0.399,3.493-0.944,4.593-1.375c-0.063,1.438-0.153,2.878-0.153,4.315v16.619c0,0.736,0.795,1.073,1.651,1.165v0.425
		c-1.039-0.091-1.866-0.182-2.969-0.182c-1.101,0-1.926,0.092-2.969,0.182v-0.425c0.858-0.092,1.652-0.429,1.652-1.165v-18.062
		H160.873L160.873,192.636z"/>
	<path fill="#23605A" d="M167.757,208.342h0.367c1.074,2.296,2.908,2.725,4.866,2.725c2.329,0,3.555-0.979,3.555-2.327
		c0-1.592-0.767-1.869-4.382-2.604c-2.879-0.583-4.5-1.808-4.5-3.979c0-2.725,2.356-4.622,6.31-4.622
		c1.348,0,2.695,0.367,4.011,0.578v3.429h-0.43c-0.551-1.648-2.019-2.478-3.765-2.478c-2.203,0-3.675,0.921-3.675,2.538
		c0,1.438,1.313,1.808,3.979,2.294c3.215,0.613,4.716,1.439,4.716,4.13c0,2.879-2.357,4.563-6.367,4.563
		c-1.53,0-3.092-0.367-4.438-1.071L167.757,208.342z"/>
	<path fill="#23605A" d="M188.999,192.515c0.947,0,1.9,0.184,2.724,0.184c1.562,0,2.54-0.184,3.491-0.184v0.429
		c-0.672,0.032-1.775,0.217-1.775,1.315v11.97c0,3.243,1.958,4.835,4.437,4.835c2.514,0,4.473-1.592,4.473-4.835v-11.97
		c0-1.103-1.104-1.283-1.773-1.315v-0.429c0.944,0,1.928,0.184,3.487,0.184c0.829,0,1.778-0.184,2.725-0.184v0.429
		c-1.255,0.124-1.438,0.217-1.438,1.561v11.141c0,4.742-2.754,6.951-7.472,6.951c-4.685,0-7.438-2.204-7.438-6.951v-11.141
		c0-1.348-0.185-1.44-1.438-1.561L188.999,192.515L188.999,192.515z"/>
	<path fill="#23605A" d="M210.852,200.535c0-1.04-0.366-1.315-1.406-1.373v-0.247c1.35-0.396,3.032-0.979,4.131-1.373
		c-0.061,0.672-0.092,1.716-0.092,2.447h0.061c0.795-1.502,2.264-2.447,3.918-2.447c2.939,0,4.897,1.716,4.897,5.385v7.499
		c0,0.921,0.247,1.316,1.409,1.441v0.428c-0.582-0.061-1.409-0.186-2.112-0.186c-0.521,0-1.562,0.126-2.111,0.186
		c0.06-0.609,0.186-1.316,0.186-1.992v-7.865c0-2.263-1.166-3-2.604-3c-2.021,0-3.643,1.776-3.643,4.38v6.888
		c0,0.736,0.796,1.072,1.649,1.164v0.428c-1.039-0.094-1.866-0.186-2.968-0.186c-1.104,0-1.93,0.094-2.969,0.186v-0.428
		c0.856-0.092,1.651-0.428,1.651-1.164v-10.169L210.852,200.535L210.852,200.535z"/>
	<path fill="#23605A" d="M228.056,200.414c0-0.762-0.335-0.946-1.348-1.163c-0.153-0.031-0.31-0.06-0.489-0.092v-0.247
		c1.592-0.398,3.153-0.887,4.627-1.373c-0.063,0.979-0.153,2.111-0.153,3.089v10.069c0,0.74,0.794,1.073,1.648,1.167v0.425
		c-1.037-0.092-1.865-0.183-2.967-0.183c-1.104,0-1.93,0.092-2.97,0.183v-0.425c0.856-0.094,1.652-0.428,1.652-1.167
		L228.056,200.414L228.056,200.414z M229.436,191.874c0.979,0,1.777,0.797,1.777,1.778c0,0.979-0.797,1.771-1.777,1.771
		c-0.979,0-1.774-0.792-1.774-1.771C227.66,192.671,228.458,191.874,229.436,191.874z"/>
	<path fill="#23605A" d="M234.396,197.842h1.99v-2.42c1.163-0.399,2.019-1.191,2.631-2.018v4.437h4.164v1.533h-4.164v9.121
		c0,1.405,0.245,2.57,1.65,2.57c0.946,0,1.837-0.335,2.632-0.92l-0.276,1.743c-0.919,0.43-1.898,0.705-2.905,0.705
		c-2.788,0-3.735-1.195-3.735-3.826v-9.397h-1.99L234.396,197.842L234.396,197.842z"/>
</g>
<g>
	<g>
		<path fill="#6A918C" d="M129.002,55.212c22.438,2.012,28.745-16.438,28.745-16.438c3.885-10.296,15.056-9.078,15.056-9.078
			c15.754,3.022-4.126,21.065-4.126,21.065c-14.265,11.562-30.563,9.501-40.497,6.482c0,0-1.244-0.3-1.106-1.271
			C127.073,55.977,127.127,54.801,129.002,55.212z"/>
	</g>
	<g>
		<path fill="#6A918C" d="M182.655,10.796c1.313,6.524-2.912,12.885-9.436,14.197c-6.516,1.316-12.88-2.906-14.195-9.435
			c-1.313-6.519,2.91-12.883,9.436-14.195C174.979,0.052,181.345,4.273,182.655,10.796z"/>
	</g>
</g>
<g>
	<path fill="#6A918C" d="M13.507,109.073c4.458-7.21,11.275-11.016,20.195-11.016c14.556,0,20.063,8.653,20.063,25.567v26.095
		c0,5.51,0.789,8.265,6.688,9.049v2.1c-3.674-0.523-6.426-0.921-8.394-0.921c-1.313,0-3.409,0.262-6.424,0.921
		c0.789-5.116,1.183-9.703,1.183-13.639v-23.604c0-13.509-3.279-20.063-14.687-20.063c-12.59,0-18.492,7.343-18.492,21.896v24.26
		c0,5.51,0.789,8.265,6.688,9.052v2.096c-4.855-0.658-8.264-0.921-10.1-0.921c-1.834,0-5.376,0.265-10.228,0.924v-2.097
		c5.899-0.787,6.688-3.539,6.688-9.052v-39.603c0-4.326-0.919-5.374-4.063-5.638l-2.492-0.258v-1.969
		c4.326-0.654,8.917-2.492,14.163-5.373C13.903,101.992,13.507,106.056,13.507,109.073z"/>
	<path fill="#6A918C" d="M74.22,111.302c5.639-8.787,12.85-13.242,21.77-13.242c15.08,0,26.885,12.852,26.885,32.388
		c0,17.573-12.067,31.075-27.538,31.075c-8.392,0-15.606-4.197-21.116-12.452v23.603c0,5.509,0.789,8.13,6.688,9.049v2.097
		c-4.459-0.521-7.74-0.916-10.099-0.916s-5.771,0.396-10.229,0.916v-2.097c5.9-0.919,6.688-3.54,6.688-9.049v-62.55
		c0-4.327-0.917-5.375-4.063-5.638l-2.491-0.262v-1.969c4.196-0.521,8.784-2.492,14.295-5.373
		C74.614,101.337,74.22,106.056,74.22,111.302z M74.089,129.664c0,16.917,9.703,26.619,20.456,26.619
		c10.624,0,20.456-9.7,20.456-24.259c0-17.573-9.18-28.582-21.245-28.582C84.053,103.437,74.089,113.138,74.089,129.664z"/>
	<path fill="#6A918C" d="M134.279,127.17c0,0,0,1.046,0,3.146c0,13.372,10.621,25.962,25.441,25.962
		c6.557,0,12.717-3.146,18.621-9.313l-0.788,7.607c-5.898,4.982-12.85,7.605-19.932,7.605c-17.703,0-31.209-14.163-31.209-32.652
		c0-18.229,12.85-31.997,28.584-31.997c15.604,0,25.964,10.62,25.964,27.536c0,0.656,0,1.312,0,2.1L134.279,127.17L134.279,127.17z
		 M173.356,122.318c0-11.669-8.786-19.935-18.227-19.935c-10.494,0-19.013,7.739-20.59,20.195h38.815
		C173.356,122.451,173.356,122.451,173.356,122.318z"/>
	<path fill="#6A918C" d="M228.952,149.199c-4.458,8.131-11.145,12.326-20.191,12.326c-13.77,0-20.063-7.866-20.063-23.472v-27.933
		c0-5.116-1.313-5.771-6.56-5.9v-1.837c4.329-0.655,8.787-2.621,14.031-5.51c-0.521,2.359-0.521,5.115-0.521,8.266
		c0,1.184,0,2.492,0,3.937v26.885c0,0.266,0,0.522,0,0.786c0,12.979,3.673,19.272,14.559,19.272
		c12.191,0,18.484-7.998,18.484-23.996v-21.899c0-5.116-1.18-5.771-6.422-5.899v-1.835c4.326-0.656,8.786-2.621,14.029-5.509
		c-0.656,3.542-0.785,7.605-0.785,12.193v40.649c0,5.512,0.785,8.266,6.688,9.051v2.1c-2.886-0.788-5.639-0.92-8.391-0.92
		c-2.232,0-4.064,0.261-5.771,0.92C228.691,157.594,228.825,153.659,228.952,149.199z"/>
</g>
<g>
	<g>
		<path fill="#23605A" d="M187.31,46.24c-8.721,17.356-27.081,41.752-62.06,44.659c0,0-36.999,3.34-32.169-22.371
			c0,0,3.966-18.974,28.65-7.275c0,0,35.252,17.709,62.611-16.921c0,0,1.146-1.626,2.536-0.666
			C186.88,43.665,188.144,44.569,187.31,46.24z"/>
	</g>
	<g>
		<path fill="#23605A" d="M153.525,19.777c2.693,13.351-5.957,26.353-19.294,29.041c-13.337,2.687-26.336-5.955-29.029-19.309
			c-2.688-13.336,5.957-26.334,19.295-29.02C137.831-2.198,150.834,6.435,153.525,19.777z"/>
	</g>
</g>
<path fill="#FFFFFF" d="M113.522,61.658c-4.798-1.512-9.588-0.721-11.582,0.792c2.373-0.771,6.616-0.959,11.242,0.47
	c4.598,1.264,8.516,3.284,11.03,3.582C121.983,65.476,118.405,63.01,113.522,61.658z"/>
<path fill="#FFFFFF" d="M174.724,31.952c-2.027-0.86-4.065-0.459-4.966,0.002c1.098,0.202,2.764,0.245,4.555,1.012
	c1.863,0.612,2.559,2.019,2.641,3.172C177.688,35.298,177.018,32.608,174.724,31.952z"/>
<path fill="#FFFFFF" d="M176.765,4.468c-3.037-1.987-6.408-1.665-7.932-1.06c1.703,0.034,4.634,0.194,7.343,1.954
	c2.679,1.815,3.957,4.456,4.646,6.01C180.796,9.725,179.777,6.496,176.765,4.468z"/>
<path fill="#FFFFFF" d="M141.476,6.338c-6.202-4.146-13.181-3.616-16.354-2.347c3.472-0.166,9.696,0.134,15.327,3.892
	c5.651,3.728,8.342,9.347,9.521,12.618C149.925,17.082,147.698,10.443,141.476,6.338z"/>
</svg>
