<?xml version="1.0" encoding="utf-8"?>
<!-- Generator: Adobe Illustrator 22.0.1, SVG Export Plug-In . SVG Version: 6.00 Build 0)  -->
<svg version="1.1" id="Layer_1" xmlns="http://www.w3.org/2000/svg" xmlns:xlink="http://www.w3.org/1999/xlink" x="0px" y="0px"
	 width="255.3px" height="283.5px" viewBox="0 0 255.3 283.5" enable-background="new 0 0 255.3 283.5" xml:space="preserve">
<g>
	<path fill="#BC945C" d="M53.5,282.9c-0.3-0.3-0.5-0.7-0.5-1.3v-20.3c0-0.5,0.2-0.9,0.5-1.2c0.3-0.3,0.7-0.5,1.3-0.5h8.1
		c2.5,0,4.4,0.6,5.8,1.8c1.4,1.2,2.1,3,2.1,5.2c0,2.2-0.7,4-2.1,5.2c-1.4,1.2-3.3,1.9-5.8,1.9h-6.3v7.9c0,0.5-0.2,1-0.5,1.3
		c-0.3,0.3-0.7,0.5-1.3,0.5C54.2,283.4,53.8,283.2,53.5,282.9z M62.4,271c3.3,0,4.9-1.4,4.9-4.3c0-2.9-1.6-4.3-4.9-4.3h-6v8.6H62.4z
		"/>
	<path fill="#BC945C" d="M92.7,282c0,0.4-0.2,0.7-0.5,1c-0.3,0.3-0.7,0.4-1.1,0.4c-0.6,0-1.1-0.3-1.5-0.8l-4.5-7
		c-0.5-0.8-1.1-1.4-1.6-1.7c-0.6-0.3-1.3-0.5-2.3-0.5h-3.8v8.2c0,0.5-0.2,1-0.5,1.3c-0.3,0.3-0.7,0.5-1.3,0.5
		c-0.5,0-0.9-0.2-1.2-0.5c-0.3-0.3-0.5-0.7-0.5-1.3v-20.3c0-0.5,0.2-0.9,0.5-1.2c0.3-0.3,0.7-0.5,1.3-0.5h8.3c2.6,0,4.6,0.6,6,1.7
		c1.4,1.2,2.1,2.9,2.1,5.1c0,1.9-0.5,3.3-1.6,4.5c-1,1.1-2.5,1.9-4.5,2.2c0.6,0.2,1.1,0.4,1.6,0.8c0.5,0.4,0.9,1,1.4,1.7l3.4,5.4
		C92.6,281.3,92.7,281.7,92.7,282z M83.7,270.7c1.7,0,3-0.3,3.9-1c0.8-0.7,1.3-1.7,1.3-3.2c0-1.4-0.4-2.5-1.2-3.1
		c-0.8-0.7-2.1-1-3.9-1h-6.3v8.3H83.7z"/>
	<path fill="#BC945C" d="M98.6,281c-1.6-1.6-2.4-4-2.4-7.2v-12.6c0-0.5,0.2-1,0.5-1.3c0.3-0.3,0.7-0.5,1.2-0.5s0.9,0.2,1.2,0.5
		c0.3,0.3,0.5,0.7,0.5,1.3v12.9c0,2.2,0.5,3.8,1.6,4.9c1,1.1,2.6,1.7,4.6,1.7c2,0,3.6-0.6,4.6-1.7c1-1.1,1.6-2.8,1.6-4.9v-12.9
		c0-0.5,0.2-0.9,0.5-1.3c0.3-0.3,0.7-0.5,1.2-0.5c0.5,0,0.9,0.2,1.2,0.5c0.3,0.3,0.5,0.7,0.5,1.3v12.6c0,3.1-0.8,5.5-2.5,7.2
		c-1.6,1.6-4,2.5-7.1,2.5C102.6,283.5,100.2,282.7,98.6,281z"/>
	<path fill="#BC945C" d="M119.5,275.3c-0.3-0.2-0.4-0.6-0.4-1c0-0.4,0.1-0.8,0.4-1c0.3-0.2,0.7-0.4,1.2-0.4h7.1
		c0.5,0,0.9,0.1,1.2,0.4c0.3,0.2,0.4,0.6,0.4,1c0,0.4-0.1,0.8-0.4,1c-0.3,0.2-0.7,0.4-1.2,0.4h-7.1
		C120.2,275.6,119.8,275.5,119.5,275.3z"/>
	<path fill="#BC945C" d="M155.5,259.9c0.3,0.3,0.5,0.7,0.5,1.3v20.5c0,0.5-0.1,0.9-0.4,1.2c-0.3,0.3-0.7,0.4-1.2,0.4
		c-0.5,0-0.8-0.1-1.1-0.4c-0.3-0.3-0.4-0.7-0.4-1.2v-15.5l-6.5,12.5c-0.4,0.8-1,1.2-1.6,1.2c-0.7,0-1.2-0.4-1.6-1.2l-6.6-12.3v15.4
		c0,0.5-0.1,0.9-0.4,1.2s-0.6,0.4-1.1,0.4c-0.5,0-0.8-0.2-1.1-0.5c-0.3-0.3-0.4-0.7-0.4-1.2v-20.5c0-0.5,0.2-0.9,0.5-1.3
		c0.3-0.3,0.7-0.5,1.2-0.5c0.7,0,1.2,0.4,1.7,1.2l8,15.3l7.9-15.3c0.4-0.8,1-1.2,1.6-1.2C154.8,259.5,155.2,259.6,155.5,259.9z"/>
	<path fill="#BC945C" d="M180.2,259.9c0.3,0.3,0.5,0.7,0.5,1.3v20.4c0,0.5-0.2,0.9-0.5,1.3c-0.3,0.3-0.7,0.5-1.2,0.5
		c-0.5,0-0.9-0.2-1.2-0.5c-0.3-0.3-0.5-0.7-0.5-1.3v-9h-13.2v9c0,0.5-0.2,0.9-0.5,1.3c-0.3,0.3-0.7,0.5-1.2,0.5
		c-0.5,0-0.9-0.2-1.2-0.5c-0.3-0.3-0.5-0.7-0.5-1.3v-20.4c0-0.5,0.2-0.9,0.5-1.3c0.3-0.3,0.7-0.5,1.2-0.5c0.5,0,0.9,0.2,1.2,0.5
		c0.3,0.3,0.5,0.7,0.5,1.3v8.6h13.2v-8.6c0-0.5,0.2-0.9,0.5-1.3c0.3-0.3,0.7-0.5,1.2-0.5C179.5,259.5,179.9,259.6,180.2,259.9z"/>
	<path fill="#BC945C" d="M189.7,282c-1.7-1-3-2.4-3.8-4.2c-0.9-1.8-1.3-4-1.3-6.4c0-2.5,0.4-4.6,1.3-6.4c0.9-1.8,2.2-3.2,3.8-4.2
		c1.7-1,3.6-1.5,5.9-1.5c1.5,0,2.9,0.2,4.2,0.7c1.3,0.5,2.5,1.1,3.4,2c0.4,0.3,0.6,0.8,0.6,1.3c0,0.4-0.1,0.7-0.3,1
		c-0.2,0.3-0.5,0.4-0.8,0.4c-0.4,0-0.7-0.1-1.1-0.4c-1.1-0.8-2-1.4-2.9-1.7c-0.9-0.3-1.9-0.5-3-0.5c-2.5,0-4.3,0.8-5.6,2.4
		c-1.3,1.6-2,3.9-2,6.8c0,3,0.7,5.3,2,6.9c1.3,1.6,3.2,2.4,5.6,2.4c1.1,0,2-0.2,2.9-0.5c0.9-0.3,1.9-0.9,3-1.7
		c0.4-0.3,0.8-0.4,1.1-0.4c0.3,0,0.6,0.1,0.8,0.4s0.3,0.6,0.3,1c0,0.6-0.2,1-0.6,1.3c-1,0.9-2.1,1.5-3.4,2c-1.3,0.5-2.7,0.7-4.2,0.7
		C193.4,283.5,191.4,283,189.7,282z"/>
</g>
<path fill="#BC945C" d="M0,241.1c0-1.3,1.1-2.4,2.4-2.4h250.5c1.3,0,2.4,1.1,2.4,2.4c0,1.3-1.1,2.4-2.4,2.4H2.4
	C1.1,243.5,0,242.4,0,241.1"/>
<path fill="#604877" d="M57,149.9c0.9,1,1.3,2.2,1.3,3.7v60.9c0,1.5-0.5,2.8-1.4,3.7c-0.9,1-2.1,1.4-3.6,1.4c-1.7,0-3.1-0.7-4-2
	l-39.1-51.5v48.4c0,1.5-0.4,2.8-1.3,3.7c-0.9,1-2.1,1.4-3.5,1.4c-1.5,0-2.6-0.5-3.5-1.4c-0.9-0.9-1.3-2.2-1.3-3.8v-60.9
	c0-1.5,0.5-2.8,1.4-3.7c0.9-1,2.1-1.4,3.6-1.4c1.7,0,3.1,0.7,4,2l39.1,51.6v-48.5c0-1.5,0.4-2.8,1.3-3.7c0.9-1,2-1.4,3.5-1.4
	C54.9,148.5,56.1,148.9,57,149.9"/>
<path fill="#604877" d="M76.1,218.3c-0.9-0.9-1.4-2.2-1.4-3.8v-60.6c0-1.5,0.4-2.7,1.3-3.6c0.9-0.9,2.1-1.3,3.7-1.3h24
	c7.4,0,13.2,1.8,17.3,5.5c4.1,3.7,6.2,8.8,6.2,15.6c0,6.6-2.1,11.8-6.2,15.6c-4.1,3.7-9.9,5.6-17.3,5.6H84.9v23.4
	c0,1.6-0.4,2.9-1.3,3.8c-0.9,0.9-2.2,1.4-3.8,1.4C78.2,219.7,77,219.3,76.1,218.3 M102.7,182.8c9.8,0,14.8-4.3,14.8-12.9
	c0-8.5-4.9-12.8-14.8-12.8H84.9v25.6H102.7z"/>
<path fill="#604877" d="M141,217.9c-0.9-0.9-1.3-2.1-1.3-3.6v-60.3c0-1.5,0.4-2.7,1.3-3.6c0.9-0.9,2.1-1.3,3.7-1.3h36.7
	c1.5,0,2.7,0.4,3.5,1.1c0.8,0.7,1.2,1.8,1.2,3.1c0,1.3-0.4,2.3-1.2,3c-0.8,0.7-2,1-3.5,1h-31.7v22.1h29.7c1.5,0,2.7,0.4,3.5,1.1
	c0.8,0.7,1.2,1.8,1.2,3.1c0,1.3-0.4,2.4-1.2,3.1c-0.8,0.7-2,1.1-3.5,1.1h-29.7V211h31.7c3.2,0,4.8,1.4,4.8,4.1
	c0,1.3-0.4,2.4-1.2,3.1c-0.8,0.7-2,1.1-3.5,1.1h-36.7C143.2,219.2,141.9,218.8,141,217.9"/>
<path fill="#604877" d="M204.8,212.8c-4.9-4.8-7.3-12-7.3-21.4v-37.7c0-1.6,0.5-2.9,1.4-3.8c0.9-0.9,2.2-1.4,3.7-1.4
	c1.5,0,2.8,0.5,3.7,1.4c0.9,0.9,1.4,2.2,1.4,3.8V192c0,6.4,1.5,11.3,4.6,14.7c3.1,3.3,7.7,5,13.8,5c6,0,10.6-1.7,13.8-5
	c3.1-3.3,4.7-8.2,4.7-14.7v-38.4c0-1.5,0.5-2.8,1.4-3.7c0.9-1,2.2-1.4,3.7-1.4c1.5,0,2.8,0.5,3.7,1.4c0.9,0.9,1.4,2.2,1.4,3.8v37.7
	c0,9.4-2.4,16.5-7.3,21.4c-4.9,4.9-12,7.3-21.3,7.3C216.7,220,209.6,217.6,204.8,212.8"/>
<path fill="#604877" d="M143.5,34.7C143.5,15.5,128,0,108.8,0S74.1,15.5,74.1,34.7c0,19.2,15.5,34.7,34.7,34.7
	S143.5,53.9,143.5,34.7"/>
<path fill="#BC945C" d="M190.5,29.4c2.6-6.6-0.6-14.1-7.2-16.7c-6.6-2.6-14.1,0.6-16.7,7.2c-2.6,6.6,0.6,14.1,7.2,16.7
	C180.4,39.2,187.9,36,190.5,29.4"/>
<path fill="#BC945C" d="M134.5,85.7c3.8,0.5,16.4,2,33.2-8.1c12.5-7.5,20.7-18.4,21.4-24.9c0.7-5.3-2.9-10.1-8.2-10.9
	c-2.2-0.3-4.1,0.1-6.2,1.2c-6.5,3.4-8.1,15.5-14.2,24.4c-9,13.3-20.4,13.8-25.8,14c-1.2,0-2.2,1-2.2,2.2
	C132.6,84.7,133.5,85.6,134.5,85.7"/>
<path fill="#604877" d="M187.1,69.1c-5.7,7-22.9,22.4-43.7,22.4S112.2,81,96.6,74.6c-12.2-5.1-26.3,0.6-31.4,12.8
	c-3.8,9-1.6,19.1,4.7,25.8c10.7,11.7,32.2,20.1,67.3,8.4c35.1-11.7,52.1-45.2,54.5-49.6c0.7-1.4,0.1-2.9-1.2-3.6
	C189.3,67.7,187.8,68,187.1,69.1"/>
</svg>
