<?xml version="1.0" encoding="utf-8"?>
<!-- Generator: Adobe Illustrator 22.0.1, SVG Export Plug-In . SVG Version: 6.00 Build 0)  -->
<svg version="1.1" id="Layer_1" xmlns="http://www.w3.org/2000/svg" xmlns:xlink="http://www.w3.org/1999/xlink" x="0px" y="0px"
	 width="834.8px" height="283.5px" viewBox="0 0 834.8 283.5" enable-background="new 0 0 834.8 283.5" xml:space="preserve">
<g>
	<path fill="#BC945C" d="M347.4,281.3c-3-0.9-5.4-2.2-7.2-3.8c-0.8-0.7-1.2-1.6-1.2-2.7c0-0.8,0.2-1.5,0.7-2c0.4-0.5,1-0.8,1.6-0.8
		c0.6,0,1.4,0.3,2.2,0.9c3.9,2.9,8.3,4.3,13.3,4.3c3.5,0,6.2-0.7,8.1-2c1.9-1.3,2.8-3.2,2.8-5.6c0-1.9-0.9-3.4-2.6-4.3
		c-1.7-1-4.5-1.9-8.4-2.8c-3.7-0.8-6.7-1.7-9-2.7c-2.4-1-4.2-2.4-5.5-4.1c-1.3-1.7-2-3.9-2-6.6c0-2.7,0.7-5,2.2-7.1
		c1.5-2.1,3.5-3.7,6.1-4.9c2.6-1.2,5.6-1.7,9-1.7c3.1,0,6,0.4,8.6,1.3c2.6,0.9,4.9,2.2,6.7,3.9c0.9,0.7,1.3,1.6,1.3,2.7
		c0,0.7-0.2,1.4-0.7,2c-0.5,0.6-1,0.9-1.6,0.9c-0.6,0-1.3-0.3-2.2-0.9c-2-1.5-3.9-2.6-5.7-3.3c-1.8-0.7-3.9-1-6.4-1
		c-3.4,0-6,0.7-7.9,2.1c-1.9,1.4-2.8,3.3-2.8,5.7c0,2.1,0.8,3.7,2.5,4.8c1.7,1.1,4.3,2,8,2.9c3.8,0.9,7,1.8,9.3,2.7
		c2.4,0.9,4.3,2.2,5.7,3.9c1.4,1.6,2.1,3.7,2.1,6.3c0,2.6-0.7,5-2.2,7c-1.5,2-3.5,3.6-6.2,4.7c-2.6,1.1-5.7,1.7-9.1,1.7
		C353.5,282.7,350.4,282.2,347.4,281.3z"/>
	<path fill="#BC945C" d="M419.4,236.5c0.6,0.6,0.9,1.5,0.9,2.5v40.1c0,1-0.3,1.8-0.9,2.5c-0.6,0.6-1.4,1-2.4,1c-1,0-1.8-0.3-2.4-0.9
		c-0.6-0.6-0.9-1.4-0.9-2.5v-17.6h-25.8v17.6c0,1-0.3,1.8-0.9,2.5c-0.6,0.6-1.4,1-2.4,1c-1,0-1.8-0.3-2.4-0.9
		c-0.6-0.6-0.9-1.4-0.9-2.5V239c0-1,0.3-1.8,0.9-2.5c0.6-0.6,1.4-1,2.4-1c1,0,1.8,0.3,2.4,1c0.6,0.6,0.9,1.5,0.9,2.5v16.9h25.8V239
		c0-1,0.3-1.8,0.9-2.5c0.6-0.6,1.4-1,2.4-1C418,235.6,418.8,235.9,419.4,236.5z"/>
	<path fill="#BC945C" d="M430.4,281.3c-0.6-0.6-0.9-1.4-0.9-2.4v-39.7c0-1,0.3-1.8,0.9-2.4c0.6-0.6,1.4-0.9,2.5-0.9H457
		c1,0,1.8,0.2,2.3,0.7s0.8,1.2,0.8,2c0,0.9-0.3,1.5-0.8,2c-0.5,0.5-1.3,0.7-2.3,0.7h-20.9v14.6h19.5c1,0,1.8,0.2,2.3,0.7
		c0.5,0.5,0.8,1.2,0.8,2c0,0.9-0.3,1.6-0.8,2c-0.5,0.5-1.3,0.7-2.3,0.7h-19.5v15.3H457c2.1,0,3.1,0.9,3.1,2.7c0,0.9-0.3,1.6-0.8,2
		c-0.5,0.5-1.3,0.7-2.3,0.7h-24.1C431.8,282.2,431,281.9,430.4,281.3z"/>
	<path fill="#BC945C" d="M467.2,281.3c-0.6-0.6-0.9-1.4-0.9-2.4v-39.7c0-1,0.3-1.8,0.9-2.4c0.6-0.6,1.4-0.9,2.5-0.9h24.1
		c1,0,1.8,0.2,2.3,0.7c0.5,0.5,0.8,1.2,0.8,2c0,0.9-0.3,1.5-0.8,2c-0.5,0.5-1.3,0.7-2.3,0.7h-20.9v14.6h19.5c1,0,1.8,0.2,2.3,0.7
		c0.5,0.5,0.8,1.2,0.8,2c0,0.9-0.3,1.6-0.8,2c-0.5,0.5-1.3,0.7-2.3,0.7h-19.5v15.3h20.9c2.1,0,3.1,0.9,3.1,2.7c0,0.9-0.3,1.6-0.8,2
		c-0.5,0.5-1.3,0.7-2.3,0.7h-24.1C468.6,282.2,467.8,281.9,467.2,281.3z"/>
	<path fill="#BC945C" d="M539.8,279.8c0,0.8-0.3,1.5-0.9,2c-0.6,0.5-1.4,0.8-2.2,0.8c-1.2,0-2.2-0.5-3-1.6l-8.8-13.6
		c-1-1.6-2.1-2.7-3.2-3.3c-1.1-0.6-2.6-0.9-4.5-0.9h-7.4v16c0,1.1-0.3,1.9-0.9,2.5c-0.6,0.6-1.4,0.9-2.5,0.9c-1,0-1.8-0.3-2.4-0.9
		c-0.6-0.6-0.9-1.4-0.9-2.5v-39.9c0-1,0.3-1.8,0.9-2.4c0.6-0.6,1.4-0.9,2.5-0.9h16.3c5.1,0,9,1.1,11.7,3.4c2.7,2.3,4,5.6,4,10
		c0,3.6-1,6.6-3.1,8.8c-2.1,2.3-5,3.7-8.8,4.3c1.1,0.3,2.2,0.9,3.1,1.6c0.9,0.8,1.8,1.9,2.7,3.3l6.8,10.6
		C539.6,278.5,539.8,279.1,539.8,279.8z M522,257.6c3.4,0,5.9-0.7,7.6-2c1.6-1.3,2.5-3.4,2.5-6.2c0-2.8-0.8-4.8-2.4-6.1
		c-1.6-1.3-4.2-1.9-7.6-1.9h-12.3v16.3H522z"/>
</g>
<path fill="#BC945C" d="M335,202.1c0-2.3,1.9-4.2,4.2-4.2h491.4c2.3,0,4.2,1.9,4.2,4.2c0,2.3-1.9,4.2-4.2,4.2H339.2
	C336.9,206.3,335,204.4,335,202.1"/>
<path fill="#604877" d="M446.8,28.9c1.8,1.9,2.6,4.3,2.6,7.3v119.5c0,3-0.9,5.4-2.7,7.3c-1.8,1.9-4.2,2.8-7,2.8
	c-3.4,0-6-1.3-7.8-3.9L355.2,60.8v94.9c0,3-0.9,5.4-2.6,7.3c-1.8,1.9-4.1,2.8-6.9,2.8c-2.9,0-5.2-0.9-6.8-2.7
	c-1.7-1.8-2.5-4.3-2.5-7.4V36.2c0-3,0.9-5.4,2.7-7.3c1.8-1.9,4.2-2.8,7-2.8c3.4,0,6,1.3,7.8,3.9l76.7,101.3V36.2
	c0-3,0.8-5.4,2.5-7.3c1.7-1.9,4-2.8,6.8-2.8C442.7,26,445.1,27,446.8,28.9"/>
<path fill="#604877" d="M484.3,163.1c-1.8-1.8-2.7-4.3-2.7-7.4V36.8c0-3,0.9-5.4,2.6-7.1c1.8-1.8,4.2-2.6,7.3-2.6h47.1
	c14.6,0,25.9,3.6,34,10.8c8.1,7.2,12.1,17.3,12.1,30.5c0,13-4,23.2-12.1,30.5c-8.1,7.3-19.4,11-34,11h-37v46c0,3.1-0.9,5.6-2.6,7.4
	c-1.8,1.8-4.3,2.7-7.5,2.7C488.5,165.9,486.1,165,484.3,163.1 M536.5,93.5c19.3,0,28.9-8.4,28.9-25.2c0-16.7-9.7-25-28.9-25h-34.8
	v50.3H536.5z"/>
<path fill="#604877" d="M611.7,162.3c-1.8-1.8-2.6-4.1-2.6-7.1V36.8c0-3,0.9-5.4,2.6-7.1c1.8-1.8,4.2-2.6,7.3-2.6h72
	c3,0,5.3,0.7,6.9,2.2c1.6,1.4,2.4,3.5,2.4,6.1s-0.8,4.6-2.4,6c-1.6,1.4-3.9,2.1-6.9,2.1h-62.2v43.4h58.3c3,0,5.3,0.7,6.9,2.2
	c1.6,1.4,2.4,3.5,2.4,6.1s-0.8,4.6-2.4,6.1c-1.6,1.4-3.9,2.2-6.9,2.2h-58.3v45.6H691c6.3,0,9.4,2.7,9.4,8c0,2.6-0.8,4.6-2.4,6.1
	c-1.6,1.4-3.9,2.2-6.9,2.2h-72C615.9,164.9,613.5,164,611.7,162.3"/>
<path fill="#604877" d="M736.8,152.2c-9.5-9.5-14.3-23.5-14.3-42.1V36.2c0-3.1,0.9-5.6,2.7-7.4c1.8-1.8,4.2-2.7,7.2-2.7
	c3,0,5.4,0.9,7.2,2.7c1.8,1.8,2.7,4.3,2.7,7.4v75.3c0,12.6,3,22.2,9.1,28.8c6.1,6.5,15.1,9.8,27.1,9.8c11.9,0,20.9-3.3,27-9.8
	c6.1-6.5,9.2-16.1,9.2-28.8V36.2c0-3,0.9-5.4,2.7-7.3c1.8-1.9,4.2-2.8,7.2-2.8c3,0,5.4,0.9,7.2,2.7c1.8,1.8,2.7,4.3,2.7,7.4v73.9
	c0,18.4-4.8,32.4-14.4,42c-9.6,9.6-23.5,14.4-41.8,14.4C760.3,166.5,746.3,161.7,736.8,152.2"/>
<path fill="#604877" d="M178.8,77.3c0-42.7-34.6-77.3-77.3-77.3C58.7,0,24.1,34.6,24.1,77.3c0,42.7,34.6,77.3,77.3,77.3
	C144.2,154.7,178.8,120.1,178.8,77.3"/>
<path fill="#BC945C" d="M283.4,65.4c5.8-14.7-1.4-31.4-16.1-37.2c-14.7-5.8-31.4,1.4-37.2,16.1c-5.8,14.7,1.4,31.4,16.1,37.2
	C261,87.4,277.6,80.2,283.4,65.4"/>
<path fill="#BC945C" d="M158.7,191.1c8.6,1.1,36.5,4.4,74-18.2c27.8-16.7,46-41.1,47.8-55.6c1.7-11.7-6.5-22.6-18.2-24.2
	c-5-0.7-9.1,0.3-13.8,2.7c-14.6,7.6-18.1,34.5-31.7,54.5c-20.2,29.6-45.4,30.7-57.5,31.2c-2.6,0-4.8,2.1-4.8,4.8
	C154.5,188.8,156.4,190.8,158.7,191.1"/>
<path fill="#604877" d="M275.9,153.9c-12.7,15.7-51,50-97.4,50c-46.5,0-69.5-23.3-104.2-37.7c-27.2-11.5-58.6,1.3-70.1,28.5
	c-8.5,20.1-3.7,42.5,10.4,57.4c23.7,26,71.9,44.8,150.1,18.8c78.2-26,116.1-100.9,121.5-110.7c1.5-3,0.2-6.5-2.8-8
	C280.7,150.9,277.6,151.7,275.9,153.9"/>
</svg>
