<svg xmlns="http://www.w3.org/2000/svg" viewBox="0 0 242.568 212.598"><g fill="#748797"><path d="M13.345 107.756c4.401-7.125 11.136-10.881 19.946-10.881 14.382 0 19.817 8.549 19.817 25.262v25.777c0 5.446.772 8.166 6.604 8.939v2.079c-3.626-.519-6.344-.907-8.287-.907-1.292 0-3.367.257-6.344.907.773-5.053 1.165-9.584 1.165-13.475v-23.321c0-13.34-3.238-19.82-14.511-19.82-12.435 0-18.265 7.258-18.265 21.634v23.963c0 5.446.776 8.165 6.607 8.939v2.077c-4.796-.652-8.164-.906-9.976-.906-1.811 0-5.311.255-10.104.907v-2.077c5.832-.771 6.606-3.499 6.606-8.939v-39.118c0-4.282-.914-5.311-4.021-5.573l-2.458-.262v-1.937c4.274-.655 8.81-2.461 13.991-5.315-.383 5.046-.77 9.064-.77 12.047zM73.322 109.957c5.572-8.686 12.697-13.088 21.504-13.088 14.9 0 26.556 12.707 26.556 32 0 17.36-11.915 30.702-27.208 30.702-8.287 0-15.416-4.145-20.858-12.306v23.321c0 5.438.772 8.027 6.603 8.937v2.077c-4.401-.518-7.642-.909-9.972-.909-2.336 0-5.703.396-10.104.909v-2.077c5.828-.908 6.604-3.499 6.604-8.937v-61.791c0-4.282-.907-5.31-4.016-5.572l-2.46-.262v-1.938c4.146-.521 8.68-2.46 14.123-5.315-.384 4.393-.772 9.065-.772 14.249zm-.13 18.135c0 16.71 9.586 26.298 20.208 26.298 10.494 0 20.208-9.589 20.208-23.967 0-17.356-9.068-28.245-20.982-28.245-9.589.001-19.434 9.59-19.434 25.914zM132.653 125.636v3.105c0 13.215 10.493 25.647 25.127 25.647 6.479 0 12.564-3.112 18.395-9.197l-.772 7.512c-5.834 4.926-12.7 7.519-19.688 7.519-17.495 0-30.83-13.987-30.83-32.262 0-18.011 12.691-31.608 28.235-31.608 15.411 0 25.646 10.497 25.646 27.208v2.075l-46.113.001zm38.599-4.801c0-11.526-8.684-19.693-18.006-19.693-10.364 0-18.779 7.647-20.337 19.954h38.34c.003-.131.003-.131.003-.261zM226.179 147.394c-4.4 8.026-11.012 12.176-19.953 12.176-13.595 0-19.815-7.771-19.815-23.188v-27.59c0-5.052-1.288-5.707-6.479-5.834v-1.815c4.278-.651 8.684-2.588 13.864-5.442-.52 2.336-.52 5.054-.52 8.16v31.219c0 12.82 3.627 19.04 14.383 19.04 12.055 0 18.27-7.898 18.27-23.703v-21.626c0-5.054-1.169-5.707-6.343-5.836v-1.814c4.272-.65 8.681-2.594 13.86-5.442-.649 3.5-.771 7.511-.771 12.052v40.16c0 5.444.771 8.162 6.604 8.937v2.08c-2.853-.774-5.569-.91-8.287-.91-2.199 0-4.021.257-5.706.91.632-3.243.765-7.13.893-11.534z"/></g><g fill="#A4AA9A"><path d="M88.57 187.771c.75-.101 1.069-.399 1.069-1.045V176.804c0-.212-.021-.395-.021-.524 0-.586-.307-.847-1.051-.973v-.399a13.65 13.65 0 0 0 1.802.137c.387 0 .887-.045 1.456-.124l6.909 10.342v-8.442c0-1.05-.136-1.375-1.196-1.543v-.387c.685.083 1.276.14 1.774.14.487 0 1.069-.044 1.739-.14v.387c-1.019.162-1.097.527-1.097 1.494v11.339h-1.387l-7.699-11.457v9.532c0 1.045.102 1.412 1.232 1.57v.398a12.327 12.327 0 0 0-1.799-.161c-.582 0-1.152.059-1.737.161l.006-.383zM111.156 188.177a5.484 5.484 0 0 0-1.355-.158c-.319 0-.753.042-1.289.126l.062-1.82c-.77 1.288-2.005 1.998-3.454 1.998-1.806 0-3.058-1.197-3.058-2.744 0-.997.47-1.837 1.255-2.325.708-.439 1.806-.5 3.191-.686 1.31-.184 1.937-.304 1.937-1.354 0-1.065-.811-1.86-2.198-1.86-1.493 0-2.587.753-2.89 1.918h-.398c.123-.79.18-1.473.18-2.001v-.222a7.505 7.505 0 0 1 3.193-.701c2.641 0 3.842 1.146 3.842 3.551v4.849c0 .665.315 1.021.991 1.021l-.009.408zm-7.271-2.811c0 .931.753 1.691 1.816 1.691 1.619 0 2.809-1.231 2.809-3.313v-.604c-2.913.592-4.625.533-4.625 2.226zM114.674 175.794c-.389.544-.833.886-1.416 1.069v1.721h-1.208v1.026h1.208v5.678c0 2.065.833 3.054 2.589 3.054.665 0 1.286-.182 1.901-.55l.06-1.225c-.521.342-.991.521-1.471.521-1.096 0-1.374-.706-1.374-1.962v-5.511h2.646v-1.03h-2.646v-2.792l-.289.001zM118.808 187.771c.891-.126.991-.569.991-1.456v-5.938c0-.788-.155-.931-.965-.969v-.339c.842-.107 1.733-.398 2.749-.841-.079.62-.106 1.271-.106 1.932v6.159c0 .912.127 1.355 1.013 1.457v.389c-.683-.103-1.31-.16-1.854-.16-.47 0-1.069.059-1.82.16l-.008-.394zm1.742-13.175c.605 0 1.131.524 1.131 1.196 0 .623-.504 1.127-1.172 1.127-.604 0-1.114-.503-1.114-1.148.004-.608.487-1.175 1.155-1.175zM123.623 183.386c0-3.027 2.163-5.107 4.865-5.107 2.689 0 4.85 2.08 4.85 5.004 0 3.013-2.166 5.112-4.865 5.112-2.692.003-4.85-2.06-4.85-5.009zm5.107 4.004c1.558 0 2.852-1.434 2.852-3.433 0-2.905-1.52-4.664-3.335-4.664-1.555 0-2.874 1.456-2.874 3.451.001 2.888 1.542 4.646 3.357 4.646zM138.148 187.73v.423c-.786-.106-1.372-.159-1.818-.159-.465 0-1.07.053-1.813.159v-.423c.751-.044.994-.361.994-1.15v-5.88c0-.847 0-1.046-.994-1.174v-.399c.707-.104 1.558-.468 2.623-.931-.078.75-.12 1.535-.12 2.345.387-1.313 1.549-2.139 3.029-2.139 2.36 0 3.192 1.454 3.192 4.439v3.74c0 .784.238 1.107.991 1.149v.423a8.019 8.019 0 0 0-1.536-.161c-.287 0-.684 0-1.233.102.058-.646.104-1.271.104-1.877v-4.207c0-1.595-.487-2.349-1.675-2.349a2.67 2.67 0 0 0-2.306 1.374c-.387.68-.398 1.438-.398 2.325V186.572c-.011.796.212 1.116.96 1.158zM154.41 188.177a5.478 5.478 0 0 0-1.355-.158c-.323 0-.751.042-1.29.126l.06-1.82c-.766 1.288-2.001 1.998-3.455 1.998-1.803 0-3.056-1.197-3.056-2.744 0-.997.468-1.837 1.253-2.325.706-.439 1.803-.5 3.195-.686 1.31-.184 1.934-.304 1.934-1.354 0-1.065-.807-1.86-2.198-1.86-1.493 0-2.588.753-2.889 1.918h-.399c.123-.79.184-1.473.184-2.001v-.222a7.514 7.514 0 0 1 3.195-.701c2.643 0 3.84 1.146 3.84 3.551v4.849c0 .665.315 1.021.985 1.021v.411h-.003v-.003zm-7.275-2.811c0 .931.752 1.691 1.818 1.691 1.615 0 2.806-1.231 2.806-3.313v-.604c-2.909.592-4.624.533-4.624 2.226zM155.524 188.154c.729-.104 1.331-.16 1.801-.16.542 0 1.172.056 1.856.16v-.388c-.911-.125-.993-.571-.993-1.46V175.1c0-.61.023-1.278.106-1.943-.991.427-1.904.753-2.77.844v.365c.808.045.989.162.989.946v10.991c0 .89-.08 1.333-.989 1.461v.39zM165.418 187.771c.969-.16 1.096-.5 1.096-1.417v-9.596c0-.907-.139-1.274-1.096-1.435v-.385h4.769c3.582 0 5.392 1.454 5.392 4.099 0 2.146-1.675 3.819-4.224 3.819-1.253 0-2.062-.287-2.062-.569 0-.128.157-.222.467-.222.239 0 .423.025.583.025 2.118 0 3.313-1.196 3.313-2.934 0-1.98-1.373-3.009-4.139-3.009h-1.148v10.205c0 .975.18 1.277 1.148 1.416v.398a16.272 16.272 0 0 0-2.081-.159c-.667 0-1.335.058-2.021.159l.003-.395zM177.254 183.145c.045 2.381 1.554 3.94 3.639 3.94 1.128 0 2.117-.441 3.029-1.357l-.201 1.471a5.377 5.377 0 0 1-3.298 1.152c-2.825 0-4.99-2.199-4.99-5.128 0-2.83 2.04-4.914 4.664-4.914 2.462 0 4.181 1.721 4.181 4.465 0 .128-.023.245-.023.364l-7.001.007zm2.756-3.779c-1.376 0-2.528 1.051-2.73 2.792h5.219c-.046-1.678-1.183-2.792-2.489-2.792zM185.38 187.771c.884-.126.99-.569.99-1.456v-5.938c0-.788-.161-.931-.969-.969v-.339c.864-.107 1.754-.398 2.704-.841-.056.6-.075 1.329-.075 2.114.708-1.232 1.718-1.904 2.787-1.904.222 0 .424.042.628.121l.188 1.918h-.245c-.285-.283-.601-.487-1.071-.487-1.308 0-2.26 1.181-2.26 3.357v2.968c0 .916.133 1.373 1.068 1.454v.391a13.142 13.142 0 0 0-1.878-.158c-.525 0-1.128.053-1.854.158v-.389h-.013zM192.059 187.771c.89-.126.994-.569.994-1.456v-5.938c0-.788-.161-.931-.972-.969v-.339c.847-.107 1.739-.398 2.751-.841-.078.62-.104 1.271-.104 1.932v6.159c0 .912.128 1.355 1.014 1.457v.389a12.705 12.705 0 0 0-1.855-.16c-.467 0-1.074.059-1.822.16l-.006-.394zm1.744-13.175c.603 0 1.127.524 1.127 1.196 0 .623-.502 1.127-1.174 1.127-.604 0-1.11-.503-1.11-1.148.002-.608.485-1.175 1.157-1.175zM199.499 186.579v-2.727-.483c0-.889.02-1.641.398-2.328a2.679 2.679 0 0 1 2.305-1.373c1.198 0 1.677.753 1.677 2.349v4.208c0 .603-.046 1.229-.102 1.875.542-.101.943-.101 1.229-.101.485 0 .992.059 1.541.161v-.423c-.753-.042-.993-.365-.993-1.15v-3.738c0-2.987-.832-4.441-3.195-4.441-1.469 0-2.647.827-3.028 2.139 0-.81.045-1.595.125-2.345-1.072.464-1.914.829-2.626.931v.399c.991.124.991.317.991 1.174v5.881c0 .789-.241 1.112-.991 1.149v.424c.75-.104 1.354-.16 1.814-.16.447 0 1.026.057 1.817.16v-.424c-.74-.048-.962-.368-.962-1.157zM216.734 188.177a5.506 5.506 0 0 0-1.357-.158c-.316 0-.748.042-1.286.126l.051-1.82c-.761 1.288-1.997 1.998-3.451 1.998-1.804 0-3.057-1.197-3.057-2.744 0-.997.467-1.837 1.254-2.325.708-.439 1.806-.5 3.191-.686 1.313-.184 1.94-.304 1.94-1.354 0-1.065-.813-1.86-2.203-1.86-1.492 0-2.585.753-2.887 1.918h-.399c.12-.79.182-1.473.182-2.001v-.222a7.507 7.507 0 0 1 3.192-.701c2.646 0 3.837 1.146 3.837 3.551v4.849c0 .665.324 1.021.994 1.021v.405l-.001.003zm-7.275-2.811c0 .931.749 1.691 1.815 1.691 1.619 0 2.81-1.231 2.81-3.313v-.604c-2.907.592-4.625.533-4.625 2.226zM220.248 175.794c-.391.544-.83.886-1.416 1.069v1.721h-1.21v1.026h1.206v5.678c0 2.065.836 3.054 2.595 3.054.665 0 1.29-.182 1.899-.55l.058-1.225c-.521.342-.992.521-1.471.521-1.094 0-1.376-.706-1.376-1.962v-5.511h2.647v-1.03h-2.647v-2.792l-.285.001zM233.422 187.771c-.67 0-.994-.364-.994-1.023v-4.845c0-2.405-1.196-3.553-3.842-3.553-1.096 0-2.119.221-3.188.7v.223c0 .526-.058 1.209-.185 2.003h.4c.31-1.177 1.396-1.921 2.891-1.921 1.388 0 2.195.794 2.195 1.861 0 1.049-.627 1.178-1.934 1.357-1.391.185-2.488.24-3.194.684-.783.484-1.252 1.329-1.252 2.326 0 1.553 1.252 2.745 3.058 2.745 1.457 0 2.688-.706 3.45-2.003l-.056 1.822c.545-.083.97-.128 1.293-.128.486 0 .946.056 1.356.16l.002-.408zm-2.65-4.626v.604c0 2.081-1.195 3.313-2.808 3.313-1.073 0-1.814-.762-1.814-1.692-.004-1.697 1.713-1.638 4.622-2.225zM234.535 187.771c.912-.126.993-.569.993-1.456v-10.994c0-.784-.187-.909-.993-.947v-.361c.865-.104 1.777-.422 2.769-.85-.079.669-.104 1.34-.104 1.944v11.208c0 .887.084 1.331.996 1.456v.39a12.77 12.77 0 0 0-1.862-.158c-.464 0-1.071.057-1.804.158l.005-.39zM98.226 195.573c0 1.049.102 2.018.236 2.929h-.386c-.263-1.639-.83-1.723-2.326-1.723h-4.262v4.449h2.807c.97 0 1.338-.085 1.493-1.097h.365c-.058.604-.127 1.149-.127 1.676 0 .523.025 1.093.103 1.697H95.8c-.157-1.019-.525-1.111-1.493-1.111h-2.808v5.112h4.402c1.86 0 2.409-.302 2.707-2.177h.388a18.949 18.949 0 0 0-.317 3.41H88.556v-.4c.97-.156 1.097-.499 1.097-1.408v-9.531c0-.916-.141-1.283-1.097-1.438v-.39l9.67.002zM103.441 212.018v.428c-.768-.104-1.375-.155-1.819-.155-.487 0-1.094.051-1.815.155v-.428c.75-.041.993-.362.993-1.15v-9.535c0-.861-.023-1.042-.993-1.164v-.403c.81-.139 1.68-.473 2.624-.933a18.191 18.191 0 0 0-.121 2.019c.666-1.171 1.856-1.832 3.271-1.832 2.747 0 4.603 1.884 4.603 4.911 0 2.829-2 5.009-4.626 5.009-1.471 0-2.511-.5-3.087-1.492v3.432c-.002.776.217 1.097.97 1.138zm1.734-4.221c1.903 0 3.19-1.47 3.19-3.814 0-2.348-1.274-3.815-3.25-3.815-1.803 0-2.706 1.273-2.706 3.815-.003 2.541.886 3.814 2.766 3.814zM111.377 208.404c.889-.132.993-.572.993-1.463v-5.937c0-.787-.157-.932-.966-.97v-.341c.843-.103 1.734-.399 2.742-.844-.077.63-.105 1.277-.105 1.941v6.156c0 .91.13 1.358 1.019 1.46v.388a12.778 12.778 0 0 0-1.859-.16c-.467 0-1.07.059-1.818.16l-.006-.39zm1.737-13.173c.606 0 1.126.524 1.126 1.189 0 .635-.5 1.132-1.171 1.132-.602 0-1.109-.498-1.109-1.147.005-.61.492-1.174 1.154-1.174zM125.26 196.038v10.931c0 .973.126 1.372 1.048 1.438v.385c-.627-.077-1.127-.139-1.492-.139s-.787.044-1.313.139c.08-.522.103-1.13.139-1.856-.753 1.289-1.905 1.983-3.188 1.983-2.407 0-4.224-2.039-4.224-4.929 0-2.876 1.837-4.915 4.345-4.915 1.23 0 2.199.506 2.986 1.556v-4.001c0-1.099-.104-1.463-1.095-1.463h-.079v-.342c.946-.155 1.938-.519 2.968-1.019a26.186 26.186 0 0 0-.095 2.232zm-7.196 7.837c0 2.323 1.233 3.843 2.769 3.843 1.514 0 2.769-1.412 2.769-3.776 0-2.383-1.206-3.739-2.745-3.739-1.519-.004-2.793 1.373-2.793 3.672zM129.157 203.775c.045 2.384 1.558 3.94 3.636 3.94 1.128 0 2.122-.443 3.03-1.354l-.205 1.471a5.365 5.365 0 0 1-3.291 1.146c-2.829 0-4.993-2.197-4.993-5.128 0-2.824 2.035-4.91 4.663-4.91 2.465 0 4.185 1.719 4.185 4.465 0 .126-.022.243-.022.365l-7.003.005zm2.748-3.78c-1.376 0-2.528 1.05-2.727 2.791h5.214c-.041-1.677-1.176-2.791-2.487-2.791zM137.279 208.404c.893-.132.993-.572.993-1.463v-5.937c0-.787-.164-.932-.972-.97v-.341c.87-.103 1.757-.399 2.704-.844-.054.733-.074 1.417-.104 2.001.585-1.152 1.658-1.815 2.856-1.815 1.354 0 2.273.708 2.624 1.958.581-1.25 1.676-1.938 3.011-1.938 1.719 0 2.809 1.13 2.809 3.056 0 .138.021.389.021.761v3.48c0 1.274.128 1.958.988 2.063v.387a9.428 9.428 0 0 0-1.566-.158c-.306 0-.707.042-1.232.136.126-1.027.161-1.835.161-2.347v-3.089c0-1.98-.397-2.952-1.801-2.952-1.471 0-2.202 1.075-2.202 3.172v3.394c0 .911.104 1.373 1.052 1.46v.391c-.789-.104-1.39-.162-1.836-.162-.485 0-1.096.058-1.833.162v-.395c.908-.128.993-.571.993-1.461v-3.659c0-1.913-.323-2.905-1.778-2.905-1.475 0-2.2 1.075-2.2 3.172v3.393c0 .912.126 1.358 1.012 1.461v.389a12.488 12.488 0 0 0-1.854-.16c-.475 0-1.076.058-1.819.16l-.027-.4zM153.338 208.404c.893-.132.991-.572.991-1.463v-5.937c0-.787-.159-.932-.973-.97v-.341c.849-.103 1.74-.399 2.754-.844a14.54 14.54 0 0 0-.105 1.941v6.156c0 .91.128 1.358 1.016 1.46v.388c-.68-.103-1.308-.16-1.859-.16-.468 0-1.071.059-1.814.16l-.01-.39zm1.74-13.173c.604 0 1.125.524 1.125 1.189 0 .635-.496 1.132-1.174 1.132-.603 0-1.107-.498-1.107-1.147.007-.61.488-1.174 1.156-1.174zM158.147 204.018c0-3.034 2.167-5.114 4.865-5.114 2.692 0 4.851 2.082 4.851 5.012 0 3.007-2.166 5.113-4.868 5.113-2.686.002-4.848-2.061-4.848-5.011zm5.11 4.001c1.554 0 2.851-1.434 2.851-3.433 0-2.905-1.516-4.666-3.331-4.666-1.557 0-2.877 1.46-2.877 3.455.002 2.886 1.541 4.644 3.357 4.644zM169.035 208.404c.909-.132.988-.572.988-1.463v-10.992c0-.782-.179-.905-.988-.943v-.366c.867-.104 1.777-.422 2.772-.846a15.84 15.84 0 0 0-.109 1.939v11.209c0 .889.085 1.333.993 1.46v.385a12.651 12.651 0 0 0-1.858-.157c-.466 0-1.067.056-1.801.157l.003-.383zM173.823 204.018c0-3.034 2.168-5.114 4.866-5.114 2.693 0 4.848 2.082 4.848 5.012 0 3.007-2.163 5.113-4.864 5.113-2.684.002-4.85-2.061-4.85-5.011zm5.115 4.001c1.554 0 2.847-1.434 2.847-3.433 0-2.905-1.517-4.666-3.332-4.666-1.554 0-2.873 1.46-2.873 3.455-.002 2.886 1.536 4.644 3.358 4.644zM193.887 200.282c-.343.051-.586.051-.707.051-.39 0-.787-.023-1.213-.124.626.587.934 1.213.934 2.021 0 1.854-1.678 3.475-3.925 3.475-.787 0-1.458-.204-2.121-.604-.525.365-.811.604-.811.992 0 .866 1.028 1.025 3.074 1.072 3.029.059 4.725.388 4.725 2.261 0 1.781-1.749 3.172-4.7 3.172-2.281 0-3.561-1.019-3.561-2.305 0-.307.104-.583.264-.889l1.653-.624c-.222.392-.315.731-.315 1.07 0 1.021.863 1.783 2.238 1.783 1.561 0 2.594-.839 2.594-1.761 0-.931-.847-1.21-2.445-1.21h-.831c-1.196 0-2.146-.022-2.906-.315-.837-.341-1.355-1.051-1.355-1.917 0-.18.022-.417.077-.666.786-.342 1.393-.666 1.775-1.013-.627-.665-.94-1.454-.94-2.305 0-2.039 1.594-3.476 3.997-3.476 1.029 0 2.083.387 3.416.387.524 0 .99-.04 1.438-.137l-.355 1.062zm-6.889 1.799c0 1.517 1.092 2.605 2.301 2.605 1.07 0 2.001-.912 2.001-2.177 0-1.441-1.015-2.546-2.247-2.546-1.105-.009-2.055.822-2.055 2.118z"/><path d="M194.891 201.127c-.344-.93-.627-1.433-1.288-1.549v-.398c.568.103 1.195.136 1.877.136.625 0 1.233-.044 1.86-.136v.392c-.627.053-.918.23-.918.622 0 .136.043.338.127.602l2.041 5.898 1.958-5.898c.086-.238.124-.466.124-.646 0-.388-.285-.548-.933-.584v-.39c.523.08 1.072.124 1.596.124s1.015-.021 1.536-.124v.39c-.65.104-.911.584-1.211 1.461l-2.804 8.062c-.807 2.304-1.435 3.499-2.974 3.499-.399 0-.747-.104-1.067-.346a17.537 17.537 0 0 0-.186-2.095h.365c.103.604.448.931.968.931.67 0 1.212-.448 1.438-1.129l.363-1.074-2.872-7.748zM210.29 195.698c.687 0 1.331-.045 2.023-.161v.399c-.956.134-1.077.483-1.077 1.409v6.146c0 2.847.627 4.287 3.087 4.287 2.446 0 3.087-1.44 3.087-4.287v-6.159c0-.931-.124-1.256-1.094-1.415v-.39c.706.102 1.374.141 2.019.141.683 0 1.359-.045 2.018-.141v.39c-.99.159-1.093.501-1.093 1.415v6.159c0 3.777-1.314 5.512-4.951 5.512-3.677 0-4.973-1.733-4.973-5.512v-6.146c0-.886-.075-1.253-1.094-1.409v-.399c.714.093 1.378.161 2.048.161zM225.036 208.363v.423c-.783-.102-1.373-.161-1.814-.161-.466 0-1.071.061-1.82.161v-.423c.753-.044.993-.365.993-1.149v-5.885c0-.844 0-1.042-.993-1.164v-.403c.708-.104 1.554-.473 2.628-.932a22.788 22.788 0 0 0-.124 2.348c.386-1.311 1.553-2.142 3.031-2.142 2.356 0 3.19 1.456 3.19 4.443v3.739c0 .784.237 1.109.99 1.149v.421a8.187 8.187 0 0 0-1.537-.16c-.286 0-.68 0-1.229.103.06-.647.104-1.279.104-1.875v-4.208c0-1.59-.485-2.345-1.678-2.345-.93 0-1.837.522-2.3 1.372-.389.684-.399 1.438-.399 2.33v3.208c-.009.784.214 1.106.958 1.15zM232.272 208.404c.883-.132.987-.572.987-1.463v-5.937c0-.787-.16-.932-.969-.97v-.341c.847-.103 1.74-.399 2.746-.844-.08.63-.104 1.277-.104 1.941v6.156c0 .91.132 1.358 1.018 1.46v.388a12.789 12.789 0 0 0-1.858-.16c-.467 0-1.071.059-1.815.16l-.005-.39zm1.74-13.173c.603 0 1.124.524 1.124 1.189 0 .635-.5 1.132-1.169 1.132-.604 0-1.108-.498-1.108-1.147.003-.61.481-1.174 1.153-1.174zM239.722 196.421v2.792h2.645v1.028h-2.645v5.513c0 1.249.29 1.96 1.376 1.96.485 0 .95-.182 1.471-.52l-.056 1.227a3.6 3.6 0 0 1-1.905.546c-1.754 0-2.589-.989-2.589-3.053v-5.676h-1.209v-1.027h1.209v-1.718c.584-.188 1.027-.524 1.416-1.076l.287.004z"/></g><path fill="#748797" d="M127.443 54.54c22.16 1.992 28.391-16.243 28.391-16.243 3.843-10.164 14.877-8.96 14.877-8.96 15.554 2.984-4.079 20.809-4.079 20.809-14.095 11.418-30.187 9.382-40.011 6.403 0 0-1.216-.293-1.092-1.256.001.006.058-1.158 1.914-.753z"/><path fill="#798B9B" d="M170.63 29.774c15.027 2.932-4.286 20.413-4.286 20.413-14.111 11.38-29.865 9.291-39.72 6.359 0 0-1.2-.292-1.076-1.252 0 0 .075-1.112 1.933-.712 22.163 1.996 28.508-16.047 28.508-16.047 3.919-10.124 14.641-8.761 14.641-8.761z"/><path fill="#7E90A0" d="M170.549 30.209c14.494 2.878-4.488 20.016-4.488 20.016-14.122 11.335-29.54 9.198-39.432 6.317 0 0-1.185-.287-1.042-1.249 0 0 .098-1.072 1.953-.667 22.16 1.992 28.622-15.854 28.622-15.854 3.978-10.083 14.387-8.563 14.387-8.563z"/><path fill="#8294A4" d="M170.471 30.648c13.96 2.832-4.7 19.615-4.7 19.615-14.129 11.295-29.2 9.107-39.127 6.273 0 0-1.169-.283-1.026-1.245 0 0 .125-1.026 1.979-.627 22.167 1.993 28.745-15.658 28.745-15.658 4.032-10.04 14.129-8.358 14.129-8.358z"/><path fill="#8798A8" d="M170.393 31.079c13.425 2.787-4.911 19.221-4.911 19.221-14.134 11.254-28.88 9.013-38.836 6.231 0 0-1.145-.279-1.017-1.239 0 0 .142-.993 2.003-.581 22.16 1.995 28.846-15.462 28.846-15.462 4.127-10.005 13.915-8.17 13.915-8.17z"/><path fill="#8C9DAC" d="M170.31 31.519c12.895 2.728-5.106 18.82-5.106 18.82-14.154 11.206-28.554 8.923-38.553 6.187 0 0-1.117-.274-.987-1.237 0 0 .164-.941 2.015-.54 22.173 1.99 28.965-15.273 28.965-15.273 4.197-9.953 13.666-7.957 13.666-7.957z"/><path fill="#91A2B1" d="M170.23 31.951c12.359 2.689-5.313 18.424-5.313 18.424-14.17 11.17-28.222 8.83-38.261 6.149 0 0-1.107-.269-.965-1.23 0 0 .193-.9 2.045-.497 22.162 1.995 29.077-15.082 29.077-15.082 4.255-9.912 13.417-7.764 13.417-7.764z"/><path fill="#97A6B5" d="M170.151 32.386c11.827 2.63-5.524 18.026-5.524 18.026-14.188 11.125-27.896 8.74-37.961 6.103 0 0-1.086-.266-.944-1.228 0 0 .221-.856 2.071-.459 22.17 1.994 29.188-14.882 29.188-14.882 4.321-9.862 13.17-7.56 13.17-7.56z"/><path fill="#9CABBA" d="M170.073 32.819c11.299 2.587-5.731 17.631-5.731 17.631-14.192 11.089-27.566 8.646-37.667 6.062 0 0-1.063-.262-.931-1.223 0 0 .229-.815 2.09-.413C150 56.87 157.137 40.188 157.137 40.188c4.404-9.824 12.936-7.369 12.936-7.369z"/><path fill="#A2B0BE" d="M127.885 54.914c22.171 1.99 29.423-14.5 29.423-14.5 4.464-9.774 12.688-7.153 12.688-7.153 10.768 2.531-5.936 17.228-5.936 17.228-14.205 11.047-27.241 8.555-37.381 6.018 0 0-1.042-.257-.903-1.218-.006-.007.257-.779 2.109-.375z"/><g><path fill="#A2B0BE" d="M127.885 54.914c22.171 1.99 29.423-14.5 29.423-14.5 4.464-9.774 12.688-7.153 12.688-7.153 10.768 2.531-5.936 17.228-5.936 17.228-14.205 11.047-27.241 8.555-37.381 6.018 0 0-1.042-.257-.903-1.218-.006-.007.257-.779 2.109-.375z"/><path fill="#A9B7C4" d="M169.739 33.756c10.313 2.449-5.091 16.099-5.864 16.768-13.611 10.674-26.924 8.472-36.954 5.98 0 0-1.097-.253-.964-1.188 0 0 .245-.714 2.086-.328 21.73 1.908 29.104-13.843 29.213-14.023 4.364-9.312 12.057-7.324 12.483-7.209z"/><path fill="#B0BDC9" d="M169.494 34.255c9.854 2.369-4.248 14.972-5.8 16.313-13.024 10.302-26.61 8.376-36.535 5.947 0 0-1.13-.259-1.021-1.155 0 0 .23-.656 2.067-.291 21.293 1.826 28.783-13.185 29.012-13.547 4.25-8.848 11.427-7.498 12.277-7.267z"/><path fill="#B9C4D0" d="M169.254 34.758c9.386 2.288-3.415 13.846-5.736 15.846-12.438 9.933-26.288 8.296-36.107 5.913 0 0-1.188-.255-1.091-1.118 0 0 .222-.592 2.047-.245 20.851 1.744 28.471-12.535 28.809-13.069 4.139-8.395 10.79-7.677 12.078-7.327z"/><path fill="#C1CBD6" d="M169.002 35.255c8.922 2.205-2.569 12.711-5.664 15.387-11.844 9.559-25.97 8.202-35.684 5.881 0 0-1.233-.255-1.148-1.093 0 0 .21-.535 2.021-.207 20.412 1.663 28.148-11.881 28.602-12.6 4.035-7.915 10.167-7.828 11.873-7.368z"/><path fill="#C9D2DC" d="M168.755 35.755c8.464 2.128-1.729 11.587-5.597 14.93-11.257 9.185-25.649 8.11-35.256 5.838 0 0-1.288-.253-1.214-1.054 0 0 .194-.483 2.005-.166 19.972 1.584 27.836-11.224 28.391-12.125 3.933-7.455 9.536-8.002 11.671-7.423z"/><path fill="#D2DAE2" d="M168.508 36.252c8.006 2.043-.892 10.455-5.527 14.479-10.672 8.813-25.336 8.02-34.837 5.801 0 0-1.328-.25-1.277-1.021 0 0 .182-.416 1.981-.128 19.531 1.501 27.511-10.572 28.191-11.647 3.826-6.993 8.905-8.178 11.469-7.484z"/><path fill="#DBE1E8" d="M168.255 36.756c7.545 1.96-.044 9.327-5.454 14.011-10.078 8.439-25.016 7.937-34.414 5.771 0 0-1.377-.251-1.336-.992 0 0 .166-.36 1.96-.083 19.091 1.42 27.195-9.916 27.981-11.172 3.719-6.534 8.279-8.345 11.263-7.535z"/><path fill="#E4E9EE" d="M168.017 37.255c7.083 1.875.791 8.194-5.396 13.552-9.487 8.065-24.692 7.845-33.985 5.73 0 0-1.429-.253-1.395-.955 0 0 .148-.307 1.935-.042 18.65 1.337 26.885-9.264 27.776-10.7 3.61-6.067 7.642-8.514 11.065-7.585z"/><path fill="#EEF1F4" d="M129.334 55.622c18.212 1.254 26.562-8.607 27.572-10.23 3.506-5.608 7.02-8.686 10.858-7.644 6.622 1.796 1.638 7.069-5.324 13.088-8.901 7.694-24.378 7.759-33.562 5.7 0 0-1.477-.249-1.465-.926.004.01.148-.237 1.921.012z"/></g><path fill="#FFF" d="M172.606 31.564c-2.002-.849-4.019-.45-4.911.002 1.089.2 2.729.238 4.501.998 1.837.603 2.525 1.994 2.607 3.137.731-.829.068-3.488-2.197-4.137z"/><g><path fill="#748797" d="M171.121 24.693c6.437-1.297 10.621-7.575 9.313-14.034-1.291-6.438-7.575-10.608-14.021-9.314-5.767 1.162-9.687 6.312-9.521 12.001.017-5.291 3.744-10.025 9.138-11.113 6.16-1.244 12.171 2.749 13.413 8.913 1.241 6.157-2.749 12.167-8.909 13.405-2.239.45-4.451.195-6.422-.582a11.859 11.859 0 0 0 7.009.724z"/><path fill="#748797" d="M170.529 24.552c6.162-1.239 10.152-7.243 8.908-13.406-1.238-6.164-7.245-10.154-13.418-8.913-5.389 1.086-9.116 5.814-9.133 11.113.02.666.055 1.342.193 2.016.013.041.028.065.042.103-1.114-6.073 2.817-11.95 8.897-13.175 6.146-1.238 12.129 2.736 13.368 8.883 1.234 6.146-2.74 12.126-8.886 13.362a11.263 11.263 0 0 1-6.474-.607c.03.013.045.029.066.042 1.986.776 4.197 1.033 6.437.582z"/><path fill="#758898" d="M170.509 24.535c6.144-1.237 10.116-7.22 8.883-13.364-1.242-6.146-7.221-10.119-13.365-8.88-6.075 1.221-10.021 7.098-8.897 13.172.007.036.019.059.025.093-1.166-6.085 2.779-11.991 8.865-13.216 6.124-1.232 12.088 2.728 13.33 8.854 1.23 6.127-2.73 12.093-8.858 13.326-2.27.462-4.513.194-6.514-.625.027.013.044.025.063.036a11.275 11.275 0 0 0 6.468.604z"/><path fill="#768999" d="M170.484 24.518c6.126-1.231 10.093-7.196 8.861-13.323-1.238-6.124-7.201-10.086-13.332-8.854-6.087 1.225-10.028 7.131-8.868 13.216.013.041.032.067.041.112-1.223-6.101 2.722-12.04 8.82-13.269 6.105-1.229 12.051 2.717 13.276 8.82 1.229 6.104-2.72 12.05-8.821 13.278-2.321.473-4.62.179-6.643-.688.048.027.103.053.146.081a11.207 11.207 0 0 0 6.52.627z"/><path fill="#778A9A" d="M170.464 24.502c6.104-1.229 10.054-7.175 8.821-13.278-1.227-6.101-7.174-10.055-13.272-8.821-6.104 1.229-10.057 7.169-8.823 13.27a11.8 11.8 0 0 0 .656 2.075 11.599 11.599 0 0 1-.629-2.054c-1.229-6.084 2.708-12.007 8.792-13.235 6.086-1.227 12.011 2.708 13.238 8.798 1.226 6.085-2.708 12.009-8.796 13.24a11.195 11.195 0 0 1-8.318-1.59c.535.357 1.107.653 1.692.921a11.323 11.323 0 0 0 6.639.674z"/><path fill="#788B9B" d="M170.443 24.485c6.084-1.223 10.021-7.148 8.795-13.237-1.219-6.084-7.146-10.021-13.238-8.799-6.083 1.223-10.024 7.147-8.796 13.239.139.716.367 1.396.633 2.049.013.026.033.044.043.075a11.614 11.614 0 0 1-.652-2.109c-1.226-6.067 2.702-11.972 8.766-13.19 6.068-1.22 11.971 2.701 13.192 8.765 1.22 6.067-2.705 11.972-8.769 13.194a11.174 11.174 0 0 1-8.352-1.618c.024.01.042.028.051.044 2.387 1.533 5.335 2.19 8.327 1.587z"/><path fill="#798C9C" d="M170.421 24.467c6.063-1.22 9.988-7.126 8.769-13.191-1.223-6.063-7.131-9.988-13.194-8.77-6.063 1.222-9.987 7.132-8.766 13.19.144.742.374 1.446.655 2.109.304.678.651 1.333 1.054 1.931a11.268 11.268 0 0 1-1.684-4.031c-1.217-6.046 2.694-11.929 8.734-13.151 6.044-1.216 11.933 2.697 13.15 8.737 1.217 6.046-2.694 11.926-8.732 13.149-3.455.697-6.831-.323-9.344-2.423.331.289.663.579 1.019.825a11.097 11.097 0 0 0 8.339 1.625z"/><path fill="#7A8D9C" d="M170.404 24.448c6.044-1.216 9.957-7.106 8.732-13.15-1.211-6.047-7.104-9.96-13.15-8.736-6.049 1.219-9.963 7.104-8.734 13.15.303 1.486.888 2.85 1.684 4.031.018.02.038.031.043.046a11.295 11.295 0 0 1-1.715-4.07c-1.203-6.025 2.689-11.896 8.715-13.105 6.023-1.207 11.895 2.688 13.104 8.711 1.21 6.022-2.688 11.895-8.713 13.106a11.147 11.147 0 0 1-10.011-2.983c.219.217.469.383.69.579 2.522 2.098 5.898 3.119 9.355 2.421z"/><path fill="#7B8D9D" d="M170.375 24.436c6.024-1.216 9.934-7.084 8.716-13.107-1.21-6.022-7.08-9.922-13.105-8.712-6.023 1.21-9.922 7.08-8.714 13.104.311 1.504.9 2.878 1.715 4.067.406.595.877 1.15 1.38 1.659a11.108 11.108 0 0 0 10.008 2.989z"/><circle fill="#7B8D9D" cx="168.166" cy="13.546" r="11.089"/><circle fill="#7C8E9E" cx="168.166" cy="13.546" r="11.089"/><circle fill="#7C8E9E" cx="168.15" cy="13.561" r="11.053"/><circle fill="#7D8F9F" cx="168.15" cy="13.561" r="11.053"/><circle fill="#7D8F9F" cx="168.137" cy="13.584" r="11.02"/><circle fill="#7E90A0" cx="168.137" cy="13.584" r="11.015"/><circle fill="#7E90A0" cx="168.125" cy="13.599" r="10.981"/><circle fill="#7F91A1" cx="168.125" cy="13.599" r="10.981"/><circle fill="#7F91A1" cx="168.108" cy="13.616" r="10.943"/><circle fill="#8092A2" cx="168.108" cy="13.616" r="10.943"/><circle fill="#8092A2" cx="168.099" cy="13.64" r="10.908"/><circle fill="#8193A3" cx="168.097" cy="13.64" r="10.908"/><circle fill="#8193A3" cx="168.076" cy="13.656" r="10.872"/><circle fill="#8294A4" cx="168.076" cy="13.656" r="10.872"/><circle fill="#8294A4" cx="168.061" cy="13.678" r="10.834"/><circle fill="#8395A5" cx="168.061" cy="13.678" r="10.834"/><circle fill="#8395A5" cx="168.055" cy="13.695" r="10.798"/><circle fill="#8596A6" cx="168.052" cy="13.695" r="10.798"/><circle fill="#8596A6" cx="168.039" cy="13.712" r="10.762"/><circle fill="#8697A6" cx="168.039" cy="13.712" r="10.762"/><circle fill="#8697A6" cx="168.023" cy="13.731" r="10.724"/><circle fill="#8798A7" cx="168.023" cy="13.733" r="10.721"/><circle fill="#8798A7" cx="168.01" cy="13.752" r="10.688"/><circle fill="#8899A8" cx="168.01" cy="13.752" r="10.688"/><circle fill="#8899A8" cx="167.995" cy="13.771" r="10.654"/><circle fill="#899AA9" cx="167.995" cy="13.771" r="10.654"/><circle fill="#899AA9" cx="167.98" cy="13.791" r="10.615"/><circle fill="#8A9BAA" cx="167.98" cy="13.791" r="10.615"/><circle fill="#8A9BAA" cx="167.964" cy="13.808" r="10.579"/><circle fill="#8B9CAB" cx="167.964" cy="13.808" r="10.579"/><circle fill="#8B9CAB" cx="167.951" cy="13.826" r="10.541"/><circle fill="#8C9DAC" cx="167.955" cy="13.826" r="10.541"/><circle fill="#8C9DAC" cx="167.935" cy="13.845" r="10.507"/><circle fill="#8D9EAD" cx="167.935" cy="13.845" r="10.507"/><circle fill="#8D9EAD" cx="167.927" cy="13.863" r="10.468"/><circle fill="#8E9FAE" cx="167.927" cy="13.863" r="10.468"/><circle fill="#8E9FAE" cx="167.908" cy="13.884" r="10.434"/><circle fill="#8FA0AF" cx="167.908" cy="13.884" r="10.433"/><circle fill="#8FA0AF" cx="167.89" cy="13.903" r="10.396"/><circle fill="#90A1B0" cx="167.89" cy="13.903" r="10.396"/><circle fill="#90A1B0" cx="167.881" cy="13.918" r="10.358"/><circle fill="#91A2B1" cx="167.881" cy="13.918" r="10.362"/><circle fill="#91A2B1" cx="167.866" cy="13.94" r="10.322"/><circle fill="#93A3B2" cx="167.866" cy="13.94" r="10.324"/><circle fill="#93A3B2" cx="167.85" cy="13.961" r="10.284"/><circle fill="#94A4B3" cx="167.85" cy="13.957" r="10.286"/><circle fill="#94A4B3" cx="167.838" cy="13.973" r="10.25"/><circle fill="#95A5B3" cx="167.838" cy="13.973" r="10.25"/><circle fill="#95A5B3" cx="167.821" cy="13.995" r="10.211"/><circle fill="#96A6B4" cx="167.821" cy="13.994" r="10.214"/><circle fill="#96A6B4" cx="167.805" cy="14.012" r="10.177"/><circle fill="#97A7B5" cx="167.805" cy="14.014" r="10.179"/><circle fill="#97A7B5" cx="167.793" cy="14.033" r="10.139"/><circle fill="#98A8B6" cx="167.793" cy="14.035" r="10.141"/><circle fill="#98A8B6" cx="167.781" cy="14.053" r="10.103"/><circle fill="#99A9B7" cx="167.781" cy="14.052" r="10.101"/><circle fill="#99A9B7" cx="167.766" cy="14.067" r="10.067"/><circle fill="#9BAAB8" cx="167.766" cy="14.067" r="10.065"/><circle fill="#9BAAB8" cx="167.753" cy="14.088" r="10.028"/><circle fill="#9CABB9" cx="167.752" cy="14.088" r="10.028"/><circle fill="#9CABB9" cx="167.738" cy="14.107" r="9.994"/><circle fill="#9DACBA" cx="167.738" cy="14.105" r="9.992"/><circle fill="#9DACBA" cx="167.72" cy="14.129" r="9.956"/><circle fill="#9EADBB" cx="167.72" cy="14.129" r="9.956"/><circle fill="#9EADBB" cx="167.706" cy="14.146" r="9.92"/><circle fill="#9FAEBC" cx="167.706" cy="14.146" r="9.92"/><circle fill="#9FAEBC" cx="167.695" cy="14.165" r="9.884"/><circle fill="#A1AFBD" cx="167.695" cy="14.167" r="9.882"/><circle fill="#A1AFBD" cx="167.678" cy="14.182" r="9.848"/><circle fill="#A2B0BE" cx="167.678" cy="14.182" r="9.848"/><circle fill="#A2B0BE" cx="167.666" cy="14.203" r="9.809"/><circle fill="#A3B1BF" cx="167.666" cy="14.203" r="9.809"/><circle fill="#A3B1BF" cx="167.653" cy="14.222" r="9.773"/><circle fill="#A4B2C0" cx="167.653" cy="14.222" r="9.773"/><circle fill="#A4B2C0" cx="167.637" cy="14.239" r="9.739"/><circle fill="#A6B4C1" cx="167.637" cy="14.239" r="9.739"/><circle fill="#A6B4C1" cx="167.615" cy="14.256" r="9.701"/><circle fill="#A7B5C2" cx="167.615" cy="14.256" r="9.701"/><circle fill="#A7B5C2" cx="167.606" cy="14.275" r="9.665"/><circle fill="#A8B6C3" cx="167.606" cy="14.275" r="9.665"/><circle fill="#A8B6C3" cx="167.595" cy="14.297" r="9.627"/><circle fill="#A9B7C4" cx="167.595" cy="14.297" r="9.627"/><circle fill="#A9B7C4" cx="167.579" cy="14.314" r="9.59"/><circle fill="#ABB8C5" cx="167.579" cy="14.314" r="9.59"/><circle fill="#ABB8C5" cx="167.568" cy="14.335" r="9.555"/><circle fill="#ACB9C6" cx="167.568" cy="14.335" r="9.555"/><circle fill="#ACB9C6" cx="167.549" cy="14.35" r="9.518"/><circle fill="#ADBAC7" cx="167.549" cy="14.35" r="9.518"/><circle fill="#ADBAC7" cx="167.532" cy="14.369" r="9.48"/><circle fill="#AEBBC8" cx="167.532" cy="14.371" r="9.48"/><circle fill="#AEBBC8" cx="167.52" cy="14.39" r="9.446"/><circle fill="#B0BCC9" cx="167.52" cy="14.39" r="9.446"/><circle fill="#B0BCC9" cx="167.507" cy="14.407" r="9.41"/><circle fill="#B1BECA" cx="167.507" cy="14.409" r="9.407"/><circle fill="#B1BECA" cx="167.494" cy="14.429" r="9.371"/><circle fill="#B2BFCB" cx="167.494" cy="14.429" r="9.371"/><circle fill="#B2BFCB" cx="167.479" cy="14.443" r="9.333"/><circle fill="#B4C0CC" cx="167.479" cy="14.443" r="9.335"/><circle fill="#B4C0CC" cx="167.462" cy="14.465" r="9.297"/><circle fill="#B5C1CD" cx="167.462" cy="14.465" r="9.297"/><circle fill="#B5C1CD" cx="167.451" cy="14.484" r="9.261"/><circle fill="#B6C2CE" cx="167.447" cy="14.484" r="9.261"/><circle fill="#B6C2CE" cx="167.434" cy="14.505" r="9.225"/><circle fill="#B8C3CF" cx="167.434" cy="14.505" r="9.225"/><circle fill="#B8C3CF" cx="167.422" cy="14.524" r="9.188"/><circle fill="#B9C5D0" cx="167.422" cy="14.524" r="9.188"/><circle fill="#B9C5D0" cx="167.404" cy="14.543" r="9.152"/><circle fill="#BAC6D1" cx="167.404" cy="14.543" r="9.152"/><circle fill="#BAC6D1" cx="167.396" cy="14.558" r="9.112"/><circle fill="#BCC7D2" cx="167.396" cy="14.558" r="9.112"/><circle fill="#BCC7D2" cx="167.381" cy="14.579" r="9.08"/><circle fill="#BDC8D3" cx="167.381" cy="14.577" r="9.08"/><circle fill="#BDC8D3" cx="167.381" cy="14.575" r="9.042"/><circle fill="#BDC8D3" cx="167.381" cy="14.575" r="9.042"/><circle fill="#BDC8D3" cx="167.33" cy="14.643" r="8.918"/><circle fill="#BFC9D4" cx="167.33" cy="14.643" r="8.916"/><circle fill="#BFC9D4" cx="167.283" cy="14.705" r="8.795"/><circle fill="#C0CBD5" cx="167.283" cy="14.705" r="8.795"/><circle fill="#C0CBD5" cx="167.229" cy="14.775" r="8.67"/><circle fill="#C2CCD6" cx="167.234" cy="14.775" r="8.67"/><circle fill="#C2CCD6" cx="167.177" cy="14.836" r="8.549"/><circle fill="#C3CDD7" cx="167.177" cy="14.836" r="8.549"/><circle fill="#C3CDD7" cx="167.135" cy="14.9" r="8.426"/><circle fill="#C5CED8" cx="167.135" cy="14.9" r="8.426"/><circle fill="#C5CED8" cx="167.081" cy="14.964" r="8.3"/><circle fill="#C6D0D9" cx="167.081" cy="14.964" r="8.3"/><circle fill="#C6D0D9" cx="167.037" cy="15.028" r="8.179"/><circle fill="#C7D1DA" cx="167.037" cy="15.028" r="8.179"/><circle fill="#C7D1DA" cx="166.985" cy="15.096" r="8.053"/><circle fill="#C9D2DB" cx="166.985" cy="15.096" r="8.053"/><circle fill="#C9D2DB" cx="166.934" cy="15.157" r="7.93"/><circle fill="#CAD3DD" cx="166.934" cy="15.157" r="7.93"/><circle fill="#CAD3DD" cx="166.887" cy="15.221" r="7.807"/><circle fill="#CCD5DE" cx="166.887" cy="15.221" r="7.807"/><circle fill="#CCD5DE" cx="166.837" cy="15.289" r="7.679"/><circle fill="#CED6DF" cx="166.837" cy="15.289" r="7.679"/><circle fill="#CED6DF" cx="166.789" cy="15.353" r="7.558"/><circle fill="#CFD7E0" cx="166.789" cy="15.353" r="7.558"/><circle fill="#CFD7E0" cx="166.737" cy="15.415" r="7.437"/><circle fill="#D1D9E1" cx="166.737" cy="15.415" r="7.437"/><circle fill="#D1D9E1" cx="166.69" cy="15.481" r="7.311"/><circle fill="#D2DAE2" cx="166.69" cy="15.481" r="7.311"/><circle fill="#D2DAE2" cx="166.639" cy="15.547" r="7.188"/><circle fill="#D4DBE3" cx="166.639" cy="15.547" r="7.188"/><circle fill="#D4DBE3" cx="166.593" cy="15.608" r="7.064"/><circle fill="#D5DDE4" cx="166.593" cy="15.608" r="7.064"/><circle fill="#D5DDE4" cx="166.543" cy="15.676" r="6.941"/><circle fill="#D7DEE5" cx="166.543" cy="15.676" r="6.941"/><circle fill="#D7DEE5" cx="166.494" cy="15.74" r="6.818"/><circle fill="#D9DFE6" cx="166.494" cy="15.74" r="6.818"/><circle fill="#D9DFE6" cx="166.445" cy="15.802" r="6.693"/><circle fill="#DAE1E7" cx="166.445" cy="15.802" r="6.693"/><circle fill="#DAE1E7" cx="166.394" cy="15.868" r="6.57"/><circle fill="#DCE2E8" cx="166.394" cy="15.868" r="6.57"/><circle fill="#DCE2E8" cx="166.345" cy="15.936" r="6.446"/><circle fill="#DDE3E9" cx="166.345" cy="15.936" r="6.446"/><circle fill="#DDE3E9" cx="166.292" cy="15.995" r="6.323"/><circle fill="#DFE5EB" cx="166.292" cy="15.995" r="6.323"/><circle fill="#DFE5EB" cx="166.25" cy="16.061" r="6.197"/><circle fill="#E1E6EC" cx="166.25" cy="16.061" r="6.197"/><circle fill="#E1E6EC" cx="166.195" cy="16.125" r="6.076"/><circle fill="#E2E7ED" cx="166.195" cy="16.125" r="6.076"/><circle fill="#E2E7ED" cx="166.152" cy="16.193" r="5.952"/><circle fill="#E4E9EE" cx="166.152" cy="16.193" r="5.952"/><circle fill="#E4E9EE" cx="166.101" cy="16.254" r="5.827"/><circle fill="#E6EAEF" cx="166.101" cy="16.254" r="5.827"/><circle fill="#E6EAEF" cx="166.052" cy="16.322" r="5.706"/><circle fill="#E7ECF0" cx="166.052" cy="16.322" r="5.706"/><circle fill="#E7ECF0" cx="166.002" cy="16.384" r="5.58"/><circle fill="#E9EDF1" cx="166.002" cy="16.384" r="5.58"/><circle fill="#E9EDF1" cx="165.95" cy="16.448" r="5.458"/><circle fill="#EBEEF2" cx="165.95" cy="16.448" r="5.458"/><circle fill="#EBEEF2" cx="165.905" cy="16.516" r="5.334"/><circle fill="#ECF0F3" cx="165.905" cy="16.516" r="5.334"/><circle fill="#ECF0F3" cx="165.851" cy="16.578" r="5.209"/><circle fill="#EEF1F4" cx="165.851" cy="16.578" r="5.209"/><circle fill="#EEF1F4" cx="165.851" cy="16.578" r="5.085"/><circle fill="#EEF1F4" cx="165.851" cy="16.578" r="5.085"/><circle fill="#EEF1F4" cx="165.697" cy="16.782" r="4.724"/><circle fill="#F0F3F5" cx="165.697" cy="16.782" r="4.724"/><circle fill="#F0F3F5" cx="165.542" cy="16.988" r="4.36"/><circle fill="#F2F4F7" cx="165.542" cy="16.988" r="4.36"/><circle fill="#F2F4F7" cx="165.385" cy="17.19" r="3.997"/><circle fill="#F4F6F8" cx="165.385" cy="17.19" r="3.997"/><circle fill="#F4F6F8" cx="165.227" cy="17.392" r="3.634"/><circle fill="#F5F7F9" cx="165.227" cy="17.392" r="3.634"/><circle fill="#F5F7F9" cx="165.076" cy="17.598" r="3.272"/><circle fill="#F7F9FA" cx="165.076" cy="17.598" r="3.272"/><circle fill="#F7F9FA" cx="164.921" cy="17.805" r="2.908"/><circle fill="#F9FAFC" cx="164.921" cy="17.805" r="2.908"/><circle fill="#F9FAFC" cx="164.765" cy="18.011" r="2.545"/><circle fill="#FBFCFD" cx="164.765" cy="18.011" r="2.545"/><circle fill="#FBFCFD" cx="164.606" cy="18.211" r="2.181"/><circle fill="#FDFDFE" cx="164.606" cy="18.211" r="2.181"/><circle fill="#FDFDFE" cx="164.454" cy="18.412" r="1.816"/><circle fill="#FFF" cx="164.454" cy="18.412" r="1.816"/></g><path fill="#FFF" d="M174.621 4.413c-3.003-1.964-6.334-1.646-7.839-1.042 1.683.03 4.574.184 7.251 1.927 2.645 1.788 3.912 4.396 4.591 5.938-.03-1.629-1.026-4.818-4.003-6.823z"/><g><path fill="#A4AA9A" d="M185.041 45.678c-8.616 17.142-26.75 41.239-61.31 44.111 0 0-36.552 3.305-31.775-22.102 0 0 3.914-18.736 28.303-7.185 0 0 34.83 17.494 61.855-16.716 0 0 1.127-1.604 2.506-.653-.006 0 1.24.894.421 2.545z"/><path fill="#A8AD9E" d="M184.259 43.767s1.181.861.361 2.517C175.992 63 158.219 86.89 123.658 89.75c0 0-36.317 3.298-31.509-21.889 0 0 3.898-18.323 28.288-6.771 0 0 34.438 17.183 61.203-16.578-.004.008 1.242-1.695 2.619-.745z"/><path fill="#ACB1A2" d="M183.904 44.407s1.108.838.296 2.486c-8.638 16.291-26.057 39.96-60.614 42.832 0 0-36.086 3.295-31.245-21.68 0 0 3.882-17.903 28.271-6.345 0 0 34.054 16.871 60.563-16.436-.009-.013 1.354-1.81 2.729-.857z"/><path fill="#AFB4A6" d="M183.547 45.043s1.043.807.221 2.454c-8.645 15.865-25.714 39.318-60.266 42.185 0 0-35.852 3.288-30.982-21.47 0 0 3.871-17.487 28.257-5.934 0 0 33.661 16.558 59.924-16.298-.005.003 1.473-1.889 2.846-.937z"/><path fill="#B3B8A9" d="M183.191 45.678s.977.772.161 2.432c-8.657 15.435-25.365 38.672-59.918 41.542 0 0-35.625 3.286-30.721-21.262 0 0 3.854-17.068 28.235-5.518 0 0 33.276 16.249 59.275-16.164.001.008 1.596-1.982 2.968-1.03z"/><path fill="#B7BCAE" d="M182.837 46.314s.907.749.094 2.4c-8.668 15.009-25.016 38.032-59.57 40.898 0 0-35.39 3.278-30.458-21.044 0 0 3.843-16.653 28.22-5.1 0 0 32.896 15.936 58.626-16.014.003-.005 1.717-2.095 3.088-1.14z"/><path fill="#BBBFB2" d="M182.482 46.948s.841.719.025 2.368c-8.68 14.577-24.666 37.391-59.219 40.261 0 0-35.15 3.271-30.19-20.841 0 0 3.829-16.238 28.214-4.682 0 0 32.497 15.629 57.979-15.875-.006.002 1.817-2.184 3.191-1.231z"/><path fill="#BEC3B6" d="M182.127 47.587s.768.688-.045 2.341c-8.69 14.146-24.316 36.746-58.866 39.62 0 0-34.922 3.267-29.93-20.629 0 0 3.812-15.819 28.199-4.265 0 0 32.113 15.309 57.342-15.736-.009-.006 1.927-2.285 3.3-1.331z"/><path fill="#C2C7BA" d="M181.769 48.224s.706.665-.11 2.309c-8.696 13.729-23.968 36.105-58.517 38.976 0 0-34.686 3.263-29.667-20.417 0 0 3.799-15.404 28.185-3.854 0 0 31.727 15.005 56.692-15.598-.009.004 2.048-2.371 3.417-1.416z"/><path fill="#C6CABF" d="M181.236 51.138c-8.709 13.296-23.622 35.469-58.172 38.33 0 0-34.452 3.255-29.399-20.206 0 0 3.786-14.988 28.166-3.432 0 0 31.335 14.688 56.046-15.458 0 0 2.171-2.469 3.538-1.516 0 .003.631.634-.179 2.282z"/><g><path fill="#C6CABF" d="M181.236 51.138c-8.709 13.296-23.622 35.469-58.172 38.33 0 0-34.452 3.255-29.399-20.206 0 0 3.786-14.988 28.166-3.432 0 0 31.335 14.688 56.046-15.458 0 0 2.171-2.469 3.538-1.516 0 .003.631.634-.179 2.282z"/><path fill="#CBCFC4" d="M180.541 50.092s.556.742-.339 2.407c-9.062 13.271-23.682 33.933-56.824 36.796 0 0-34.462 3.188-29.306-19.654 0 0 3.719-14.414 27.771-3.141 0 0 30.791 14.118 55.179-14.836-.011-.011 2.155-2.518 3.519-1.572z"/><path fill="#D0D4CA" d="M179.663 51.317s.48.848-.487 2.53c-9.434 13.242-23.752 32.399-55.496 35.251 0 0-34.466 3.115-29.203-19.101 0 0 3.655-13.848 27.366-2.846 0 0 30.251 13.539 54.313-14.22-.008.003 2.148-2.544 3.507-1.614z"/><path fill="#D6D9D0" d="M178.791 52.545s.398.959-.66 2.656c-9.786 13.222-23.813 30.872-54.146 33.711 0 0-34.479 3.038-29.109-18.555 0 0 3.588-13.28 26.968-2.547 0 0 29.711 12.962 53.44-13.601.002.004 2.152-2.584 3.507-1.664z"/><path fill="#DBDED5" d="M177.92 53.776s.311 1.07-.818 2.781C166.956 69.75 153.229 85.9 124.301 88.736c0 0-34.489 2.966-29.012-18 0 0 3.512-12.711 26.563-2.26 0 0 29.164 12.382 52.574-12.984-.003-.004 2.139-2.626 3.494-1.716z"/><path fill="#E0E2DB" d="M177.046 55.005s.227 1.18-.977 2.9c-10.498 13.171-23.938 27.813-51.453 30.64 0 0-34.5 2.893-28.923-17.445 0 0 3.455-12.145 26.171-1.967 0 0 28.62 11.811 51.697-12.357-.004-.006 2.135-2.672 3.485-1.771z"/><path fill="#E5E7E1" d="M176.172 56.234s.148 1.283-1.132 3.027c-10.862 13.149-24.009 26.281-50.112 29.099 0 0-34.501 2.814-28.827-16.891 0 0 3.385-11.571 25.768-1.674 0 0 28.075 11.23 50.827-11.746.006-.001 2.137-2.708 3.476-1.815z"/><path fill="#EAECE7" d="M175.293 57.465s.068 1.393-1.29 3.149c-11.215 13.119-24.061 24.753-48.767 27.563 0 0-34.505 2.742-28.732-16.345 0 0 3.322-11.009 25.371-1.378 0 0 27.531 10.654 49.962-11.13-.004-.001 2.119-2.741 3.456-1.859z"/><path fill="#F0F1ED" d="M174.423 58.692s-.019 1.507-1.464 3.276c-11.573 13.099-24.122 23.22-47.423 26.02 0 0-34.514 2.672-28.631-15.792 0 0 3.253-10.435 24.966-1.084 0 0 26.985 10.069 49.095-10.513.006.004 2.121-2.779 3.457-1.907z"/><path fill="#F5F6F4" d="M171.934 63.322c-11.939 13.071-24.196 21.688-46.083 24.487 0 0-34.528 2.603-28.532-15.241 0 0 3.181-9.872 24.563-.791 0 0 26.444 9.498 48.226-9.892 0 0 2.106-2.822 3.437-1.963.002.003-.092 1.616-1.611 3.4z"/></g><path fill="#FFF" d="M112.149 60.907c-4.737-1.493-9.473-.71-11.443.785 2.346-.755 6.538-.943 11.101.463 4.547 1.247 8.415 3.243 10.896 3.539-2.202-1.011-5.732-3.447-10.554-4.787z"/><g><path fill="#A4AA9A" d="M132.597 48.224c13.181-2.658 21.72-15.497 19.063-28.688-2.658-13.17-15.501-21.705-28.676-19.053-12.467 2.52-20.772 14.155-19.37 26.563-.985-11.627 6.871-22.394 18.588-24.751 12.607-2.541 24.877 5.619 27.417 18.223 2.54 12.606-5.623 24.878-18.227 27.417-4.55.917-9.048.423-13.065-1.152a24.2 24.2 0 0 0 14.27 1.441z"/><path fill="#A4AA9A" d="M131.398 47.938c12.609-2.543 20.77-14.815 18.227-27.417C147.088 7.912 134.809-.25 122.209 2.298c-11.721 2.36-19.573 13.131-18.589 24.758.078.697.172 1.399.31 2.101.015.066.041.128.044.188-2.271-12.409 5.796-24.402 18.21-26.898 12.552-2.526 24.779 5.6 27.313 18.145 2.526 12.551-5.6 24.777-18.148 27.31A23.066 23.066 0 0 1 118 46.628c.117.052.221.113.342.16a23.123 23.123 0 0 0 13.056 1.15z"/><path fill="#A5AB9B" d="M131.343 47.894c12.551-2.526 20.681-14.752 18.146-27.311-2.53-12.55-14.75-20.68-27.309-18.148-12.422 2.5-20.484 14.49-18.209 26.897.16.774.353 1.534.58 2.272a24.61 24.61 0 0 1-.472-1.834c-2.518-12.503 5.573-24.675 18.079-27.193 12.503-2.521 24.67 5.572 27.195 18.074 2.523 12.499-5.572 24.67-18.071 27.194a22.965 22.965 0 0 1-15.146-2.132c.6.33 1.216.623 1.846.904a23.11 23.11 0 0 0 13.361 1.277z"/><path fill="#A6AC9C" d="M131.288 47.849c12.499-2.523 20.596-14.696 18.071-27.194C146.838 8.152 134.666.058 122.166 2.579c-12.502 2.521-20.595 14.692-18.07 27.191.13.627.293 1.234.468 1.833.044.146.113.289.157.436a27.711 27.711 0 0 1-.574-2.241c-2.511-12.445 5.548-24.574 18.002-27.078 12.446-2.514 24.575 5.549 27.082 18.003 2.506 12.445-5.552 24.571-18.006 27.078a22.9 22.9 0 0 1-16.915-3.181c.591.397 1.201.752 1.829 1.099a22.974 22.974 0 0 0 15.149 2.13z"/><path fill="#A7AD9D" d="M131.23 47.804c12.445-2.512 20.508-14.637 18.003-27.079C146.722 8.277 134.597.218 122.152 2.722c-12.447 2.509-20.51 14.635-18.001 27.078.153.764.348 1.515.574 2.241.245.75.527 1.476.846 2.192a23.46 23.46 0 0 1-1.357-4.401c-2.5-12.395 5.53-24.475 17.928-26.973 12.396-2.496 24.467 5.534 26.965 17.933 2.493 12.398-5.53 24.474-17.929 26.97-6.184 1.245-12.278-.133-17.155-3.352.101.071.194.149.295.221 4.834 3.09 10.83 4.402 16.912 3.173z"/><path fill="#A8AE9E" d="M131.174 47.76c12.396-2.498 20.417-14.572 17.926-26.97-2.501-12.4-14.572-20.419-26.969-17.931-12.394 2.499-20.42 14.572-17.929 26.975.311 1.54.763 3.006 1.36 4.396a23.36 23.36 0 0 0 2.151 3.879 22.706 22.706 0 0 1-3.451-8.248c-2.489-12.352 5.502-24.375 17.85-26.86 12.352-2.485 24.375 5.504 26.858 17.851 2.486 12.35-5.507 24.373-17.851 26.859-7.669 1.549-15.222-.961-20.427-6.049 1.02 1.02 2.149 1.92 3.329 2.736a22.765 22.765 0 0 0 17.153 3.362z"/><path fill="#A9AF9F" d="M131.116 47.717c12.349-2.488 20.334-14.509 17.852-26.857C146.484 8.512 134.458.529 122.11 3.009c-12.348 2.489-20.333 14.511-17.85 26.857a22.744 22.744 0 0 0 3.451 8.249 24.707 24.707 0 0 0 2.974 3.561c5.211 5.078 12.76 7.584 20.431 6.041z"/><circle fill="#A9AF9F" cx="126.576" cy="25.413" r="22.708"/><circle fill="#AAB0A0" cx="126.576" cy="25.413" r="22.708"/><circle fill="#AAB0A0" cx="126.537" cy="25.463" r="22.61"/><circle fill="#ABB1A1" cx="126.537" cy="25.463" r="22.61"/><circle fill="#ABB1A1" cx="126.503" cy="25.511" r="22.514"/><circle fill="#ACB2A3" cx="126.503" cy="25.511" r="22.514"/><circle fill="#ACB2A3" cx="126.464" cy="25.558" r="22.419"/><circle fill="#ADB3A4" cx="126.464" cy="25.555" r="22.421"/><circle fill="#ADB3A4" cx="126.427" cy="25.609" r="22.323"/><circle fill="#AEB4A5" cx="126.427" cy="25.609" r="22.323"/><circle fill="#AEB4A5" cx="126.387" cy="25.66" r="22.227"/><circle fill="#AFB5A6" cx="126.387" cy="25.66" r="22.227"/><circle fill="#AFB5A6" cx="126.346" cy="25.709" r="22.132"/><circle fill="#B0B6A7" cx="126.346" cy="25.709" r="22.132"/><circle fill="#B0B6A7" cx="126.312" cy="25.76" r="22.034"/><circle fill="#B1B7A8" cx="126.312" cy="25.76" r="22.034"/><circle fill="#B1B7A8" cx="126.274" cy="25.809" r="21.94"/><circle fill="#B2B8A9" cx="126.274" cy="25.809" r="21.94"/><circle fill="#B2B8A9" cx="126.236" cy="25.856" r="21.843"/><circle fill="#B4B9AA" cx="126.236" cy="25.856" r="21.843"/><circle fill="#B4B9AA" cx="126.204" cy="25.907" r="21.749"/><circle fill="#B5B9AB" cx="126.204" cy="25.907" r="21.749"/><circle fill="#B5B9AB" cx="126.16" cy="25.954" r="21.651"/><circle fill="#B6BAAC" cx="126.16" cy="25.956" r="21.654"/><circle fill="#B6BAAC" cx="126.122" cy="26.007" r="21.558"/><circle fill="#B7BBAD" cx="126.122" cy="26.007" r="21.558"/><circle fill="#B7BBAD" cx="126.084" cy="26.053" r="21.46"/><circle fill="#B8BCAF" cx="126.084" cy="26.053" r="21.46"/><circle fill="#B8BCAF" cx="126.047" cy="26.106" r="21.365"/><circle fill="#B9BDB0" cx="126.047" cy="26.106" r="21.365"/><circle fill="#B9BDB0" cx="126.007" cy="26.153" r="21.269"/><circle fill="#BABEB1" cx="126.007" cy="26.153" r="21.269"/><circle fill="#BABEB1" cx="125.972" cy="26.204" r="21.175"/><circle fill="#BBBFB2" cx="125.97" cy="26.204" r="21.173"/><circle fill="#BBBFB2" cx="125.938" cy="26.251" r="21.08"/><circle fill="#BCC0B3" cx="125.938" cy="26.251" r="21.08"/><circle fill="#BCC0B3" cx="125.898" cy="26.302" r="20.984"/><circle fill="#BDC1B4" cx="125.896" cy="26.302" r="20.984"/><circle fill="#BDC1B4" cx="125.86" cy="26.351" r="20.886"/><circle fill="#BEC2B5" cx="125.86" cy="26.351" r="20.886"/><circle fill="#BEC2B5" cx="125.819" cy="26.4" r="20.792"/><circle fill="#BFC4B7" cx="125.819" cy="26.4" r="20.792"/><circle fill="#BFC4B7" cx="125.786" cy="26.449" r="20.695"/><circle fill="#C0C5B8" cx="125.786" cy="26.449" r="20.695"/><circle fill="#C0C5B8" cx="125.748" cy="26.498" r="20.599"/><circle fill="#C1C6B9" cx="125.748" cy="26.498" r="20.599"/><circle fill="#C1C6B9" cx="125.707" cy="26.547" r="20.503"/><circle fill="#C2C7BA" cx="125.707" cy="26.547" r="20.505"/><circle fill="#C2C7BA" cx="125.676" cy="26.6" r="20.409"/><circle fill="#C3C8BB" cx="125.676" cy="26.6" r="20.409"/><circle fill="#C3C8BB" cx="125.631" cy="26.649" r="20.314"/><circle fill="#C4C9BD" cx="125.632" cy="26.644" r="20.314"/><circle fill="#C4C9BD" cx="125.596" cy="26.7" r="20.214"/><circle fill="#C5CABE" cx="125.596" cy="26.7" r="20.214"/><circle fill="#C5CABE" cx="125.554" cy="26.746" r="20.12"/><circle fill="#C7CBBF" cx="125.556" cy="26.746" r="20.12"/><circle fill="#C7CBBF" cx="125.522" cy="26.795" r="20.025"/><circle fill="#C8CCC0" cx="125.522" cy="26.795" r="20.025"/><circle fill="#C8CCC0" cx="125.481" cy="26.844" r="19.929"/><circle fill="#C9CDC1" cx="125.481" cy="26.844" r="19.929"/><circle fill="#C9CDC1" cx="125.447" cy="26.895" r="19.833"/><circle fill="#CACEC3" cx="125.447" cy="26.895" r="19.833"/><circle fill="#CACEC3" cx="125.409" cy="26.944" r="19.738"/><circle fill="#CBCFC4" cx="125.409" cy="26.944" r="19.738"/><circle fill="#CBCFC4" cx="125.367" cy="26.995" r="19.642"/><circle fill="#CCD0C5" cx="125.367" cy="26.995" r="19.642"/><circle fill="#CCD0C5" cx="125.333" cy="27.044" r="19.545"/><circle fill="#CDD1C6" cx="125.333" cy="27.044" r="19.545"/><circle fill="#CDD1C6" cx="125.29" cy="27.089" r="19.451"/><circle fill="#CED2C8" cx="125.29" cy="27.093" r="19.451"/><circle fill="#CED2C8" cx="125.257" cy="27.144" r="19.355"/><circle fill="#CFD3C9" cx="125.257" cy="27.144" r="19.355"/><circle fill="#CFD3C9" cx="125.222" cy="27.193" r="19.26"/><circle fill="#D1D4CA" cx="125.222" cy="27.193" r="19.26"/><circle fill="#D1D4CA" cx="125.182" cy="27.239" r="19.164"/><circle fill="#D2D5CB" cx="125.182" cy="27.239" r="19.164"/><circle fill="#D2D5CB" cx="125.146" cy="27.289" r="19.066"/><circle fill="#D3D6CD" cx="125.146" cy="27.29" r="19.068"/><circle fill="#D3D6CD" cx="125.105" cy="27.335" r="18.97"/><circle fill="#D4D7CE" cx="125.105" cy="27.335" r="18.97"/><circle fill="#D4D7CE" cx="125.067" cy="27.389" r="18.875"/><circle fill="#D5D8CF" cx="125.067" cy="27.389" r="18.875"/><circle fill="#D5D8CF" cx="125.029" cy="27.44" r="18.779"/><circle fill="#D6D9D0" cx="125.029" cy="27.442" r="18.781"/><circle fill="#D6D9D0" cx="124.995" cy="27.486" r="18.681"/><circle fill="#D7DAD2" cx="124.995" cy="27.488" r="18.683"/><circle fill="#D7DAD2" cx="124.959" cy="27.538" r="18.59"/><circle fill="#D8DCD3" cx="124.959" cy="27.538" r="18.59"/><circle fill="#D8DCD3" cx="124.959" cy="27.535" r="18.492"/><circle fill="#D8DCD3" cx="124.959" cy="27.535" r="18.492"/><circle fill="#D8DCD3" cx="124.825" cy="27.709" r="18.171"/><circle fill="#DADDD4" cx="124.825" cy="27.709" r="18.171"/><circle fill="#DADDD4" cx="124.697" cy="27.88" r="17.845"/><circle fill="#DBDED6" cx="124.697" cy="27.88" r="17.845"/><circle fill="#DBDED6" cx="124.56" cy="28.046" r="17.522"/><circle fill="#DCDFD7" cx="124.56" cy="28.046" r="17.522"/><circle fill="#DCDFD7" cx="124.435" cy="28.216" r="17.197"/><circle fill="#DDE0D8" cx="124.435" cy="28.216" r="17.197"/><circle fill="#DDE0D8" cx="124.302" cy="28.39" r="16.874"/><circle fill="#DEE1DA" cx="124.302" cy="28.39" r="16.874"/><circle fill="#DEE1DA" cx="124.174" cy="28.562" r="16.549"/><circle fill="#E0E2DB" cx="124.174" cy="28.562" r="16.549"/><circle fill="#E0E2DB" cx="124.045" cy="28.73" r="16.226"/><circle fill="#E1E3DC" cx="124.045" cy="28.73" r="16.226"/><circle fill="#E1E3DC" cx="123.917" cy="28.9" r="15.9"/><circle fill="#E2E4DE" cx="123.917" cy="28.9" r="15.9"/><circle fill="#E2E4DE" cx="123.785" cy="29.072" r="15.582"/><circle fill="#E3E6DF" cx="123.785" cy="29.072" r="15.582"/><circle fill="#E3E6DF" cx="123.657" cy="29.24" r="15.256"/><circle fill="#E4E7E0" cx="123.657" cy="29.24" r="15.256"/><circle fill="#E4E7E0" cx="123.528" cy="29.411" r="14.933"/><circle fill="#E6E8E2" cx="123.528" cy="29.411" r="14.933"/><circle fill="#E6E8E2" cx="123.394" cy="29.585" r="14.61"/><circle fill="#E7E9E3" cx="123.394" cy="29.585" r="14.61"/><circle fill="#E7E9E3" cx="123.264" cy="29.752" r="14.284"/><circle fill="#E8EAE4" cx="123.264" cy="29.752" r="14.284"/><circle fill="#E8EAE4" cx="123.138" cy="29.923" r="13.961"/><circle fill="#E9EBE6" cx="123.138" cy="29.923" r="13.961"/><circle fill="#E9EBE6" cx="123.01" cy="30.097" r="13.638"/><circle fill="#EBECE7" cx="123.01" cy="30.097" r="13.638"/><circle fill="#EBECE7" cx="122.873" cy="30.263" r="13.315"/><circle fill="#ECEDE9" cx="122.873" cy="30.263" r="13.315"/><circle fill="#ECEDE9" cx="122.75" cy="30.435" r="12.992"/><circle fill="#EDEEEA" cx="122.75" cy="30.435" r="12.992"/><circle fill="#EDEEEA" cx="122.614" cy="30.603" r="12.667"/><circle fill="#EEF0EB" cx="122.614" cy="30.603" r="12.667"/><circle fill="#EEF0EB" cx="122.488" cy="30.777" r="12.346"/><circle fill="#EFF1ED" cx="122.488" cy="30.777" r="12.346"/><circle fill="#EFF1ED" cx="122.354" cy="30.947" r="12.021"/><circle fill="#F1F2EE" cx="122.354" cy="30.947" r="12.021"/><circle fill="#F1F2EE" cx="122.224" cy="31.117" r="11.697"/><circle fill="#F2F3F0" cx="122.224" cy="31.117" r="11.697"/><circle fill="#F2F3F0" cx="122.094" cy="31.288" r="11.374"/><circle fill="#F3F4F1" cx="122.094" cy="31.288" r="11.374"/><circle fill="#F3F4F1" cx="121.967" cy="31.457" r="11.051"/><circle fill="#F4F5F3" cx="121.967" cy="31.457" r="11.051"/><circle fill="#F4F5F3" cx="121.834" cy="31.628" r="10.723"/><circle fill="#F5F6F4" cx="121.834" cy="31.628" r="10.723"/><circle fill="#F5F6F4" cx="121.834" cy="31.626" r="10.4"/><circle fill="#F5F6F4" cx="121.834" cy="31.626" r="10.4"/><circle fill="#F5F6F4" cx="121.427" cy="32.165" r="9.474"/><circle fill="#F7F8F6" cx="121.427" cy="32.165" r="9.474"/><circle fill="#F7F8F6" cx="121.015" cy="32.701" r="8.547"/><circle fill="#F8F9F7" cx="121.015" cy="32.701" r="8.547"/><circle fill="#F8F9F7" cx="120.61" cy="33.239" r="7.618"/><circle fill="#FAFAF9" cx="120.61" cy="33.239" r="7.618"/><circle fill="#FAFAF9" cx="120.199" cy="33.773" r="6.687"/><circle fill="#FBFBFA" cx="120.199" cy="33.773" r="6.687"/><circle fill="#FBFBFA" cx="119.789" cy="34.313" r="5.759"/><circle fill="#FCFDFC" cx="119.789" cy="34.313" r="5.759"/><circle fill="#FCFDFC" cx="119.385" cy="34.849" r="4.83"/><circle fill="#FEFEFD" cx="119.385" cy="34.849" r="4.83"/><circle fill="#FEFEFD" cx="118.969" cy="35.384" r="3.899"/><circle fill="#FFF" cx="118.969" cy="35.384" r="3.899"/></g><path fill="#FFF" d="M139.76 6.262c-6.129-4.099-13.02-3.576-16.166-2.313 3.432-.17 9.586.128 15.14 3.842 5.582 3.678 8.242 9.233 9.409 12.46-.038-3.377-2.235-9.937-8.383-13.989z"/></g></svg>