<svg xmlns="http://www.w3.org/2000/svg" viewBox="0 0 243.299 212.6"><g fill="#23605A"><path d="M19.245 210.238c-1.623 1.593-4.164 2.357-6.766 2.357-3.978 0-9.457-2.939-9.457-10.103 0-7.438 6.488-10.284 10.772-10.284 1.562 0 3.243.277 4.651.946.031 1.53.152 3.059.306 4.59h-.427c-.61-2.785-3.215-3.645-5.357-3.645-4.07 0-7.13 2.91-7.13 7.38 0 4.716 3.335 9.028 7.655 9.028 2.111 0 4.164-.854 5.877-1.988l-.124 1.719zM23.376 192.636c0-.7-.274-.854-1.102-1.103-.215-.061-.43-.092-.705-.153v-.242c1.438-.399 3.49-.944 4.592-1.375-.063 1.438-.153 2.878-.153 4.315v16.619c0 .736.797 1.073 1.653 1.165v.425c-1.041-.091-1.866-.182-2.967-.182-1.102 0-1.927.092-2.969.182v-.425c.855-.092 1.652-.429 1.652-1.165l-.001-18.061zM31.888 200.414c0-.762-.336-.946-1.348-1.163-.151-.031-.307-.06-.487-.092v-.247c1.592-.398 3.151-.887 4.622-1.373-.063.979-.152 2.111-.152 3.089v10.069c0 .74.795 1.073 1.651 1.167v.425c-1.04-.092-1.867-.183-2.968-.183-1.102 0-1.926.092-2.969.183v-.425c.857-.097 1.652-.431 1.652-1.169l-.001-10.281zm1.375-8.54a1.775 1.775 0 1 1 0 3.548 1.775 1.775 0 0 1 0-3.548zM40.211 200.535c0-1.04-.366-1.315-1.405-1.373v-.247c1.346-.396 3.03-.979 4.129-1.373a32.16 32.16 0 0 0-.091 2.447h.06c.797-1.502 2.265-2.447 3.918-2.447 2.938 0 4.898 1.716 4.898 5.385v7.499c0 .921.245 1.316 1.407 1.441v.428c-.579-.061-1.407-.186-2.111-.186-.519 0-1.558.126-2.11.186.06-.609.183-1.316.183-1.992v-7.865c0-2.263-1.163-3-2.604-3-2.021 0-3.642 1.776-3.642 4.38v6.888c0 .736.795 1.072 1.651 1.164v.428c-1.039-.094-1.866-.186-2.967-.186-1.102 0-1.927.094-2.969.186v-.428c.857-.092 1.65-.428 1.65-1.164l.003-10.171zM57.416 200.414c0-.762-.339-.946-1.351-1.163-.15-.031-.306-.06-.486-.092v-.247c1.592-.398 3.152-.887 4.621-1.373-.062.979-.152 2.111-.152 3.089v10.069c0 .74.795 1.073 1.652 1.167v.425c-1.039-.092-1.866-.183-2.969-.183-1.104 0-1.929.092-2.968.183v-.425c.856-.094 1.651-.428 1.651-1.167l.002-10.283zm1.374-8.54a1.775 1.775 0 1 1 0 3.549 1.775 1.775 0 0 1 0-3.549zM75.961 210.788c-1.407 1.225-3.091 1.81-4.593 1.81-4.713 0-7.191-3.185-7.191-7.622 0-4.255 3.521-7.438 7.407-7.438 1.467 0 2.661.274 3.854.61-.092 1.283-.061 2.538 0 3.736h-.431c-.521-1.686-1.806-2.815-3.583-2.815-2.111 0-4.621 1.622-4.621 6.03 0 3.585 2.447 5.603 5.018 5.603 1.625 0 3.217-.856 4.406-1.868l-.266 1.954zM79.479 198.389c1.467-.606 3.059-.852 4.622-.852 3.335 0 5.785 1.406 5.785 5.325v7.22c0 1.014.125 1.718 1.254 1.779v.426c-.642-.06-1.254-.184-1.897-.184-.584 0-1.195.124-1.808.184v-2.904h-.062c-1.04 2.235-2.662 3.215-5.111 3.215-2.664 0-4.5-1.378-4.5-4.131 0-2.479 1.624-3.946 4.745-4.38l4.315-.58c.58-.094.612-.642.612-1.07 0-2.173-1.196-3.184-3.336-3.184-2.052 0-3.521.702-4.471 2.479h-.333l.185-3.343zm3.951 7.198c-2.144.367-3.03 1.256-3.03 2.724 0 1.682 1.164 2.388 2.756 2.388 2.908 0 4.133-3.09 4.133-5.174v-.612l-3.859.674zM94.817 192.636c0-.7-.274-.854-1.102-1.103-.217-.061-.43-.092-.704-.153v-.242c1.438-.399 3.489-.944 4.59-1.375-.06 1.438-.149 2.878-.149 4.315v16.619c0 .736.797 1.073 1.651 1.165v.425c-1.04-.091-1.866-.182-2.968-.182s-1.928.092-2.968.182v-.425c.856-.092 1.651-.429 1.651-1.165l-.001-18.061zM115.05 194.415h-2.814c-1.716 0-2.57.553-3.125 3.307h-.613c.217-1.683.4-3.336.488-5.02h15.122c.093 1.684.276 3.337.486 5.02h-.612c-.551-2.754-1.405-3.307-3.123-3.307h-2.816v15.669c0 1.041.367 1.594 1.928 1.779v.425c-1.197 0-2.511-.182-3.429-.182s-2.234.182-3.425.182v-.425c1.558-.187 1.926-.738 1.926-1.779l.007-15.669zM126.683 200.535c0-1.04-.369-1.315-1.407-1.373v-.247c1.35-.396 3.032-.979 4.132-1.373-.061.672-.095 1.716-.095 2.753h.063c.795-1.499 2.295-2.447 3.795-2.447.612 0 .945.126 1.194.247.06.673.126 1.499.126 2.57-.738-.43-1.105-.735-1.994-.735-1.924 0-3.184 1.773-3.184 3.766v7.008c0 .74.795 1.073 1.652 1.166v.426c-1.04-.092-1.866-.183-2.969-.183-1.104 0-1.929.092-2.968.183v-.426c.856-.094 1.651-.427 1.651-1.166v-10.167l.004-.002zM137.058 200.414c0-.762-.336-.946-1.349-1.163-.15-.031-.309-.06-.488-.092v-.247c1.593-.398 3.152-.887 4.624-1.373-.06.979-.151 2.111-.151 3.089v10.069c0 .74.793 1.073 1.65 1.167v.425c-1.039-.092-1.866-.183-2.969-.183-1.104 0-1.93.092-2.968.183v-.425c.855-.094 1.65-.428 1.65-1.167v-10.283h.001zm1.376-8.54c.979 0 1.775.797 1.775 1.778 0 .979-.795 1.771-1.775 1.771a1.772 1.772 0 0 1-1.774-1.771 1.776 1.776 0 0 1 1.774-1.778zM145.537 198.389c1.465-.606 3.058-.852 4.622-.852 3.334 0 5.787 1.406 5.787 5.325v7.22c0 1.014.123 1.718 1.255 1.779v.426c-.646-.06-1.255-.184-1.898-.184-.581 0-1.198.124-1.811.184v-2.904h-.06c-1.04 2.235-2.663 3.215-5.111 3.215-2.661 0-4.498-1.378-4.498-4.131 0-2.479 1.621-3.946 4.742-4.38l4.313-.58c.581-.094.612-.642.612-1.07 0-2.173-1.194-3.184-3.333-3.184-2.053 0-3.519.702-4.473 2.479h-.337l.19-3.343zm3.946 7.198c-2.143.367-3.029 1.256-3.029 2.724 0 1.682 1.162 2.388 2.755 2.388 2.907 0 4.13-3.09 4.13-5.174v-.612l-3.856.674zM160.873 192.636c0-.7-.275-.854-1.104-1.103-.217-.061-.43-.092-.706-.153v-.242c1.441-.399 3.493-.944 4.593-1.375-.063 1.438-.153 2.878-.153 4.315v16.619c0 .736.795 1.073 1.651 1.165v.425c-1.039-.091-1.866-.182-2.969-.182-1.101 0-1.926.092-2.969.182v-.425c.858-.092 1.652-.429 1.652-1.165v-18.062h.005v.001zM167.757 208.342h.367c1.074 2.296 2.908 2.725 4.866 2.725 2.329 0 3.555-.979 3.555-2.327 0-1.592-.767-1.869-4.382-2.604-2.879-.583-4.5-1.808-4.5-3.979 0-2.725 2.356-4.622 6.31-4.622 1.348 0 2.695.367 4.011.578v3.429h-.43c-.551-1.648-2.019-2.478-3.765-2.478-2.203 0-3.675.921-3.675 2.538 0 1.438 1.313 1.808 3.979 2.294 3.215.613 4.716 1.439 4.716 4.13 0 2.879-2.357 4.563-6.367 4.563a9.686 9.686 0 0 1-4.438-1.071l-.247-3.176zM188.999 192.515c.947 0 1.9.184 2.724.184 1.562 0 2.54-.184 3.491-.184v.429c-.672.032-1.775.217-1.775 1.315v11.97c0 3.243 1.958 4.835 4.437 4.835 2.514 0 4.473-1.592 4.473-4.835v-11.97c0-1.103-1.104-1.283-1.773-1.315v-.429c.944 0 1.928.184 3.487.184.829 0 1.778-.184 2.725-.184v.429c-1.255.124-1.438.217-1.438 1.561v11.141c0 4.742-2.754 6.951-7.472 6.951-4.685 0-7.438-2.204-7.438-6.951v-11.141c0-1.348-.185-1.44-1.438-1.561l-.003-.429zM210.852 200.535c0-1.04-.366-1.315-1.406-1.373v-.247c1.35-.396 3.032-.979 4.131-1.373a31.641 31.641 0 0 0-.092 2.447h.061c.795-1.502 2.264-2.447 3.918-2.447 2.939 0 4.897 1.716 4.897 5.385v7.499c0 .921.247 1.316 1.409 1.441v.428c-.582-.061-1.409-.186-2.112-.186-.521 0-1.562.126-2.111.186.06-.609.186-1.316.186-1.992v-7.865c0-2.263-1.166-3-2.604-3-2.021 0-3.643 1.776-3.643 4.38v6.888c0 .736.796 1.072 1.649 1.164v.428c-1.039-.094-1.866-.186-2.968-.186-1.104 0-1.93.094-2.969.186v-.428c.856-.092 1.651-.428 1.651-1.164v-10.169l.003-.002zM228.056 200.414c0-.762-.335-.946-1.348-1.163-.153-.031-.31-.06-.489-.092v-.247c1.592-.398 3.153-.887 4.627-1.373-.063.979-.153 2.111-.153 3.089v10.069c0 .74.794 1.073 1.648 1.167v.425c-1.037-.092-1.865-.183-2.967-.183-1.104 0-1.93.092-2.97.183v-.425c.856-.094 1.652-.428 1.652-1.167v-10.283zm1.38-8.54a1.774 1.774 0 1 1 0 3.549 1.772 1.772 0 0 1-1.774-1.771 1.776 1.776 0 0 1 1.774-1.778zM234.396 197.842h1.99v-2.42c1.163-.399 2.019-1.191 2.631-2.018v4.437h4.164v1.533h-4.164v9.121c0 1.405.245 2.57 1.65 2.57.946 0 1.837-.335 2.632-.92l-.276 1.743c-.919.43-1.898.705-2.905.705-2.788 0-3.735-1.195-3.735-3.826v-9.397h-1.99l.003-1.528z"/></g><path fill="#6A918C" d="M129.002 55.212c22.438 2.012 28.745-16.438 28.745-16.438 3.885-10.296 15.056-9.078 15.056-9.078 15.754 3.022-4.126 21.065-4.126 21.065-14.265 11.562-30.563 9.501-40.497 6.482 0 0-1.244-.3-1.106-1.271-.001.005.053-1.171 1.928-.76zM182.655 10.796c1.313 6.524-2.912 12.885-9.436 14.197-6.516 1.316-12.88-2.906-14.195-9.435-1.313-6.519 2.91-12.883 9.436-14.195 6.519-1.311 12.885 2.91 14.195 9.433z"/><g fill="#6A918C"><path d="M13.507 109.073c4.458-7.21 11.275-11.016 20.195-11.016 14.556 0 20.063 8.653 20.063 25.567v26.095c0 5.51.789 8.265 6.688 9.049v2.1c-3.674-.523-6.426-.921-8.394-.921-1.313 0-3.409.262-6.424.921.789-5.116 1.183-9.703 1.183-13.639v-23.604c0-13.509-3.279-20.063-14.687-20.063-12.59 0-18.492 7.343-18.492 21.896v24.26c0 5.51.789 8.265 6.688 9.052v2.096c-4.855-.658-8.264-.921-10.1-.921-1.834 0-5.376.265-10.228.924v-2.097c5.899-.787 6.688-3.539 6.688-9.052v-39.603c0-4.326-.919-5.374-4.063-5.638l-2.492-.258v-1.969c4.326-.654 8.917-2.492 14.163-5.373-.392 5.113-.788 9.177-.788 12.194zM74.22 111.302c5.639-8.787 12.85-13.242 21.77-13.242 15.08 0 26.885 12.852 26.885 32.388 0 17.573-12.067 31.075-27.538 31.075-8.392 0-15.606-4.197-21.116-12.452v23.603c0 5.509.789 8.13 6.688 9.049v2.097c-4.459-.521-7.74-.916-10.099-.916s-5.771.396-10.229.916v-2.097c5.9-.919 6.688-3.54 6.688-9.049v-62.55c0-4.327-.917-5.375-4.063-5.638l-2.491-.262v-1.969c4.196-.521 8.784-2.492 14.295-5.373-.396 4.455-.79 9.174-.79 14.42zm-.131 18.362c0 16.917 9.703 26.619 20.456 26.619 10.624 0 20.456-9.7 20.456-24.259 0-17.573-9.18-28.582-21.245-28.582-9.703-.005-19.667 9.696-19.667 26.222zM134.279 127.17v3.146c0 13.372 10.621 25.962 25.441 25.962 6.557 0 12.717-3.146 18.621-9.313l-.788 7.607c-5.898 4.982-12.85 7.605-19.932 7.605-17.703 0-31.209-14.163-31.209-32.652 0-18.229 12.85-31.997 28.584-31.997 15.604 0 25.964 10.62 25.964 27.536v2.1l-46.681.006zm39.077-4.852c0-11.669-8.786-19.935-18.227-19.935-10.494 0-19.013 7.739-20.59 20.195h38.815c.002-.127.002-.127.002-.26zM228.952 149.199c-4.458 8.131-11.145 12.326-20.191 12.326-13.77 0-20.063-7.866-20.063-23.472V110.12c0-5.116-1.313-5.771-6.56-5.9v-1.837c4.329-.655 8.787-2.621 14.031-5.51-.521 2.359-.521 5.115-.521 8.266V136.747c0 12.979 3.673 19.272 14.559 19.272 12.191 0 18.484-7.998 18.484-23.996v-21.899c0-5.116-1.18-5.771-6.422-5.899v-1.835c4.326-.656 8.786-2.621 14.029-5.509-.656 3.542-.785 7.605-.785 12.193v40.649c0 5.512.785 8.266 6.688 9.051v2.1c-2.886-.788-5.639-.92-8.391-.92-2.232 0-4.064.261-5.771.92.652-3.28.786-7.215.913-11.675z"/></g><path fill="#23605A" d="M187.31 46.24c-8.721 17.356-27.081 41.752-62.06 44.659 0 0-36.999 3.34-32.169-22.371 0 0 3.966-18.974 28.65-7.275 0 0 35.252 17.709 62.611-16.921 0 0 1.146-1.626 2.536-.666.002-.001 1.266.903.432 2.574zM153.525 19.777c2.693 13.351-5.957 26.353-19.294 29.041-13.337 2.687-26.336-5.955-29.029-19.309-2.688-13.336 5.957-26.334 19.295-29.02 13.334-2.687 26.337 5.946 29.028 19.288z"/><path fill="#FFF" d="M113.522 61.658c-4.798-1.512-9.588-.721-11.582.792 2.373-.771 6.616-.959 11.242.47 4.598 1.264 8.516 3.284 11.03 3.582-2.229-1.026-5.807-3.492-10.69-4.844zM174.724 31.952c-2.027-.86-4.065-.459-4.966.002 1.098.202 2.764.245 4.555 1.012 1.863.612 2.559 2.019 2.641 3.172.734-.84.064-3.53-2.23-4.186zM176.765 4.468c-3.037-1.987-6.408-1.665-7.932-1.06 1.703.034 4.634.194 7.343 1.954 2.679 1.815 3.957 4.456 4.646 6.01-.026-1.647-1.045-4.876-4.057-6.904zM141.476 6.338c-6.202-4.146-13.181-3.616-16.354-2.347 3.472-.166 9.696.134 15.327 3.892 5.651 3.728 8.342 9.347 9.521 12.618-.045-3.419-2.272-10.058-8.494-14.163z"/></svg>