<?xml version="1.0" encoding="utf-8"?>
<!-- Generator: Adobe Illustrator 22.0.1, SVG Export Plug-In . SVG Version: 6.00 Build 0)  -->
<svg version="1.1" id="Layer_1" xmlns="http://www.w3.org/2000/svg" xmlns:xlink="http://www.w3.org/1999/xlink" x="0px" y="0px"
	 width="837.2px" height="283.5px" viewBox="0 0 837.2 283.5" enable-background="new 0 0 837.2 283.5" xml:space="preserve">
<g>
	<path fill="#BC945C" d="M373.7,236.5c0.6,0.6,0.9,1.5,0.9,2.5v40.1c0,1-0.3,1.8-0.9,2.5c-0.6,0.6-1.4,1-2.4,1c-1,0-1.8-0.3-2.4-0.9
		c-0.6-0.6-0.9-1.4-0.9-2.5v-17.6h-25.8v17.6c0,1-0.3,1.8-0.9,2.5c-0.6,0.6-1.4,1-2.4,1c-1,0-1.8-0.3-2.4-0.9
		c-0.6-0.6-0.9-1.4-0.9-2.5V239c0-1,0.3-1.8,0.9-2.5c0.6-0.6,1.4-1,2.4-1c1,0,1.8,0.3,2.4,1c0.6,0.6,0.9,1.5,0.9,2.5v16.9h25.8V239
		c0-1,0.3-1.8,0.9-2.5c0.6-0.6,1.4-1,2.4-1C372.3,235.6,373.1,235.9,373.7,236.5z"/>
	<path fill="#BC945C" d="M409.6,274.8c0.4,0.5,0.6,1.1,0.6,1.8c0,1.3-0.8,2.3-2.4,3.2c-1.5,0.9-3.2,1.6-5,2
		c-1.8,0.5-3.6,0.7-5.2,0.7c-5.1,0-9.1-1.5-12-4.4c-2.9-2.9-4.4-7-4.4-12.1c0-3.3,0.6-6.2,1.9-8.7c1.3-2.5,3.1-4.5,5.4-5.9
		c2.3-1.4,5-2.1,8-2.1c4.3,0,7.7,1.4,10.2,4.1c2.5,2.8,3.7,6.5,3.7,11.1c0,1.7-0.8,2.6-2.4,2.6h-20.3c0.4,6.8,3.7,10.2,9.8,10.2
		c1.6,0,3-0.2,4.2-0.7s2.4-1,3.7-1.7c0.1-0.1,0.5-0.3,1.1-0.6c0.6-0.3,1.1-0.4,1.5-0.4C408.7,274.1,409.2,274.3,409.6,274.8z
		 M390.5,256.6c-1.5,1.6-2.4,3.9-2.8,6.8h16.9c-0.1-3-0.9-5.3-2.3-6.9c-1.4-1.6-3.3-2.4-5.8-2.4C394.1,254.2,392.1,255,390.5,256.6z
		"/>
	<path fill="#BC945C" d="M439,252.6c2.1,2.1,3.1,5.4,3.1,9.8v17c0,1-0.3,1.8-0.9,2.3c-0.6,0.5-1.4,0.8-2.4,0.8c-1,0-1.7-0.3-2.3-0.9
		c-0.6-0.6-0.9-1.3-0.9-2.3v-2.4c-0.8,1.8-2.1,3.2-3.7,4.2c-1.6,1-3.6,1.5-5.7,1.5c-2.1,0-4-0.4-5.8-1.3c-1.8-0.9-3.1-2-4.1-3.6
		c-1-1.5-1.5-3.2-1.5-5.1c0-2.3,0.6-4.1,1.8-5.5c1.2-1.3,3.2-2.3,6-2.9c2.8-0.6,6.6-0.9,11.4-0.9h1.5v-1.9c0-2.4-0.5-4.2-1.5-5.3
		c-1-1.1-2.6-1.6-4.9-1.6c-1.5,0-3,0.2-4.3,0.6c-1.4,0.4-2.8,1-4.5,1.7c-1.2,0.7-2,1-2.5,1c-0.7,0-1.2-0.2-1.6-0.7
		c-0.4-0.5-0.6-1.1-0.6-1.8c0-0.7,0.2-1.2,0.6-1.7c0.4-0.5,1-1,1.8-1.5c1.5-0.8,3.3-1.5,5.4-2s4-0.8,6-0.8
		C433.8,249.4,437,250.4,439,252.6z M433.4,275.2c1.5-1.6,2.3-3.8,2.3-6.3v-1.7h-1.2c-3.4,0-6,0.2-7.9,0.5c-1.8,0.3-3.1,0.8-3.9,1.5
		c-0.8,0.7-1.2,1.8-1.2,3.1c0,1.6,0.6,2.9,1.7,3.9c1.1,1,2.6,1.5,4.3,1.5C429.9,277.7,431.9,276.9,433.4,275.2z"/>
	<path fill="#BC945C" d="M450.6,281.7c-0.6-0.5-1-1.3-1-2.4v-40.5c0-1.1,0.3-1.8,1-2.4s1.4-0.8,2.4-0.8c1,0,1.7,0.3,2.4,0.8
		s0.9,1.3,0.9,2.4v40.5c0,1-0.3,1.8-0.9,2.4c-0.6,0.5-1.4,0.8-2.4,0.8C452,282.5,451.2,282.2,450.6,281.7z"/>
	<path fill="#BC945C" d="M481.7,278.2c0.4,0.4,0.6,1,0.6,1.7c0,0.9-0.3,1.5-1,2c-0.7,0.5-1.7,0.6-3,0.6l-1.8-0.1
		c-3.5-0.3-6.2-1.3-7.9-3.2c-1.7-1.9-2.6-4.7-2.6-8.4v-15.4H462c-1.9,0-2.9-0.9-2.9-2.6c0-0.8,0.3-1.4,0.8-1.9
		c0.5-0.5,1.2-0.7,2.1-0.7h3.9v-6.8c0-1,0.3-1.8,0.9-2.4c0.6-0.6,1.4-0.9,2.4-0.9c1,0,1.8,0.3,2.4,0.9c0.6,0.6,0.9,1.4,0.9,2.4v6.8
		h6.5c0.9,0,1.6,0.2,2.1,0.7c0.5,0.5,0.8,1.1,0.8,1.9c0,0.8-0.3,1.5-0.8,1.9c-0.5,0.4-1.2,0.7-2.1,0.7h-6.5v15.9
		c0,2.1,0.4,3.6,1.3,4.5c0.9,1,2.2,1.5,3.9,1.6l1.8,0.1C480.6,277.5,481.3,277.8,481.7,278.2z"/>
	<path fill="#BC945C" d="M514.2,262.3v17.1c0,1-0.3,1.7-0.9,2.3c-0.6,0.6-1.4,0.9-2.4,0.9c-1,0-1.8-0.3-2.4-0.9
		c-0.6-0.6-0.9-1.3-0.9-2.3v-17c0-2.6-0.5-4.5-1.6-5.8c-1.1-1.2-2.7-1.8-5-1.8c-2.7,0-4.8,0.8-6.4,2.5c-1.6,1.7-2.4,3.9-2.4,6.7
		v15.4c0,1-0.3,1.7-0.9,2.3c-0.6,0.6-1.4,0.9-2.4,0.9c-1,0-1.8-0.3-2.4-0.9c-0.6-0.6-0.9-1.3-0.9-2.3v-40.6c0-1,0.3-1.7,1-2.3
		c0.6-0.6,1.5-0.9,2.5-0.9c1,0,1.7,0.3,2.3,0.8c0.6,0.5,0.9,1.3,0.9,2.2V255c1.1-1.8,2.6-3.2,4.4-4.2c1.8-1,3.9-1.4,6.3-1.4
		C510.4,249.4,514.2,253.7,514.2,262.3z"/>
	<path fill="#BC945C" d="M539.1,281.3c-0.6-0.6-0.9-1.4-0.9-2.4v-39.7c0-1,0.3-1.8,0.9-2.4c0.6-0.6,1.4-0.9,2.5-0.9h24.1
		c1,0,1.8,0.2,2.3,0.7c0.5,0.5,0.8,1.2,0.8,2c0,0.9-0.3,1.5-0.8,2c-0.5,0.5-1.3,0.7-2.3,0.7h-20.9v14.6h19.5c1,0,1.8,0.2,2.3,0.7
		c0.5,0.5,0.8,1.2,0.8,2c0,0.9-0.3,1.6-0.8,2c-0.5,0.5-1.3,0.7-2.3,0.7h-19.5v15.3h20.9c2.1,0,3.1,0.9,3.1,2.7c0,0.9-0.3,1.6-0.8,2
		c-0.5,0.5-1.3,0.7-2.3,0.7h-24.1C540.5,282.2,539.7,281.9,539.1,281.3z"/>
	<path fill="#BC945C" d="M579.8,280.6c-2.3-1.4-4.2-3.3-5.4-5.8c-1.3-2.5-1.9-5.4-1.9-8.7c0-3.3,0.7-6.3,2-8.8
		c1.3-2.5,3.2-4.5,5.6-5.9c2.4-1.4,5.2-2.1,8.3-2.1c1.7,0,3.3,0.2,5,0.7c1.7,0.5,3.2,1.1,4.5,2c1.4,1,2.1,2.1,2.1,3.3
		c0,0.7-0.2,1.4-0.6,1.9s-0.9,0.8-1.5,0.8c-0.4,0-0.8-0.1-1.2-0.3s-0.9-0.5-1.5-0.9c-1.1-0.7-2.1-1.2-3.1-1.6s-2.1-0.6-3.4-0.6
		c-3,0-5.3,1-6.9,3c-1.6,2-2.5,4.8-2.5,8.4c0,3.6,0.8,6.4,2.4,8.3c1.6,1.9,3.9,2.9,6.9,2.9c1.3,0,2.5-0.2,3.5-0.6
		c1-0.4,2-0.9,3.1-1.6c0.5-0.3,1-0.6,1.4-0.8c0.5-0.2,0.9-0.3,1.3-0.3c0.6,0,1.1,0.3,1.5,0.8c0.4,0.5,0.6,1.1,0.6,1.9
		c0,0.6-0.2,1.2-0.5,1.7c-0.3,0.5-0.9,1-1.7,1.5c-1.3,0.9-2.8,1.6-4.6,2c-1.8,0.5-3.5,0.7-5.3,0.7
		C584.8,282.6,582.1,281.9,579.8,280.6z"/>
	<path fill="#BC945C" d="M610,280.6c-2.4-1.4-4.2-3.3-5.5-5.8c-1.3-2.5-1.9-5.4-1.9-8.8c0-3.4,0.6-6.3,1.9-8.8
		c1.3-2.5,3.1-4.4,5.5-5.8c2.4-1.4,5.1-2,8.3-2s5.9,0.7,8.3,2c2.4,1.4,4.2,3.3,5.5,5.8c1.3,2.5,1.9,5.5,1.9,8.8
		c0,3.3-0.6,6.2-1.9,8.8c-1.3,2.5-3.1,4.4-5.5,5.8c-2.4,1.4-5.1,2-8.3,2S612.3,281.9,610,280.6z M625,274.5c1.6-1.9,2.3-4.7,2.3-8.5
		c0-3.7-0.8-6.5-2.4-8.4c-1.6-1.9-3.8-2.9-6.7-2.9s-5.1,1-6.7,2.9c-1.6,1.9-2.4,4.8-2.4,8.4c0,3.7,0.8,6.5,2.3,8.5
		c1.6,1.9,3.8,2.9,6.7,2.9S623.4,276.4,625,274.5z"/>
	<path fill="#BC945C" d="M668.5,262.3v17.1c0,1-0.3,1.8-0.9,2.3c-0.6,0.5-1.4,0.8-2.5,0.8c-1,0-1.8-0.3-2.4-0.9
		c-0.6-0.6-0.9-1.3-0.9-2.3v-16.7c0-2.7-0.5-4.7-1.6-6c-1.1-1.3-2.7-1.9-5-1.9c-2.7,0-4.8,0.8-6.4,2.5c-1.6,1.7-2.4,3.9-2.4,6.7
		v15.4c0,1-0.3,1.7-0.9,2.3c-0.6,0.6-1.4,0.9-2.4,0.9c-1,0-1.8-0.3-2.4-0.9c-0.6-0.6-0.9-1.3-0.9-2.3v-26.7c0-0.9,0.3-1.7,0.9-2.3
		c0.6-0.6,1.4-0.9,2.4-0.9c1,0,1.7,0.3,2.3,0.9c0.6,0.6,0.9,1.3,0.9,2.2v2.7c1.1-1.9,2.5-3.4,4.4-4.4c1.9-1,4-1.5,6.4-1.5
		C664.7,249.4,668.5,253.7,668.5,262.3z"/>
	<path fill="#BC945C" d="M681.6,280.6c-2.4-1.4-4.2-3.3-5.5-5.8c-1.3-2.5-1.9-5.4-1.9-8.8c0-3.4,0.6-6.3,1.9-8.8
		c1.3-2.5,3.1-4.4,5.5-5.8c2.4-1.4,5.1-2,8.3-2c3.1,0,5.9,0.7,8.3,2c2.4,1.4,4.2,3.3,5.5,5.8c1.3,2.5,1.9,5.5,1.9,8.8
		c0,3.3-0.6,6.2-1.9,8.8c-1.3,2.5-3.1,4.4-5.5,5.8c-2.4,1.4-5.1,2-8.3,2C686.7,282.6,683.9,281.9,681.6,280.6z M696.6,274.5
		c1.6-1.9,2.3-4.7,2.3-8.5c0-3.7-0.8-6.5-2.4-8.4c-1.6-1.9-3.8-2.9-6.7-2.9c-2.9,0-5.1,1-6.7,2.9c-1.6,1.9-2.4,4.8-2.4,8.4
		c0,3.7,0.8,6.5,2.3,8.5c1.6,1.9,3.8,2.9,6.7,2.9S695,276.4,696.6,274.5z"/>
	<path fill="#BC945C" d="M758.9,262.3v17.1c0,1-0.3,1.8-0.9,2.3c-0.6,0.5-1.4,0.8-2.4,0.8c-1,0-1.7-0.3-2.4-0.8s-0.9-1.3-0.9-2.3
		v-17c0-2.7-0.5-4.6-1.4-5.8c-1-1.2-2.5-1.8-4.5-1.8c-2.4,0-4.3,0.8-5.7,2.5c-1.4,1.6-2.1,3.9-2.1,6.7v15.4c0,1-0.3,1.8-0.9,2.3
		s-1.4,0.8-2.4,0.8c-1,0-1.7-0.3-2.4-0.8c-0.6-0.5-0.9-1.3-0.9-2.3v-17c0-2.7-0.5-4.6-1.4-5.8c-1-1.2-2.5-1.8-4.5-1.8
		c-2.4,0-4.3,0.8-5.7,2.5c-1.4,1.6-2.1,3.9-2.1,6.7v15.4c0,1-0.3,1.8-0.9,2.3c-0.6,0.5-1.4,0.8-2.4,0.8c-1,0-1.8-0.3-2.4-0.8
		c-0.6-0.5-1-1.3-1-2.3v-26.7c0-1,0.3-1.7,1-2.3c0.7-0.6,1.4-0.9,2.4-0.9c0.9,0,1.7,0.3,2.3,0.8c0.6,0.5,0.9,1.3,0.9,2.3v2.4
		c1-1.8,2.3-3.2,4-4.2c1.7-1,3.7-1.4,5.9-1.4c2.4,0,4.5,0.5,6.1,1.5c1.6,1,2.8,2.6,3.6,4.7c1-1.9,2.4-3.4,4.3-4.5
		c1.9-1.1,4-1.7,6.4-1.7C755.3,249.4,758.9,253.7,758.9,262.3z"/>
	<path fill="#BC945C" d="M766.7,242c-0.7-0.7-1.1-1.6-1.1-2.8c0-1.1,0.4-2,1.1-2.7c0.7-0.7,1.7-1,3-1c1.2,0,2.2,0.3,3,1
		c0.8,0.7,1.1,1.6,1.1,2.7c0,1.1-0.4,2.1-1.1,2.8c-0.7,0.7-1.7,1.1-3,1.1C768.4,243.1,767.4,242.7,766.7,242z M767.3,281.7
		c-0.6-0.5-1-1.3-1-2.4v-26.6c0-1.1,0.3-1.8,1-2.4c0.6-0.5,1.4-0.8,2.4-0.8c1,0,1.7,0.3,2.4,0.8c0.6,0.5,0.9,1.3,0.9,2.4v26.6
		c0,1-0.3,1.8-0.9,2.4c-0.6,0.5-1.4,0.8-2.4,0.8C768.7,282.5,767.9,282.2,767.3,281.7z"/>
	<path fill="#BC945C" d="M786.2,280.6c-2.3-1.4-4.2-3.3-5.4-5.8c-1.3-2.5-1.9-5.4-1.9-8.7c0-3.3,0.7-6.3,2-8.8
		c1.3-2.5,3.2-4.5,5.6-5.9c2.4-1.4,5.2-2.1,8.3-2.1c1.7,0,3.3,0.2,5,0.7c1.7,0.5,3.2,1.1,4.5,2c1.4,1,2.1,2.1,2.1,3.3
		c0,0.7-0.2,1.4-0.6,1.9s-0.9,0.8-1.5,0.8c-0.4,0-0.8-0.1-1.2-0.3s-0.9-0.5-1.5-0.9c-1.1-0.7-2.1-1.2-3.1-1.6
		c-0.9-0.4-2.1-0.6-3.4-0.6c-3,0-5.3,1-6.9,3s-2.5,4.8-2.5,8.4c0,3.6,0.8,6.4,2.4,8.3c1.6,1.9,3.9,2.9,6.9,2.9
		c1.3,0,2.5-0.2,3.5-0.6c1-0.4,2-0.9,3.1-1.6c0.5-0.3,1-0.6,1.4-0.8c0.5-0.2,0.9-0.3,1.3-0.3c0.6,0,1.1,0.3,1.5,0.8
		c0.4,0.5,0.6,1.1,0.6,1.9c0,0.6-0.2,1.2-0.5,1.7c-0.3,0.5-0.9,1-1.7,1.5c-1.3,0.9-2.8,1.6-4.6,2c-1.7,0.5-3.5,0.7-5.3,0.7
		C791.2,282.6,788.5,281.9,786.2,280.6z"/>
	<path fill="#BC945C" d="M810.9,279.9c-0.8-0.5-1.3-1-1.7-1.5c-0.3-0.5-0.5-1.1-0.5-1.8c0-0.7,0.2-1.3,0.6-1.8
		c0.4-0.5,0.9-0.7,1.5-0.7c0.6,0,1.5,0.4,2.7,1.1c1.3,0.7,2.6,1.3,3.8,1.7c1.2,0.4,2.8,0.7,4.7,0.7c2.1,0,3.7-0.4,4.9-1.1
		c1.2-0.7,1.8-1.8,1.8-3.1c0-0.9-0.2-1.6-0.7-2.1c-0.5-0.5-1.3-1-2.4-1.4c-1.1-0.4-2.8-0.9-5.1-1.3c-3.8-0.8-6.6-2-8.3-3.4
		c-1.7-1.4-2.5-3.4-2.5-5.8c0-1.9,0.5-3.6,1.6-5.1c1.1-1.5,2.6-2.7,4.5-3.5c1.9-0.8,4.1-1.2,6.6-1.2c1.7,0,3.5,0.2,5.1,0.7
		c1.7,0.5,3.1,1.1,4.4,2c1.4,1,2.2,2.1,2.2,3.3c0,0.7-0.2,1.3-0.6,1.8c-0.4,0.5-0.9,0.7-1.5,0.7c-0.4,0-0.8-0.1-1.2-0.3
		c-0.4-0.2-0.9-0.5-1.6-0.9c-1.2-0.7-2.3-1.2-3.3-1.6c-1-0.4-2.3-0.6-3.8-0.6c-1.8,0-3.3,0.4-4.4,1.2c-1.1,0.8-1.7,1.9-1.7,3.2
		c0,1.2,0.5,2.2,1.5,2.9c1,0.7,3,1.3,5.8,1.9c2.9,0.6,5.2,1.3,6.9,2.1c1.7,0.8,2.9,1.8,3.6,2.9c0.7,1.2,1.1,2.6,1.1,4.4
		c0,2.8-1.2,5.1-3.6,6.9c-2.4,1.7-5.6,2.6-9.5,2.6C817.4,282.6,813.8,281.7,810.9,279.9z"/>
</g>
<path fill="#BC945C" d="M335,202.1c0-2.3,1.9-4.2,4.2-4.2h491.4c2.3,0,4.2,1.9,4.2,4.2c0,2.3-1.9,4.2-4.2,4.2H339.2
	C336.9,206.3,335,204.4,335,202.1"/>
<path fill="#604877" d="M446.8,28.9c1.8,1.9,2.6,4.3,2.6,7.3v119.5c0,3-0.9,5.4-2.7,7.3c-1.8,1.9-4.2,2.8-7,2.8
	c-3.4,0-6-1.3-7.8-3.9L355.2,60.8v94.9c0,3-0.9,5.4-2.6,7.3c-1.8,1.9-4.1,2.8-6.9,2.8c-2.9,0-5.2-0.9-6.8-2.7
	c-1.7-1.8-2.5-4.3-2.5-7.4V36.2c0-3,0.9-5.4,2.7-7.3c1.8-1.9,4.2-2.8,7-2.8c3.4,0,6,1.3,7.8,3.9l76.7,101.3V36.2
	c0-3,0.8-5.4,2.5-7.3c1.7-1.9,4-2.8,6.8-2.8C442.7,26,445.1,27,446.8,28.9"/>
<path fill="#604877" d="M484.3,163.1c-1.8-1.8-2.7-4.3-2.7-7.4V36.8c0-3,0.9-5.4,2.6-7.1c1.8-1.8,4.2-2.6,7.3-2.6h47.1
	c14.6,0,25.9,3.6,34,10.8c8.1,7.2,12.1,17.3,12.1,30.5c0,13-4,23.2-12.1,30.5c-8.1,7.3-19.4,11-34,11h-37v46c0,3.1-0.9,5.6-2.6,7.4
	c-1.8,1.8-4.3,2.7-7.5,2.7C488.5,165.9,486.1,165,484.3,163.1 M536.5,93.5c19.3,0,28.9-8.4,28.9-25.2c0-16.7-9.7-25-28.9-25h-34.8
	v50.3H536.5z"/>
<path fill="#604877" d="M611.7,162.3c-1.8-1.8-2.6-4.1-2.6-7.1V36.8c0-3,0.9-5.4,2.6-7.1c1.8-1.8,4.2-2.6,7.3-2.6h72
	c3,0,5.3,0.7,6.9,2.2c1.6,1.4,2.4,3.5,2.4,6.1c0,2.6-0.8,4.6-2.4,6c-1.6,1.4-3.9,2.1-6.9,2.1h-62.2v43.4h58.3c3,0,5.3,0.7,6.9,2.2
	c1.6,1.4,2.4,3.5,2.4,6.1c0,2.6-0.8,4.6-2.4,6.1c-1.6,1.4-3.9,2.2-6.9,2.2h-58.3v45.6H691c6.3,0,9.4,2.7,9.4,8
	c0,2.6-0.8,4.6-2.4,6.1c-1.6,1.4-3.9,2.2-6.9,2.2h-72C615.9,164.9,613.5,164,611.7,162.3"/>
<path fill="#604877" d="M736.8,152.2c-9.5-9.5-14.3-23.5-14.3-42.1V36.2c0-3.1,0.9-5.6,2.7-7.4c1.8-1.8,4.2-2.7,7.2-2.7
	c3,0,5.4,0.9,7.2,2.7c1.8,1.8,2.7,4.3,2.7,7.4v75.3c0,12.6,3,22.2,9.1,28.8c6.1,6.5,15.1,9.8,27.1,9.8c11.9,0,20.9-3.3,27-9.8
	c6.1-6.5,9.2-16.1,9.2-28.8V36.2c0-3,0.9-5.4,2.7-7.3c1.8-1.9,4.2-2.8,7.2-2.8c3,0,5.4,0.9,7.2,2.7c1.8,1.8,2.7,4.3,2.7,7.4v73.9
	c0,18.4-4.8,32.4-14.4,42c-9.6,9.6-23.5,14.4-41.8,14.4C760.3,166.5,746.3,161.7,736.8,152.2"/>
<path fill="#604877" d="M178.8,77.3c0-42.7-34.6-77.3-77.3-77.3C58.7,0,24.1,34.6,24.1,77.3c0,42.7,34.6,77.3,77.3,77.3
	C144.2,154.7,178.8,120.1,178.8,77.3"/>
<path fill="#BC945C" d="M283.4,65.4c5.8-14.7-1.4-31.4-16.1-37.2c-14.7-5.8-31.4,1.4-37.2,16.1c-5.8,14.7,1.4,31.4,16.1,37.2
	C261,87.4,277.6,80.2,283.4,65.4"/>
<path fill="#BC945C" d="M158.7,191.1c8.6,1.1,36.5,4.4,74-18.2c27.8-16.7,46-41.1,47.8-55.6c1.7-11.7-6.5-22.6-18.2-24.2
	c-5-0.7-9.1,0.3-13.8,2.7c-14.6,7.6-18.1,34.5-31.7,54.5c-20.2,29.6-45.4,30.7-57.5,31.2c-2.6,0-4.8,2.1-4.8,4.8
	C154.5,188.8,156.4,190.8,158.7,191.1"/>
<path fill="#604877" d="M275.9,153.9c-12.7,15.7-51,50-97.4,50c-46.5,0-69.5-23.3-104.2-37.7c-27.2-11.5-58.6,1.3-70.1,28.5
	c-8.5,20.1-3.7,42.5,10.4,57.4c23.7,26,71.9,44.8,150.1,18.8c78.2-26,116.1-100.9,121.5-110.7c1.5-3,0.2-6.5-2.8-8
	C280.7,150.9,277.6,151.7,275.9,153.9"/>
<polygon fill="none" points="824.8,257.8 837.2,257.8 837.2,257.8 824.8,257.8 "/>
</svg>
