<svg xmlns="http://www.w3.org/2000/svg" viewBox="0 0 834.8 283.5"><g fill="#BC945C"><path d="M347.4 281.3c-3-.9-5.4-2.2-7.2-3.8-.8-.7-1.2-1.6-1.2-2.7 0-.8.2-1.5.7-2 .4-.5 1-.8 1.6-.8.6 0 1.4.3 2.2.9 3.9 2.9 8.3 4.3 13.3 4.3 3.5 0 6.2-.7 8.1-2 1.9-1.3 2.8-3.2 2.8-5.6 0-1.9-.9-3.4-2.6-4.3-1.7-1-4.5-1.9-8.4-2.8-3.7-.8-6.7-1.7-9-2.7-2.4-1-4.2-2.4-5.5-4.1-1.3-1.7-2-3.9-2-6.6 0-2.7.7-5 2.2-7.1 1.5-2.1 3.5-3.7 6.1-4.9 2.6-1.2 5.6-1.7 9-1.7 3.1 0 6 .4 8.6 1.3 2.6.9 4.9 2.2 6.7 3.9.9.7 1.3 1.6 1.3 2.7 0 .7-.2 1.4-.7 2-.5.6-1 .9-1.6.9-.6 0-1.3-.3-2.2-.9-2-1.5-3.9-2.6-5.7-3.3-1.8-.7-3.9-1-6.4-1-3.4 0-6 .7-7.9 2.1-1.9 1.4-2.8 3.3-2.8 5.7 0 2.1.8 3.7 2.5 4.8 1.7 1.1 4.3 2 8 2.9 3.8.9 7 1.8 9.3 2.7 2.4.9 4.3 2.2 5.7 3.9 1.4 1.6 2.1 3.7 2.1 6.3 0 2.6-.7 5-2.2 7-1.5 2-3.5 3.6-6.2 4.7-2.6 1.1-5.7 1.7-9.1 1.7-3.4-.1-6.5-.6-9.5-1.5zM419.4 236.5c.6.6.9 1.5.9 2.5v40.1c0 1-.3 1.8-.9 2.5-.6.6-1.4 1-2.4 1s-1.8-.3-2.4-.9c-.6-.6-.9-1.4-.9-2.5v-17.6h-25.8v17.6c0 1-.3 1.8-.9 2.5-.6.6-1.4 1-2.4 1s-1.8-.3-2.4-.9c-.6-.6-.9-1.4-.9-2.5V239c0-1 .3-1.8.9-2.5.6-.6 1.4-1 2.4-1s1.8.3 2.4 1c.6.6.9 1.5.9 2.5v16.9h25.8V239c0-1 .3-1.8.9-2.5.6-.6 1.4-1 2.4-1 1 .1 1.8.4 2.4 1zM430.4 281.3c-.6-.6-.9-1.4-.9-2.4v-39.7c0-1 .3-1.8.9-2.4.6-.6 1.4-.9 2.5-.9H457c1 0 1.8.2 2.3.7s.8 1.2.8 2c0 .9-.3 1.5-.8 2s-1.3.7-2.3.7h-20.9v14.6h19.5c1 0 1.8.2 2.3.7.5.5.8 1.2.8 2 0 .9-.3 1.6-.8 2-.5.5-1.3.7-2.3.7h-19.5v15.3H457c2.1 0 3.1.9 3.1 2.7 0 .9-.3 1.6-.8 2-.5.5-1.3.7-2.3.7h-24.1c-1.1.2-1.9-.1-2.5-.7zM467.2 281.3c-.6-.6-.9-1.4-.9-2.4v-39.7c0-1 .3-1.8.9-2.4.6-.6 1.4-.9 2.5-.9h24.1c1 0 1.8.2 2.3.7.5.5.8 1.2.8 2 0 .9-.3 1.5-.8 2s-1.3.7-2.3.7h-20.9v14.6h19.5c1 0 1.8.2 2.3.7.5.5.8 1.2.8 2 0 .9-.3 1.6-.8 2-.5.5-1.3.7-2.3.7h-19.5v15.3h20.9c2.1 0 3.1.9 3.1 2.7 0 .9-.3 1.6-.8 2-.5.5-1.3.7-2.3.7h-24.1c-1.1.2-1.9-.1-2.5-.7zM539.8 279.8c0 .8-.3 1.5-.9 2-.6.5-1.4.8-2.2.8-1.2 0-2.2-.5-3-1.6l-8.8-13.6c-1-1.6-2.1-2.7-3.2-3.3-1.1-.6-2.6-.9-4.5-.9h-7.4v16c0 1.1-.3 1.9-.9 2.5-.6.6-1.4.9-2.5.9-1 0-1.8-.3-2.4-.9-.6-.6-.9-1.4-.9-2.5v-39.9c0-1 .3-1.8.9-2.4.6-.6 1.4-.9 2.5-.9h16.3c5.1 0 9 1.1 11.7 3.4 2.7 2.3 4 5.6 4 10 0 3.6-1 6.6-3.1 8.8-2.1 2.3-5 3.7-8.8 4.3 1.1.3 2.2.9 3.1 1.6.9.8 1.8 1.9 2.7 3.3l6.8 10.6c.4.5.6 1.1.6 1.8zM522 257.6c3.4 0 5.9-.7 7.6-2 1.6-1.3 2.5-3.4 2.5-6.2 0-2.8-.8-4.8-2.4-6.1-1.6-1.3-4.2-1.9-7.6-1.9h-12.3v16.3H522z"/></g><path fill="#BC945C" d="M335 202.1c0-2.3 1.9-4.2 4.2-4.2h491.4c2.3 0 4.2 1.9 4.2 4.2 0 2.3-1.9 4.2-4.2 4.2H339.2c-2.3 0-4.2-1.9-4.2-4.2"/><path fill="#604877" d="M446.8 28.9c1.8 1.9 2.6 4.3 2.6 7.3v119.5c0 3-.9 5.4-2.7 7.3-1.8 1.9-4.2 2.8-7 2.8-3.4 0-6-1.3-7.8-3.9L355.2 60.8v94.9c0 3-.9 5.4-2.6 7.3-1.8 1.9-4.1 2.8-6.9 2.8-2.9 0-5.2-.9-6.8-2.7-1.7-1.8-2.5-4.3-2.5-7.4V36.2c0-3 .9-5.4 2.7-7.3 1.8-1.9 4.2-2.8 7-2.8 3.4 0 6 1.3 7.8 3.9l76.7 101.3V36.2c0-3 .8-5.4 2.5-7.3 1.7-1.9 4-2.8 6.8-2.8 2.8-.1 5.2.9 6.9 2.8M484.3 163.1c-1.8-1.8-2.7-4.3-2.7-7.4V36.8c0-3 .9-5.4 2.6-7.1 1.8-1.8 4.2-2.6 7.3-2.6h47.1c14.6 0 25.9 3.6 34 10.8 8.1 7.2 12.1 17.3 12.1 30.5 0 13-4 23.2-12.1 30.5-8.1 7.3-19.4 11-34 11h-37v46c0 3.1-.9 5.6-2.6 7.4-1.8 1.8-4.3 2.7-7.5 2.7-3-.1-5.4-1-7.2-2.9m52.2-69.6c19.3 0 28.9-8.4 28.9-25.2 0-16.7-9.7-25-28.9-25h-34.8v50.3h34.8zM611.7 162.3c-1.8-1.8-2.6-4.1-2.6-7.1V36.8c0-3 .9-5.4 2.6-7.1 1.8-1.8 4.2-2.6 7.3-2.6h72c3 0 5.3.7 6.9 2.2 1.6 1.4 2.4 3.5 2.4 6.1s-.8 4.6-2.4 6c-1.6 1.4-3.9 2.1-6.9 2.1h-62.2v43.4h58.3c3 0 5.3.7 6.9 2.2 1.6 1.4 2.4 3.5 2.4 6.1s-.8 4.6-2.4 6.1c-1.6 1.4-3.9 2.2-6.9 2.2h-58.3v45.6H691c6.3 0 9.4 2.7 9.4 8 0 2.6-.8 4.6-2.4 6.1-1.6 1.4-3.9 2.2-6.9 2.2h-72c-3.2-.5-5.6-1.4-7.4-3.1M736.8 152.2c-9.5-9.5-14.3-23.5-14.3-42.1V36.2c0-3.1.9-5.6 2.7-7.4 1.8-1.8 4.2-2.7 7.2-2.7s5.4.9 7.2 2.7c1.8 1.8 2.7 4.3 2.7 7.4v75.3c0 12.6 3 22.2 9.1 28.8 6.1 6.5 15.1 9.8 27.1 9.8 11.9 0 20.9-3.3 27-9.8 6.1-6.5 9.2-16.1 9.2-28.8V36.2c0-3 .9-5.4 2.7-7.3 1.8-1.9 4.2-2.8 7.2-2.8s5.4.9 7.2 2.7c1.8 1.8 2.7 4.3 2.7 7.4v73.9c0 18.4-4.8 32.4-14.4 42-9.6 9.6-23.5 14.4-41.8 14.4-18 0-32-4.8-41.5-14.3M178.8 77.3c0-42.7-34.6-77.3-77.3-77.3-42.8 0-77.4 34.6-77.4 77.3 0 42.7 34.6 77.3 77.3 77.3 42.8.1 77.4-34.5 77.4-77.3"/><path fill="#BC945C" d="M283.4 65.4c5.8-14.7-1.4-31.4-16.1-37.2-14.7-5.8-31.4 1.4-37.2 16.1-5.8 14.7 1.4 31.4 16.1 37.2 14.8 5.9 31.4-1.3 37.2-16.1M158.7 191.1c8.6 1.1 36.5 4.4 74-18.2 27.8-16.7 46-41.1 47.8-55.6 1.7-11.7-6.5-22.6-18.2-24.2-5-.7-9.1.3-13.8 2.7-14.6 7.6-18.1 34.5-31.7 54.5-20.2 29.6-45.4 30.7-57.5 31.2-2.6 0-4.8 2.1-4.8 4.8 0 2.5 1.9 4.5 4.2 4.8"/><path fill="#604877" d="M275.9 153.9c-12.7 15.7-51 50-97.4 50-46.5 0-69.5-23.3-104.2-37.7-27.2-11.5-58.6 1.3-70.1 28.5-8.5 20.1-3.7 42.5 10.4 57.4 23.7 26 71.9 44.8 150.1 18.8 78.2-26 116.1-100.9 121.5-110.7 1.5-3 .2-6.5-2.8-8-2.7-1.3-5.8-.5-7.5 1.7"/></svg>