<svg xmlns="http://www.w3.org/2000/svg" viewBox="0 0 257 141"><path fill="#6C6F70" d="M82.813 101.161c-16.732 0-30.295-13.563-30.296-30.293-.001-16.732 13.562-30.295 30.295-30.295l.001-38.557c-38.028 0-68.854 30.824-68.854 68.852 0 38.024 30.826 68.85 68.854 68.85 38.024 0 68.852-30.826 68.852-68.85h-38.558c-.001 16.731-13.566 30.293-30.294 30.293"/><text transform="rotate(148.671 25.088 18.338)" fill="#FFF" font-family="'MyriadPro-Regular'" font-size="16.524"></text><text transform="rotate(140.597 21.273 21.155)" fill="#FFF" font-family="'MyriadPro-Regular'" font-size="16.524">E</text><text transform="rotate(129.405 14.314 25.567)" fill="#FFF" font-family="'MyriadPro-Regular'" font-size="16.524">C</text><text transform="rotate(116.686 5.411 31.082)" fill="#FFF" font-family="'MyriadPro-Regular'" font-size="16.524">U</text><text transform="rotate(107.056 -4.182 37.223)" fill="#FFF" font-family="'MyriadPro-Regular'" font-size="16.524"></text><text transform="rotate(97.423 -11.266 41.464)" fill="#FFF" font-family="'MyriadPro-Regular'" font-size="16.525">G</text><text transform="rotate(85.877 -24.455 49.922)" fill="#FFF" font-family="'MyriadPro-Regular'" font-size="16.524">E</text><text transform="rotate(73.787 -40.141 59.256)" fill="#FFF" font-family="'MyriadPro-Regular'" font-size="16.524">N</text><text transform="rotate(60.317 -64.958 74.363)" fill="#FFF" font-family="'MyriadPro-Regular'" font-size="16.524">D</text><text transform="rotate(48.502 -97.33 95.632)" fill="#FFF" font-family="'MyriadPro-Regular'" font-size="16.524">E</text><text transform="rotate(37.646 -142.66 123.554)" fill="#FFF" font-family="'MyriadPro-Regular'" font-size="16.524">R</text><text transform="rotate(29.12 -202.586 165.656)" fill="#FFF" font-family="'MyriadPro-Regular'" font-size="16.524"></text><text transform="rotate(20.156 -314.36 230.141)" fill="#FFF" font-family="'MyriadPro-Regular'" font-size="16.524">C</text><text transform="rotate(7.297 -956.593 624.218)" fill="#FFF" font-family="'MyriadPro-Regular'" font-size="16.524">H</text><text transform="rotate(-4.289 1740.982 -1046.078)" fill="#FFF" font-family="'MyriadPro-Regular'" font-size="16.524">A</text><text transform="rotate(-16.443 485.757 -268.846) skewX(-.002)" fill="#FFF" font-family="'MyriadPro-Regular'" font-size="16.524">R</text><text transform="rotate(-27.773 302.032 -154.906)" fill="#FFF" font-family="'MyriadPro-Regular'" font-size="16.524">T</text><text transform="rotate(-38.549 226.258 -107.508)" fill="#FFF" font-family="'MyriadPro-Regular'" font-size="16.524">E</text><text transform="rotate(-49.355 183.017 -79.944)" fill="#FFF" font-family="'MyriadPro-Regular'" font-size="16.524">R</text><path fill="#163964" d="M172.509 14.637v3.841h3.598v2.829h-3.598v6.608c0 1.813.493 2.767 1.938 2.767.708 0 1.043-.062 1.477-.184l.059 2.888c-.552.215-1.536.4-2.734.4-1.383 0-2.551-.492-3.259-1.261-.8-.861-1.168-2.213-1.168-4.18v-7.039h-2.152v-2.829h2.152v-2.766l3.687-1.074zM197.165 27.023c.096 2.705 2.214 3.874 4.613 3.874 1.751 0 3.011-.247 4.148-.677l.553 2.613c-1.291.523-3.073.953-5.226.953-4.857 0-7.714-3.011-7.714-7.592 0-4.149 2.519-8.055 7.313-8.055 4.89 0 6.455 3.996 6.455 7.286 0 .708-.061 1.262-.123 1.598h-10.019zm6.578-2.641c.031-1.383-.584-3.661-3.105-3.661-2.336 0-3.319 2.122-3.474 3.661h6.579zM209.617 22.934c0-1.721-.029-3.165-.123-4.455h3.32l.184 2.243h.092c.646-1.168 2.276-2.582 4.766-2.582 2.612 0 5.318 1.69 5.318 6.425v8.883h-3.782v-8.454c0-2.15-.796-3.782-2.857-3.782-1.507 0-2.553 1.079-2.952 2.214-.122.338-.152.8-.152 1.229v8.792h-3.813V22.934zM237.933 29.852c0 1.353.063 2.673.216 3.596h-3.413l-.245-1.66h-.091c-.922 1.167-2.491 1.998-4.429 1.998-3.013 0-4.703-2.183-4.703-4.457 0-3.781 3.352-5.688 8.885-5.657v-.245c0-.986-.399-2.613-3.042-2.613-1.477 0-3.014.462-4.028 1.105l-.736-2.458c1.107-.676 3.043-1.323 5.407-1.323 4.796 0 6.18 3.045 6.18 6.302v5.412zm-3.688-3.72c-2.675-.062-5.225.523-5.225 2.798 0 1.475.95 2.15 2.149 2.15 1.507 0 2.613-.984 2.951-2.06.093-.274.124-.583.124-.828v-2.06zM186.395 18.141c-.956 0-1.845.246-2.583.676a5.067 5.067 0 0 0-1.875 1.721h-.061v-7.166h-3.812v20.076h3.812v-8.945c0-.428.031-.83.154-1.137.397-1.136 1.444-2.122 2.92-2.122 2.089 0 2.889 1.631 2.889 3.812v8.392h3.782v-8.822c0-4.795-2.675-6.485-5.226-6.485M160.351 13.37h-4.396l-6.435 20.078h3.901l1.784-5.872h5.735l1.876 5.872h4.058l-6.523-20.078zm-4.532 11.347l1.893-6.239h.667l1.915 6.239h-4.475zM175.457 49.589c1.019.522 2.586 1.042 4.201 1.042 1.738 0 2.658-.72 2.658-1.812 0-1.044-.793-1.641-2.808-2.362-2.784-.971-4.598-2.512-4.598-4.948 0-2.857 2.387-5.047 6.338-5.047 1.892 0 3.281.4 4.277.846l-.847 3.058a7.96 7.96 0 0 0-3.504-.794c-1.642 0-2.438.744-2.438 1.613 0 1.071.946 1.545 3.107 2.365 2.959 1.092 4.352 2.633 4.352 4.994 0 2.808-2.163 5.22-6.763 5.22-1.913 0-3.803-.522-4.747-1.044l.772-3.131zM190.843 53.49l-3.978-16.752h4.053l1.265 6.885c.374 2.014.723 4.177.998 5.865h.047c.276-1.813.673-3.827 1.095-5.892l1.417-6.858h4.028l1.342 7.06c.371 1.963.645 3.753.892 5.618h.053c.249-1.865.62-3.83.969-5.819l1.368-6.858h3.853l-4.326 16.752h-4.101l-1.415-7.207c-.325-1.69-.599-3.258-.798-5.171h-.05c-.299 1.888-.571 3.48-.968 5.171l-1.591 7.207h-4.153zM212.656 49.191l-1.192 4.301h-3.926l5.118-16.754h4.973l5.195 16.754h-4.077l-1.295-4.301h-4.796zm4.252-2.833l-1.043-3.556c-.299-.995-.6-2.238-.846-3.229h-.051c-.249.992-.497 2.259-.771 3.229l-.993 3.556h3.704zM224.333 53.49V36.738h4.423l3.482 6.14a48.358 48.358 0 0 1 2.731 5.742h.076c-.247-2.214-.322-4.476-.322-7.009v-4.873h3.48V53.49h-3.978l-3.579-6.461c-.995-1.79-2.089-3.952-2.908-5.916l-.075.024c.1 2.211.149 4.573.149 7.307v5.046h-3.479z"/><g fill="#6C6F70"><path d="M172.341 65.661c.502.288 1.254.54 2.045.54.992 0 1.543-.465 1.543-1.155 0-.641-.426-1.016-1.505-1.405-1.392-.501-2.284-1.243-2.284-2.459 0-1.38 1.154-2.434 2.986-2.434.917 0 1.594.201 2.033.427l-.377 1.242a3.589 3.589 0 0 0-1.683-.401c-.979 0-1.404.527-1.404 1.017 0 .652.49.953 1.618 1.392 1.469.552 2.185 1.292 2.185 2.51 0 1.355-1.03 2.534-3.213 2.534-.891 0-1.819-.251-2.284-.526l.34-1.282zM180.457 59.525c0 .464-.338.828-.877.828-.516 0-.854-.364-.854-.828 0-.477.35-.841.865-.841.528.001.854.365.866.841zm-1.644 7.817v-6.11h1.557v6.11h-1.557zM182.014 58.433h1.556v8.909h-1.556v-8.909zM186.204 61.231l.991 3.099c.176.539.3 1.029.413 1.531h.038c.111-.502.251-.979.414-1.531l.966-3.099h1.631l-2.333 6.11h-1.518l-2.271-6.11h1.669zM192.515 64.719c.037 1.104.903 1.581 1.882 1.581.716 0 1.23-.1 1.694-.276l.226 1.067c-.527.213-1.256.376-2.134.376-1.982 0-3.149-1.217-3.149-3.086 0-1.694 1.029-3.288 2.986-3.288 1.983 0 2.635 1.631 2.635 2.974 0 .289-.024.514-.05.652h-4.09zm2.684-1.078c.013-.564-.238-1.493-1.267-1.493-.954 0-1.356.865-1.418 1.493h2.685zM197.884 63.201c0-.828-.014-1.417-.051-1.97h1.343l.05 1.167h.05c.303-.865 1.018-1.305 1.67-1.305.15 0 .238.012.363.038v1.456a2.147 2.147 0 0 0-.452-.051c-.739 0-1.241.477-1.38 1.167-.025.138-.05.301-.05.477v3.162h-1.543v-4.141zM206.678 64.946l-.727 2.396h-1.594l2.712-8.457h1.97l2.747 8.457h-1.656l-.766-2.396h-2.686zm2.422-1.167l-.665-2.083c-.162-.515-.301-1.092-.426-1.581h-.025c-.125.489-.252 1.079-.401 1.581l-.653 2.083h2.17zM213.477 61.231l.64 2.773c.139.652.277 1.318.39 1.983h.025c.124-.665.326-1.343.502-1.969l.789-2.786h1.255l.767 2.71c.188.714.351 1.38.489 2.045h.024a28.68 28.68 0 0 1 .4-2.045l.679-2.71h1.518l-1.918 6.11h-1.431l-.729-2.484a19.004 19.004 0 0 1-.465-1.958h-.024a16.18 16.18 0 0 1-.465 1.958l-.778 2.484h-1.441l-1.807-6.11h1.58zM225.296 67.342l-.1-.678h-.038c-.377.477-1.017.815-1.807.815-1.23 0-1.92-.891-1.92-1.819 0-1.543 1.368-2.321 3.625-2.309v-.101c0-.402-.162-1.066-1.241-1.066-.602 0-1.229.188-1.643.452l-.301-1.003c.452-.277 1.241-.54 2.207-.54 1.958 0 2.522 1.243 2.522 2.572v2.208c0 .552.026 1.091.088 1.468h-1.392zm-.201-2.986c-1.091-.025-2.132.213-2.132 1.142 0 .603.389.878.878.878.615 0 1.066-.401 1.204-.84.037-.113.05-.238.05-.339v-.841zM228.22 63.201c0-.828-.014-1.417-.051-1.97h1.342l.05 1.167h.052c.3-.865 1.016-1.305 1.668-1.305.15 0 .238.012.363.038v1.456a2.144 2.144 0 0 0-.451-.051c-.74 0-1.242.477-1.38 1.167-.025.138-.05.301-.05.477v3.162h-1.543v-4.141zM238.192 58.433v7.19c0 .627.025 1.305.051 1.719h-1.38l-.063-.966h-.025c-.363.678-1.105 1.104-1.994 1.104-1.456 0-2.609-1.242-2.609-3.124-.013-2.046 1.267-3.263 2.733-3.263.842 0 1.442.352 1.721.803h.024v-3.463h1.542zm-1.542 5.346a2.17 2.17 0 0 0-.038-.401c-.138-.603-.627-1.092-1.33-1.092-.99 0-1.544.878-1.544 2.02 0 1.117.554 1.933 1.532 1.933.626 0 1.18-.427 1.33-1.092.037-.138.05-.288.05-.451v-.917z"/></g><path fill="#9A9A9B" d="M110.706 20.597l18.936-7.517s2.823-1.58 7.76 6.934c4.935 8.51 8.315 13.38 8.315 13.38s3.945 5.455 7.061 4.333c3.114-1.122-19.416 7.708-19.416 7.708s-3.428.898-7.098-6.389c-3.673-7.288-5.782-10.361-7.052-12.161-1.272-1.795-4.735-7.439-8.506-6.288"/><g opacity=".4"><path fill="none" d="M126.196 35.067h8.738V45.47h-8.738z"/><path fill="#6F6F72" d="M126.196 38.916l.067.132c3.027 6.007 5.886 6.451 6.796 6.423l1.875-10.403c-.876 3.302-5.968 3.713-8.738 3.848"/></g><path fill="#838384" d="M133.198 31.155l-2.926 20.163s-.04 3.232-9.877 3.268c-9.84.036-15.747.535-15.747.535s-6.696.701-7.277 3.959c-.581 3.26 3.002-20.672 3.002-20.672s.93-3.418 9.077-2.966c8.149.452 11.868.153 14.059-.05 2.19-.207 8.805-.393 9.689-4.237"/><g opacity=".4"><path fill="none" d="M103.593 35.398h12.435v9.679h-12.435z"/><path fill="#6F6F72" d="M115.528 45.077c-2.499-2.249-.648-6.85.5-9.408a147.35 147.35 0 0 1-6.58-.23c-2.639-.145-4.517.114-5.855.534l11.935 9.104z"/></g><path fill="#6F6F72" d="M112.745 45.921l-16.198-12.36s-2.807-1.603 1.945-10.218c4.754-8.617 7.185-14.024 7.185-14.024s2.645-6.189.077-8.282c-2.566-2.092 16.609 12.67 16.609 12.67s2.536 2.474-1.818 9.375c-4.356 6.901-5.904 10.296-6.79 12.308-.885 2.014-3.94 7.89-1.01 10.531"/><g opacity=".4"><path fill="none" d="M110.706 20.008h11.478V28.3h-11.478z"/><path fill="#838384" d="M122.184 20.007l-11.478 4.555c2.567-.785 4.993 1.582 6.679 3.739a147.54 147.54 0 0 1 3.161-5.218c.721-1.147 1.251-2.165 1.638-3.076"/></g><path fill="#9A9A9B" d="M119.212 26.886c.805 1.14 1.951 2.803 3.617 5.719 3.743-5.278 8.699-9.665 15.231-11.459a171.52 171.52 0 0 1-.659-1.135c-4.937-8.509-7.76-6.929-7.76-6.929l-18.936 7.517c3.772-1.153 7.235 4.489 8.507 6.287"/></svg>