<svg xmlns="http://www.w3.org/2000/svg" viewBox="0 0 612.792 212.599"><path d="M9.354 93.5H20.39l9.291 33.049h.125l7.11-33.049h8.229l-9.416 43.523H24.507l-9.105-33.36h-.125l-6.921 33.36H0L9.354 93.5zM65.224 132.097h-.125c-2.868 3.617-5.736 5.675-10.351 5.675-5.8 0-9.915-3.242-9.915-9.167 0-10.601 11.847-11.41 19.704-11.41h2.93c.25-.874.25-1.809.25-2.745 0-3.241-3.493-4.178-6.423-4.178-3.678 0-7.233.937-10.538 2.495l1.185-6.672c3.555-1.247 7.172-1.933 10.912-1.933 6.423 0 12.471 2.37 12.471 9.915 0 4.302-3.18 16.898-3.928 22.946H64.35l.874-4.926zm-8.169-.437c6.235 0 8.169-4.302 9.478-9.477h-2.931c-4.054 0-10.787.686-10.787 6.111 0 2.245 2.119 3.366 4.24 3.366zM81.679 104.911h6.048l1.434-6.61 8.98-2.93-2.058 9.541h7.482l-1.309 6.11h-7.482l-3.056 14.03c-.187.748-.375 1.87-.375 3.118 0 1.932 1.31 3.118 3.18 3.118 1.497 0 2.993-.313 4.053-.749l-1.434 6.484c-1.434.313-3.055.749-4.489.749-5.674 0-9.666-2.245-9.666-8.418 0-2.494.5-4.927 1.061-7.482l2.369-10.85h-6.048l1.31-6.111zM109.196 104.911h8.355l-6.858 32.112h-8.356l6.859-32.112zm3.056-13.844h8.354l-1.746 7.981h-8.354l1.746-7.981zM154.203 118.254c0 11.287-7.794 19.518-19.142 19.518-9.104 0-14.591-5.612-14.591-14.653 0-10.726 8.231-18.957 19.019-18.957 8.666 0 14.714 5.238 14.714 14.092zm-8.729.063c0-4.177-1.434-7.67-6.36-7.67-6.61 0-9.915 7.295-9.915 13.096 0 4.239 1.746 7.545 6.547 7.545 6.485 0 9.728-7.485 9.728-12.971zM163.039 109.525c.375-1.934.687-3.617.811-4.614h8.167l-.56 3.118h.125c2.306-2.121 5.486-3.867 9.104-3.867 6.298 0 10.475 3.929 10.475 10.288 0 2.432-.624 4.989-1.06 6.984l-3.367 15.589h-8.356l3.118-15.151c.437-2.184.936-4.364.936-6.735 0-2.681-1.871-4.49-4.552-4.49-5.8 0-7.919 5.424-8.98 10.226l-3.428 16.15h-8.356l5.923-27.498zM215.105 132.097h-.125c-2.868 3.617-5.736 5.675-10.351 5.675-5.798 0-9.914-3.242-9.914-9.167 0-10.601 11.847-11.41 19.704-11.41h2.93c.25-.874.25-1.809.25-2.745 0-3.241-3.493-4.178-6.423-4.178-3.68 0-7.233.937-10.538 2.495l1.185-6.672c3.555-1.247 7.17-1.933 10.912-1.933 6.423 0 12.471 2.37 12.471 9.915 0 4.302-3.18 16.898-3.929 22.946h-7.045l.873-4.926zm-8.167-.437c6.235 0 8.167-4.302 9.478-9.477h-2.932c-4.052 0-10.787.686-10.787 6.111-.001 2.245 2.12 3.366 4.241 3.366zM238.913 90.257h8.356l-9.915 46.766h-8.356l9.915-46.766zM272.584 93.5h9.104l-9.166 43.523h-9.104l9.166-43.523zM287.387 109.525c.375-1.934.687-3.617.812-4.614h8.167l-.56 3.118h.125c2.308-2.121 5.487-3.867 9.104-3.867 6.296 0 10.477 3.929 10.477 10.288 0 2.432-.624 4.989-1.063 6.984l-3.364 15.589h-8.358l3.118-15.151c.438-2.184.935-4.364.935-6.735 0-2.681-1.869-4.49-4.552-4.49-5.797 0-7.919 5.424-8.979 10.226l-3.428 16.15h-8.356l5.922-27.498zM343.674 111.769c-2.183-.81-4.487-1.497-6.859-1.497-2.493 0-5.611.687-5.611 3.243 0 4.053 10.852 5.551 10.852 13.406 0 8.355-7.295 10.851-14.469 10.851-3.367 0-6.731-.499-9.789-1.933l1.809-6.673c2.369 1.31 4.738 2.493 7.98 2.493 2.808 0 5.739-.935 5.739-3.553 0-5.176-10.852-5.675-10.852-13.718 0-7.546 7.296-10.227 13.905-10.227 3.057 0 6.175.562 9.104 1.309l-1.809 6.299zM350.072 104.911h6.05l1.434-6.61 8.979-2.93-2.059 9.541h7.483l-1.309 6.11h-7.484l-3.057 14.03c-.186.748-.371 1.87-.371 3.118 0 1.932 1.309 3.118 3.179 3.118 1.498 0 2.992-.313 4.052-.749l-1.434 6.484c-1.435.313-3.054.749-4.488.749-5.675 0-9.667-2.245-9.667-8.418 0-2.494.5-4.927 1.06-7.482l2.372-10.85h-6.05l1.31-6.111zM377.589 104.911h8.354l-6.859 32.112h-8.354l6.859-32.112zm3.054-13.844h8.358l-1.748 7.981h-8.354l1.744-7.981zM390.846 104.911h6.047l1.434-6.61 8.982-2.93-2.059 9.541h7.481l-1.31 6.11h-7.481l-3.057 14.03c-.186.748-.374 1.87-.374 3.118 0 1.932 1.309 3.118 3.182 3.118 1.495 0 2.993-.313 4.053-.749l-1.435 6.484c-1.434.313-3.057.749-4.491.749-5.672 0-9.663-2.245-9.663-8.418 0-2.494.499-4.927 1.06-7.482l2.368-10.85h-6.047l1.31-6.111zM441.385 132.409c-.375 1.934-.688 3.617-.81 4.614h-8.169l.56-3.117h-.125c-2.308 2.12-5.486 3.866-9.104 3.866-6.299 0-10.477-3.929-10.477-10.289 0-2.432.624-4.989 1.06-6.983l3.367-15.588h8.358l-3.118 15.152c-.438 2.182-.938 4.364-.938 6.734 0 2.682 1.872 4.49 4.555 4.49 5.797 0 7.916-5.426 8.979-10.228l3.429-16.149h8.354l-5.921 27.498zM452.139 104.911h6.05l1.434-6.61 8.979-2.93-2.059 9.541h7.483l-1.309 6.11h-7.484l-3.054 14.03c-.188.748-.374 1.87-.374 3.118 0 1.932 1.309 3.118 3.179 3.118 1.498 0 2.992-.313 4.052-.749l-1.434 6.484c-1.434.313-3.054.749-4.488.749-5.675 0-9.663-2.245-9.663-8.418 0-2.494.496-4.927 1.06-7.482l2.368-10.85h-6.05l1.31-6.111zM481.423 123.555c0 5.924 3.178 8.104 8.914 8.104 3.432 0 6.735-.872 9.853-2.306l-1.06 6.609c-3.242.998-6.795 1.809-10.227 1.809-9.229 0-15.464-4.49-15.464-14.029 0-9.978 7.733-19.581 18.271-19.581 7.92 0 13.156 4.052 13.156 12.221 0 2.433-.311 4.802-.81 7.172h-22.633zm15.275-5.737c.125-.748.189-1.435.189-2.182 0-3.43-1.809-5.363-5.301-5.363-5.177 0-7.42 3.118-9.043 7.545h14.155zM533.241 111.021h-6.485l1.31-6.11h6.485c1.684-8.169 4.427-15.403 14.154-15.403 1.931 0 3.803.375 5.173.812l-1.931 6.235c-.749-.375-1.684-.562-2.557-.562-4.616 0-5.676 5.55-6.485 8.918h7.483l-1.313 6.11h-7.48l-5.486 26.001h-8.357l5.489-26.001zM583.752 118.254c0 11.287-7.795 19.518-19.143 19.518-9.104 0-14.59-5.612-14.59-14.653 0-10.726 8.229-18.957 19.017-18.957 8.67 0 14.716 5.238 14.716 14.092zm-8.729.063c0-4.177-1.434-7.67-6.36-7.67-6.61 0-9.913 7.295-9.913 13.096 0 4.239 1.744 7.545 6.546 7.545 6.485 0 9.727-7.485 9.727-12.971zM592.402 109.213c.25-1.372.5-2.806.746-4.302h7.983l-1.124 6.048h.125c1.498-3.493 5.611-6.797 9.479-6.797 1.06 0 2.183.062 3.182.312l-1.748 8.169c-.935-.312-2.119-.5-3.179-.5-5.925 0-8.793 5.301-9.853 10.475l-2.992 14.404h-8.355l5.736-27.809zM150.817 168.326h8.729l-3.678 17.583h17.583l3.68-17.583h8.729l-9.104 43.524h-8.729l3.99-19.081h-17.583l-3.992 19.081h-8.729l9.104-43.524zM194.89 198.38c0 5.925 3.18 8.107 8.916 8.107 3.43 0 6.735-.873 9.853-2.308l-1.061 6.61c-3.241.998-6.796 1.809-10.226 1.809-9.228 0-15.464-4.491-15.464-14.03 0-9.978 7.732-19.58 18.27-19.58 7.919 0 13.157 4.052 13.157 12.221 0 2.433-.312 4.802-.811 7.171H194.89zm15.277-5.736c.125-.749.187-1.435.187-2.184 0-3.428-1.809-5.361-5.301-5.361-5.174 0-7.42 3.118-9.042 7.545h14.156zM241.282 206.923h-.125c-2.868 3.617-5.736 5.676-10.351 5.676-5.798 0-9.915-3.243-9.915-9.168 0-10.599 11.849-11.411 19.706-11.411h2.93c.248-.871.248-1.809.248-2.743 0-3.243-3.491-4.178-6.421-4.178-3.68 0-7.234.935-10.54 2.493l1.186-6.671c3.553-1.248 7.17-1.933 10.912-1.933 6.421 0 12.471 2.368 12.471 9.913 0 4.302-3.18 16.898-3.929 22.948h-7.045l.873-4.926zm-8.169-.435c6.235 0 8.169-4.302 9.478-9.478h-2.931c-4.052 0-10.787.685-10.787 6.11 0 2.245 2.121 3.368 4.24 3.368zM265.089 165.083h8.355l-9.914 46.767h-8.356l9.915-46.767zM275.259 179.738h6.048l1.434-6.61 8.98-2.932-2.059 9.542h7.482l-1.309 6.11h-7.482l-3.055 14.03a13.218 13.218 0 0 0-.375 3.117c0 1.934 1.309 3.118 3.18 3.118 1.497 0 2.993-.313 4.052-.749l-1.434 6.485c-1.434.311-3.055.749-4.489.749-5.674 0-9.666-2.247-9.666-8.419 0-2.493.5-4.926 1.061-7.483l2.369-10.849h-6.048l1.311-6.109zM305.893 165.083h8.357l-3.991 17.771h.125c2.308-2.122 5.486-3.866 9.104-3.866 6.296 0 10.477 3.928 10.477 10.288 0 2.433-.624 4.99-1.063 6.984l-3.367 15.589h-8.354l3.117-15.153c.438-2.181.935-4.363.935-6.732 0-2.683-1.869-4.491-4.552-4.491-5.797 0-7.919 5.426-8.979 10.228l-3.429 16.149h-8.357l9.977-46.767zM360.454 168.326h10.288c8.045 0 17.337-.125 17.337 10.288 0 7.484-5.611 11.473-12.721 11.598v.125c2.369.124 3.866 1.622 4.427 3.991l4.178 17.522h-9.165l-2.122-10.228c-.995-4.612-.749-7.855-5.486-7.855h-3.304l-3.806 18.083h-8.729l9.103-43.524zm4.99 18.582h3.179c4.677 0 10.353-1.435 10.353-7.17 0-4.552-3.931-4.552-7.484-4.552h-3.617l-2.431 11.722zM398.099 198.38c0 5.925 3.178 8.107 8.914 8.107 3.432 0 6.735-.873 9.853-2.308l-1.06 6.61c-3.242.998-6.795 1.809-10.227 1.809-9.229 0-15.464-4.491-15.464-14.03 0-9.978 7.733-19.58 18.271-19.58 7.92 0 13.156 4.052 13.156 12.221 0 2.433-.311 4.802-.81 7.171h-22.633zm15.275-5.736c.125-.749.189-1.435.189-2.184 0-3.428-1.809-5.361-5.301-5.361-5.177 0-7.42 3.118-9.043 7.545h14.155zM448.561 186.597c-2.183-.813-4.487-1.498-6.859-1.498-2.493 0-5.611.685-5.611 3.242 0 4.053 10.852 5.551 10.852 13.406 0 8.357-7.295 10.852-14.469 10.852-3.367 0-6.731-.5-9.788-1.934l1.808-6.671c2.369 1.309 4.738 2.493 7.98 2.493 2.808 0 5.739-.935 5.739-3.556 0-5.173-10.852-5.673-10.852-13.717 0-7.545 7.296-10.227 13.905-10.227 3.058 0 6.175.56 9.104 1.309l-1.809 6.301zM459.985 198.38c0 5.925 3.179 8.107 8.915 8.107 3.432 0 6.735-.873 9.853-2.308l-1.06 6.61c-3.242.998-6.796 1.809-10.227 1.809-9.229 0-15.465-4.491-15.465-14.03 0-9.978 7.734-19.58 18.271-19.58 7.92 0 13.156 4.052 13.156 12.221 0 2.433-.311 4.802-.81 7.171h-22.633zm15.275-5.736c.125-.749.188-1.435.188-2.184 0-3.428-1.809-5.361-5.301-5.361-5.176 0-7.42 3.118-9.042 7.545h14.155zM506.377 206.923h-.125c-2.868 3.617-5.736 5.676-10.353 5.676-5.797 0-9.913-3.243-9.913-9.168 0-10.599 11.847-11.411 19.705-11.411h2.93c.249-.871.249-1.809.249-2.743 0-3.243-3.492-4.178-6.421-4.178-3.682 0-7.234.935-10.538 2.493l1.185-6.671c3.554-1.248 7.17-1.933 10.912-1.933 6.421 0 12.472 2.368 12.472 9.913 0 4.302-3.183 16.898-3.932 22.948h-7.045l.874-4.926zm-8.169-.435c6.235 0 8.169-4.302 9.478-9.478h-2.932c-4.053 0-10.787.685-10.787 6.11 0 2.245 2.122 3.368 4.241 3.368zM526.006 184.04c.25-1.373.499-2.808.749-4.302h7.98l-1.121 6.046h.125c1.495-3.492 5.611-6.795 9.479-6.795 1.06 0 2.18.063 3.179.311l-1.745 8.169c-.938-.311-2.122-.5-3.182-.5-5.925 0-8.793 5.301-9.853 10.478l-2.993 14.404h-8.354l5.736-27.811zM571.25 187.093c-1.62-1.06-3.803-1.62-6.11-1.62-6.671 0-10.413 6.236-10.413 12.286 0 4.177 1.373 8.354 7.109 8.354 2.059 0 4.612-.561 6.796-1.623l-.935 6.61c-2.558 1.248-5.301 1.498-8.044 1.498-8.294 0-13.656-5.551-13.656-13.845 0-11.223 7.42-19.766 18.957-19.766 3.117 0 6.11.56 8.354 1.248l-2.058 6.858zM582.799 165.083h8.354l-3.992 17.771h.125c2.309-2.122 5.49-3.866 9.104-3.866 6.3 0 10.478 3.928 10.478 10.288 0 2.433-.624 4.99-1.06 6.984l-3.367 15.589h-8.355l3.118-15.153c.436-2.181.935-4.363.935-6.732 0-2.683-1.872-4.491-4.552-4.491-5.8 0-7.919 5.426-8.979 10.228l-3.432 16.149h-8.354l9.977-46.767z"/><path fill="#2B72B2" d="M425.181 0h184.694v74.749H425.181z"/><path fill="#FFF" d="M443.24 7.214h20.086l12.324 41.722h.174l8.449-41.722h15.172l-12.761 60.169h-19.997L454.1 25.747h-.171l-8.36 41.636h-15.175zM505.381 7.214h16.122l-4.741 23.016h19.048l4.741-23.016h16.121l-12.498 60.169h-16.122l5.344-25.774h-19.048l-5.347 25.774h-16.118zM599.083 20.834c-3.103-1.466-7.329-2.758-13.275-2.758-6.379 0-11.552.947-11.552 5.774 0 8.534 23.362 5.345 23.362 23.619 0 16.638-15.434 20.947-29.396 20.947-6.208 0-13.36-1.464-18.618-3.103l3.79-12.241c3.188 2.069 9.569 3.448 14.828 3.448 4.999 0 12.846-.948 12.846-7.155 0-9.655-23.362-6.033-23.362-23.015 0-15.517 13.619-20.172 26.809-20.172 7.414 0 14.396.776 18.445 2.673l-3.877 11.983z"/></svg>