<svg xmlns="http://www.w3.org/2000/svg" viewBox="0 0 921.261 283.465"><path fill="#001C54" d="M0 0h921.261v283.465H0z"/><g fill="#FFF"><path d="M317.67 92.935c-2.279 2.28-5.85 4.066-11.211 4.066-4.373 0-8.564-1.355-11.395-4.188-3.697-3.697-3.574-8.378-3.574-12.443V55.113h5.545v25.873c0 3.142-.125 6.221 2.342 8.685 1.662 1.664 4.248 2.588 7.266 2.588 3.02 0 5.299-1.047 6.777-2.525 2.771-2.773 2.527-5.914 2.527-12.874V55.113h5.422v20.883c0 7.639.246 12.998-3.699 16.939zM360.965 96.201L341.562 63.49l.123 32.711h-5.053V55.113h5.48l19.408 32.834-.123-32.834h5.047v41.088h-5.479zM383.023 96.201V55.113h5.543v41.088h-5.543zM419.375 96.201h-6.098l-14.168-41.088h5.728l11.641 35.42 11.953-35.42h5.357l-14.413 41.088zM444.556 96.201V55.113h22.734v4.559h-17.312v12.936h16.264v4.435h-16.264V91.52h17.803v4.682h-23.225zM502.925 96.201l-4.744-10.719c-2.834-6.345-4.191-6.899-9.734-6.899h-2.588v17.618h-5.42V55.113h9.115c5.484 0 9.734-.061 13.061 3.266 2.033 2.031 3.205 4.743 3.205 8.192 0 2.834-.803 5.235-2.525 7.084-1.479 1.602-3.885 2.957-6.592 3.265 1.355.062 2.707.862 3.512 1.663 1.231 1.233 2.094 3.204 3.201 5.729l5.301 11.889h-5.792zm-4.375-34.558c-2.217-2.219-5.111-2.156-8.439-2.156h-4.252v14.722h1.914c3.938 0 7.943.124 10.531-2.464 1.293-1.293 2.033-3.202 2.033-5.174 0-2.219-.865-4.004-1.787-4.928zM529.882 97.063c-7.271 0-12.137-3.942-12.629-4.436l2.648-3.819c.738.493 4.742 3.512 9.734 3.512 5.049 0 8.008-3.019 8.008-6.776 0-4.497-5.031-6.714-9.467-8.87-5.236-2.526-9.752-5.236-9.752-11.273 0-6.53 5.295-11.088 12.871-11.088 7.58 0 11.338 3.758 11.707 4.189l-2.775 3.573c-.49-.431-3.756-3.08-8.561-3.08-4.496 0-7.699 2.218-7.699 5.913 0 3.881 3.635 5.318 7.699 7.414 3.635 1.847 11.703 4.66 11.703 12.73.002 6.775-4.987 12.011-13.487 12.011zM556.361 96.201V55.113h5.545v41.088h-5.545zM590.214 59.672v36.529h-5.543V59.672h-12.076v-4.559h29.631v4.559h-12.012zM626.148 79.938v16.263h-5.482V79.938l-12.998-24.825h6.059l10.021 19.334 9.828-19.334h5.572l-13 24.825zM685.117 97.002c-10.84 0-18.662-8.809-18.662-21.252 0-12.69 7.762-21.438 18.975-21.438 10.963 0 18.602 8.748 18.602 21.13-.001 12.812-7.701 21.56-18.915 21.56zm-.063-38.008c-7.822 0-12.934 6.592-12.934 16.632 0 9.98 5.731 16.633 13.244 16.633 8.561 0 12.998-7.331 12.998-17.002.001-9.795-5.482-16.263-13.308-16.263zM722.656 59.672v12.936h15.77v4.435h-15.77v19.158h-5.482V55.113h22.238v4.559h-16.756zM374.759 176.957c0 26.314-20.266 45.373-45.611 45.373-25.805 0-45.611-19.303-45.611-44.402 0-26.293 20.293-45.367 45.611-45.367 25.838-.001 45.611 19.286 45.611 44.396zm-14.683.482c0-23.891-11.352-40.036-30.928-40.036-21.227 0-30.877 19.536-30.877 40.036 0 23.902 11.344 40.133 30.877 40.133 21.262 0 30.928-19.582 30.928-40.133zM653.288 176.957c0 26.314-20.273 45.373-45.613 45.373-25.803 0-45.613-19.303-45.613-44.402 0-26.293 20.283-45.367 45.613-45.367 25.817-.001 45.613 19.286 45.613 44.396zm-14.709.482c0-23.891-11.344-40.036-30.904-40.036-21.244 0-30.891 19.536-30.891 40.036 0 23.902 11.342 40.133 30.891 40.133 21.237 0 30.904-19.582 30.904-40.133zM688.527 177.681h10.855c16.414 0 19.805-10.082 19.805-20 0-7.428-3.148-13.492-10.859-16.879-4.119-1.695-7.979-1.932-13.279-1.932h-6.521v38.811h-.001zm19.801 14.301c-5.072-7.27-7.006-9.457-13.279-9.457h-6.521v29.002c0 2.426.725 3.619 3.621 4.115l9.9 1.93v3.408h-39.086v-3.408l8.918-1.93c2.906-.738 3.606-1.69 3.606-4.115v-68.051c0-2.428-.94-3.647-3.606-4.129l-8.918-1.944v-3.378h38.117c7.977 0 13.522.717 18.107 2.418 9.402 3.621 14.705 12.59 14.705 20.988 0 10.645-7.949 19.525-21.23 22.676v.492c2.666 1.195 4.103 2.918 13.521 15.242l12.068 15.685c1.68 2.426 3.621 4.115 6.744 4.606l8.219 1.439v3.408h-20.988c-2.424 0-3.637-.738-5.803-3.658l-18.095-25.339zM538.17 163.97h4.103v28.752h-4.103l-1.697-8.26c-.699-3.133-2.635-4.355-5.543-4.355h-20.988v31.42c0 2.426.727 3.619 3.605 4.115l9.916 1.93v3.408H484.35v-3.408l8.916-1.93c2.912-.738 3.639-1.69 3.639-4.115v-68.051c0-2.428-.973-3.647-3.639-4.129l-8.916-1.944v-3.378h65.891v21.707h-4.092l-3.391-12.256c-.965-3.412-2.908-4.605-5.799-4.605h-27.018v36.385h20.988c2.908 0 4.844-1.137 5.543-4.262l1.698-7.024zM760.21 220.98v-3.408l8.922-1.93c2.902-.738 3.629-1.69 3.629-4.115v-68.051c0-2.428-.969-3.647-3.629-4.129l-8.922-1.944v-3.378h40.795c11.096 0 19.066 1.432 25.563 4.355 16.428 7.518 23.898 23.656 23.898 39.547 0 15.498-5.771 29.945-20.506 37.715-6.756 3.613-16.164 5.338-28.471 5.338H760.21zm25.352-82.109v73.361c0 3.16.717 3.9 3.859 3.9h10.615c10.131 0 17.615-1.229 22.928-5.094 8.938-6.537 12.795-17.842 12.795-32.865 0-14.697-3.857-28.656-15.928-35.684-5.092-2.902-11.59-3.619-21.728-3.619h-12.541v.001zM409.05 217.572v3.408h-31.148v-3.408l7.719-1.686c2.897-.74 5.076-1.685 6.781-3.902l26.08-33.318-26.08-35.19c-1.705-2.428-3.885-3.647-6.535-4.369l-7.223-1.704v-3.378h38.383v3.378l-8.223 1.468c-2.641.477-2.398 1.193-.937 3.135l19.281 27.301h.492l20.02-26.816c1.455-1.935 1.455-2.902-.727-3.383l-7.711-1.704v-3.378h31.117v3.378l-7.705 1.704c-2.908.722-5.09 1.695-6.77 3.873l-24.832 31.139 27.727 37.408c1.695 2.426 3.875 3.619 6.541 4.359l7.219 1.686v3.408h-38.387v-3.408l8.238-1.439c2.623-.49 2.377-1.229.961-3.166l-21.029-29.449h-.473l-21.478 29.449c-1.457 1.937-1.689 2.426.965 2.92l7.734 1.684z"/></g><path fill="#FFF" d="M139.892 111.109c0-3.567-1.207-6.444-3.82-7.98-1.637-.962-3.853-1.275-6.588-1.275l-19.789-.003v40.135h21.547c4.988 0 7.92 1.123 8.176 5.598h.478l-.004-36.475zM143.342 111.109c0-3.567 1.207-6.444 3.82-7.98 1.637-.962 3.855-1.275 6.586-1.275l19.93-.003v40.135h-21.686c-4.986 0-7.92 1.123-8.176 5.598h-.477l.003-36.475z"/><path fill="#FFF" d="M178.053 104.409v43.018h-31.289l-.43 1.063c-.508 1.26-1.43 2.426-4.686 2.426-3.254 0-4.174-1.166-4.684-2.426l-.428-1.063h-31.225v-43.018h-3.4v1.112l-2.384-.732a2.648 2.648 0 0 0-2.511-1.828 2.66 2.66 0 0 0-2.658 2.657 2.66 2.66 0 0 0 2.658 2.658 2.63 2.63 0 0 0 1.614-.561l3.28 1.008v3.283l-2.36-.423a2.644 2.644 0 0 0-2.266-1.529 2.657 2.657 0 0 0-.256 5.307 2.634 2.634 0 0 0 1.985-.767l2.897.52v3.358l-2.476-.109a2.653 2.653 0 0 0-4.89 1.432 2.66 2.66 0 0 0 2.658 2.657c.852 0 1.602-.409 2.089-1.033l2.618.115v3.651l-2.56.093a2.643 2.643 0 0 0-2.102-1.05 2.658 2.658 0 0 0-2.656 2.656 2.652 2.652 0 1 0 4.877 1.451l2.441-.088v3.363l-2.827.485a2.66 2.66 0 0 0-4.538 1.877 2.653 2.653 0 1 0 5.049 1.141l2.316-.398v3.292l-3.139.959a2.628 2.628 0 0 0-1.615-.561 2.658 2.658 0 1 0 0 5.313c1.174 0 2.16-.766 2.51-1.825l2.244-.686v3.167l-3.506 1.512a2.676 2.676 0 0 0-1.495-.391 2.662 2.662 0 0 0-2.55 2.762 2.661 2.661 0 0 0 2.762 2.551 2.654 2.654 0 0 0 2.484-2.105l2.305-.996v3.121h32.527c1.379 2.293 3.711 3.484 7.209 3.484 3.502 0 5.83-1.191 7.211-3.484h32.596v-46.421h-3.399z"/><g fill="#FFF"><path d="M120.332 90.45c-6.551 0-11.859 1.018-11.859 2.274 0 1.258 5.309 2.274 11.859 2.274 6.547 0 11.855-1.017 11.855-2.274 0-1.255-5.308-2.274-11.855-2.274zM136.658 75.762l-6.846 4.811-.058.488 1.627.731c.322.161.326.42.162.576l-4.301 3.629-.41-.035-3.045-4.49c-.209-.291-.135-.581.232-.643l2.045-.334v-.516l-5.299-7.489h-.873l-5.299 7.489v.516l2.045.334c.365.062.443.352.232.643l-3.047 4.49-.41.035-4.014-3.629c-.164-.156-.162-.415.158-.576l1.629-.731-.058-.488-7.13-4.811-.578.227 4.187 12.791c2.125-.954 7.006-1.627 12.721-1.653 5.715.026 10.598.699 12.721 1.653l4.188-12.791-.579-.227z"/></g><g fill="#FFF"><path d="M141.599 176.226c-6.551 0-11.859 1.018-11.859 2.275s5.309 2.274 11.859 2.274c6.547 0 11.855-1.016 11.855-2.274s-5.308-2.275-11.855-2.275zM157.926 161.537l-6.846 4.813-.059.488 1.627.73c.322.16.326.418.162.574l-4.301 3.631-.41-.037-3.045-4.488c-.209-.293-.135-.582.234-.645l2.043-.332v-.516l-5.301-7.49h-.871l-5.299 7.49v.516l2.045.332c.365.063.443.352.232.645l-3.047 4.488-.408.037-4.016-3.631c-.164-.156-.16-.414.16-.574l1.629-.73-.062-.488-7.129-4.813-.578.227 4.188 12.793c2.125-.955 7.006-1.629 12.721-1.654 5.715.025 10.596.699 12.721 1.654l4.188-12.793-.578-.227z"/></g><g fill="#FFF"><path d="M162.814 90.45c-6.549 0-11.859 1.018-11.859 2.274 0 1.258 5.311 2.274 11.859 2.274 6.547 0 11.856-1.017 11.856-2.274 0-1.255-5.309-2.274-11.856-2.274zM179.14 75.762l-6.846 4.811-.059.488 1.627.731c.322.161.326.42.162.576l-4.301 3.629-.408-.035-3.047-4.49c-.209-.291-.135-.581.232-.643l2.047-.334v-.516l-5.301-7.489h-.873l-5.299 7.489v.516l2.045.334c.367.062.443.352.233.643l-3.047 4.49-.408.035-4.016-3.676c-.162-.156-.162-.415.158-.576l1.633-.684-.062-.488-7.131-4.811-.576.227 4.186 12.791c2.125-.954 7.006-1.627 12.721-1.653 5.717.026 10.598.699 12.723 1.653l4.186-12.791-.579-.227z"/></g><path fill="#FFF" d="M143.937 41.33a2.432 2.432 0 1 1-2.432-2.433 2.432 2.432 0 0 1 2.432 2.433zM200.721 64a2.429 2.429 0 0 1-2.555 2.301 2.431 2.431 0 1 1 .25-4.854A2.432 2.432 0 0 1 200.721 64z"/><g fill="#001C54"><path d="M114.738 108.028c1.09 0 1.992.213 2.582.788.418.398.764 1.053.764 1.814 0 2.203-1.674 3.149-3.717 3.149h-2.283v-.343c.646-.056.717-.116.717-1.072v-2.921c0-.955-.07-1.018-.647-1.07v-.346h2.584zm-.433 4.347c0 .785.195.937.619.937.762 0 1.533-.841 1.533-2.408 0-1.901-.965-2.433-1.719-2.433-.203 0-.318.027-.381.063-.045.017-.053.222-.053.441v3.4zM124.793 110.835c0 1.894-1.295 3.078-2.992 3.078-1.787 0-2.947-1.301-2.947-2.929 0-1.434.955-3.088 3.07-3.088 1.619 0 2.869 1.186 2.869 2.939zm-4.293-.152c0 1.603.602 2.771 1.469 2.771.762 0 1.176-.735 1.176-2.337 0-1.778-.637-2.76-1.399-2.76-.68 0-1.246.778-1.246 2.326zM132.605 108.028v.346c-.672.062-.707.098-.682 1.027l.088 2.964c.027.982.043 1.009.682 1.072v.343h-2.77v-.343c.662-.063.689-.09.682-1.072l-.027-3.115h-.035l-1.707 4.434h-.479l-1.619-4.124h-.017l-.063 1.965c-.027.761-.018 1.184.018 1.458.035.329.23.409.805.454v.343h-2.185v-.343c.426-.037.592-.125.646-.454.045-.274.096-.742.141-1.548l.098-1.787c.063-1.114-.008-1.212-.707-1.274v-.346h2.08l1.549 3.505 1.353-3.505h2.149zM135.48 112.365c0 .956.068 1.017.682 1.072v.343h-2.867v-.343c.609-.056.68-.116.68-1.072v-2.921c0-.955-.07-1.018-.68-1.07v-.346h2.867v.346c-.613.053-.682.115-.682 1.07v2.921z"/></g><g fill="#001C54"><path d="M121.226 124.462h-.76l-3.273-4.178h-.018v1.628c0 .93.035 1.416.07 1.69.047.311.283.426.867.453v.344h-2.203v-.344c.391-.02.619-.143.664-.453.035-.274.07-.761.07-1.69v-1.628c0-.654-.02-.771-.195-1.018-.133-.186-.353-.246-.672-.274v-.346h1.957l2.945 3.673h.016v-1.186c0-.93-.033-1.417-.068-1.69-.045-.309-.283-.424-.867-.451v-.346h2.256v.346c-.441.018-.672.143-.715.451-.035.274-.074.761-.074 1.69v3.329zM124.812 124.462c-.611-1.593-1.441-3.779-1.762-4.611-.289-.76-.469-.805-.895-.858v-.346h2.859v.346l-.301.034c-.328.036-.328.115-.23.427.16.494.859 2.239 1.187 3.105.274-.752.84-2.443.981-2.858.187-.541.133-.638-.266-.681l-.266-.027v-.346h2.145v.346c-.508.063-.629.107-.977.912-.051.123-1.131 2.751-1.795 4.557h-.68zM128.804 122.577c.184.514.707 1.496 1.574 1.496.461 0 .814-.302.814-.877 0-.521-.346-.813-.885-1.062l-.133-.063c-.725-.335-1.549-.795-1.549-1.742 0-.999.725-1.814 2.115-1.814.273 0 .559.035.814.107.201.052.344.087.459.124.035.345.098.778.195 1.379l-.391.062c-.195-.584-.504-1.212-1.203-1.212a.754.754 0 0 0-.77.77c0 .441.344.697.91.955l.195.089c.816.372 1.514.823 1.514 1.857 0 1.088-.875 1.885-2.246 1.885-.354 0-.719-.07-.959-.149a5.3 5.3 0 0 1-.555-.213c-.07-.407-.187-.884-.293-1.477l.394-.115z"/></g><g fill="#001C54"><path d="M117.293 133.602c0 .955.07 1.018.68 1.072v.344h-2.865v-.344c.609-.055.682-.117.682-1.072v-2.921c0-.955-.072-1.017-.682-1.069v-.347h2.865v.347c-.609.053-.68.114-.68 1.069v2.921zM120.797 133.718c0 .46.018.681.176.76.145.072.348.08.621.08.283 0 .664-.025.85-.257.141-.167.291-.405.434-.875l.381.062c-.055.336-.238 1.256-.32 1.53h-4.387v-.344c.672-.055.742-.117.742-1.072v-2.921c0-.955-.07-1.017-.664-1.069v-.347h2.875v.347c-.637.053-.707.114-.707 1.069v3.037zM125.734 133.718c0 .46.02.681.18.76.141.072.344.08.617.08.283 0 .664-.025.85-.257.143-.167.291-.405.434-.875l.381.062a18.92 18.92 0 0 1-.32 1.53h-4.389v-.344c.674-.055.744-.117.744-1.072v-2.921c0-.955-.07-1.017-.664-1.069v-.347h2.877v.347c-.639.053-.709.114-.709 1.069v3.037zM129.965 135.081c-.613-1.593-1.443-3.779-1.762-4.611-.293-.76-.469-.805-.895-.857v-.347h2.859v.347l-.301.034c-.328.035-.328.115-.23.426.16.494.859 2.239 1.187 3.105.273-.752.84-2.441.98-2.857.186-.541.133-.639-.266-.682l-.266-.026v-.347h2.143v.347c-.506.062-.629.106-.975.912-.053.123-1.133 2.752-1.795 4.557h-.679z"/></g><g fill="#001C54"><path d="M154.406 108.221v.347c-.674.061-.711.097-.684 1.026l.088 2.964c.027.982.045 1.009.682 1.072v.344h-2.768v-.344c.66-.063.689-.09.68-1.072l-.027-3.115h-.035l-1.707 4.434h-.479l-1.619-4.124h-.018l-.061 1.965c-.029.761-.02 1.184.016 1.459.035.328.23.408.805.453v.344h-2.183v-.344c.424-.037.592-.125.644-.453.045-.274.098-.743.141-1.549l.098-1.787c.062-1.114-.008-1.212-.707-1.273v-.347h2.078l1.551 3.505 1.355-3.505h2.15zM157.279 112.558c0 .956.07 1.018.68 1.072v.344h-2.865v-.344c.611-.055.682-.116.682-1.072v-2.921c0-.955-.07-1.018-.682-1.069v-.347h2.865v.347c-.609.052-.68.114-.68 1.069v2.921zM163.861 114.036h-.758l-3.275-4.179h-.018v1.629c0 .929.035 1.416.07 1.69.047.311.283.425.867.453v.344h-2.201v-.344c.389-.02.617-.143.66-.453.037-.274.072-.762.072-1.69v-1.629c0-.653-.019-.77-.195-1.017-.133-.186-.355-.247-.67-.273v-.347h1.955l2.945 3.673h.016v-1.185c0-.93-.033-1.416-.068-1.69-.045-.309-.283-.424-.867-.45v-.347h2.256v.347c-.441.017-.672.142-.717.45-.033.274-.072.761-.072 1.69v3.328zM167.56 113.63l.269-.037c.324-.043.342-.133.227-.451l-.316-.902h-1.453l-.266.85c-.113.382-.113.469.291.513l.256.028v.344h-2.059v-.344c.449-.063.586-.1.877-.843l1.769-4.574.609-.124.6 1.673c.383 1.053.764 2.098 1.098 3 .285.769.445.814.879.868v.344h-2.781v-.345zm-1.121-1.922h1.133l-.559-1.69h-.027l-.547 1.69z"/></g><g fill="#001C54"><path d="M154.334 123.176c0 .954.072 1.018.812 1.071v.345h-3.094v-.345c.707-.054.777-.117.777-1.071V119.3h-.15c-.592 0-.834.108-.975.268-.105.131-.211.361-.328.857h-.371c.037-.743.09-1.355.106-1.805h.275c.135.201.221.22.459.22h3.531c.23 0 .273-.053.418-.22h.273c.008.371.053 1.123.096 1.777l-.389.027c-.133-.53-.229-.762-.361-.912-.15-.16-.443-.213-.869-.213h-.211v3.877zM158.969 123.176c0 .954.068 1.018.682 1.071v.345h-2.867v-.345c.609-.054.68-.117.68-1.071v-2.921c0-.956-.07-1.018-.68-1.07v-.346h2.867v.346c-.613.053-.682.114-.682 1.07v2.921zM166.326 121.646c0 1.894-1.293 3.078-2.992 3.078-1.785 0-2.945-1.301-2.945-2.929 0-1.434.953-3.089 3.068-3.089 1.621.001 2.869 1.188 2.869 2.94zm-4.293-.152c0 1.603.602 2.772 1.469 2.772.762 0 1.178-.735 1.178-2.337 0-1.779-.635-2.761-1.398-2.761-.683 0-1.249.777-1.249 2.326z"/></g><g fill="#001C54"><path d="M156.947 129.458v.347c-.672.062-.707.098-.684 1.026l.09 2.965c.025.981.043 1.009.68 1.071v.344h-2.77v-.344c.664-.063.691-.09.68-1.071l-.023-3.116h-.035l-1.711 4.434h-.475l-1.619-4.123h-.019l-.061 1.964c-.027.761-.018 1.185.018 1.459.035.328.227.408.805.453v.344h-2.187v-.344c.426-.037.594-.125.648-.453.043-.274.096-.743.139-1.548l.1-1.787c.063-1.115-.01-1.213-.709-1.274v-.347h2.08l1.549 3.505 1.354-3.505h2.15zM158.314 130.874c0-.955-.07-1.017-.66-1.069v-.347h4.192c.01.152.055.798.098 1.461l-.389.027c-.09-.434-.185-.681-.328-.823-.139-.15-.432-.204-.9-.204h-.15c-.338 0-.354 0-.354.31v1.708h.441c.76 0 .785-.053.875-.726h.391v2.088h-.391c-.09-.777-.115-.831-.875-.831h-.441v1.442c0 .461.016.681.176.761.143.071.344.079.619.079.354 0 .744-.052.937-.264.15-.159.301-.486.436-.913l.387.062c-.043.434-.227 1.336-.309 1.575h-4.504v-.344c.68-.055.75-.117.75-1.071v-2.921zM165.484 134.867l.268-.037c.324-.043.342-.132.228-.451l-.318-.902h-1.451l-.268.851c-.113.38-.113.468.293.513l.258.027v.344h-2.063v-.344c.451-.063.584-.1.875-.843l1.772-4.573.611-.125.602 1.673c.381 1.054.758 2.098 1.094 3.001.285.768.445.812.879.867v.344h-2.779v-.345zm-1.123-1.922h1.133l-.559-1.689h-.027l-.547 1.689z"/></g><path fill="#FFF" d="M133.525 208.068a2.432 2.432 0 1 1-4.864 0 2.432 2.432 0 0 1 4.864 0zM157.474 211.994a2.432 2.432 0 1 1 0 0zM65.635 79.287zM160.304 52.634zM164.865 36.607zM202.972 83.532zM229.67 136.319zM221.334 160.334zM76.478 162.252c.831.004 3.186.231 5.18 3.066.82 1.164 1.401 2.539 1.398 3.979-.004 2.381-1.164 3.758-3.957 5.723l-7.411 5.231-2.017-2.869 8.299-5.855c.768-.539 1.792-1.426 1.794-2.565.001-.627-.084-1.137-.652-1.945-.88-1.252-1.802-1.357-2.387-1.359-.88-.002-1.713.529-3.497 1.785l-7.191 4.689-1.959-2.787 7.637-4.998c2.015-1.421 3.317-2.103 4.763-2.095zM63.279 155.474l10.146-3.981 1.094 2.844-15.316 5.938-1.084-2.967 7.925-10.092-10.219 3.57-1.091-2.99 15.456-5.404 1.025 2.805-7.936 10.277zM52.271 135.099l16.269-2.476.528 3.464-16.272 2.475-.525-3.463zM67.959 121.822l-16.685 5 .148-3.527 12.517-3.372-12.184-4.489.145-3.429 16.202 6.415-.143 3.402zM53.646 103.097l2.728-9.588 2.705.769-1.782 6.266 3.679 1.047 1.675-5.885 2.657.754-1.676 5.887 4.034 1.148 1.837-6.455 2.755.782-2.782 9.778-15.83-4.503zM78.777 84.634l-4.875-.431c-2.309-.215-2.532.339-3.182 1.504l-.193.343 5.786 3.077-1.719 3.044-14.47-7.921 2.372-4.165c1.07-1.918 2.21-3.957 5.107-3.957 1.818 0 4.348 1.528 4.348 4.276 0 .487-.118 1.003-.321 1.543.651-.938 1.83-1.077 2.899-1.065.596.005 1.178.094 1.66.135l4.392.386-1.804 3.231zm-12.149-4.983c-.839.236-1.274.885-1.899 2.005l-.541.933 3.992 2.151.673-1.207c.565-1.013.689-1.593.49-2.297-.152-.537-.657-1.102-1.151-1.379a2.073 2.073 0 0 0-1.564-.206zM86.066 52.229l2.799-2.107 9.903 13.143-2.797 2.109-9.905-13.145zM104.535 44.07l6.254 12.128-3.114 1.606-6.254-12.128-4.013 2.07-1.289-2.5 11.12-5.733 1.288 2.5-3.992 2.057zM123.797 44.95l1.586 6.369-3.254.812-1.588-6.37-7.42-8.348 3.447-.86 4.908 5.742 1.65-7.389 3.307-.81-2.636 10.854zM183.369 50.861l5.195 3.093-1.414 2.376-5.193-3.092-3.611 6.063-2.969-1.767 8.422-14.143 8.436 5.024-1.438 2.417-5.469-3.257-1.959 3.286zM212.947 104.331l4.5-4.951-6.535-1.546-1.076-3.439 9.715 2.539 6.092-7.131 1.129 3.603-4.18 4.565 6.07 1.462 1.051 3.367-9.031-2.419-6.613 7.527-1.122-3.577zM228.691 116.062l-3.818.308.406 6.079-2.758.185-.406-6.031-7.039.475-.238-3.306 16.43-1.345.656 9.897-2.809.187-.424-6.449z"/><path fill="#FFF" d="M240.258 124.135c.441-54.293-43.447-98.821-97.834-99.263-25.414-.205-49.626 9.223-68.177 26.547-19.935 18.62-31.036 43.878-31.257 71.121-.265 32.483 15.493 62.892 42.163 81.52 2.531 10.551 12.057 18.426 23.417 18.426 3.25 0 6.398-.635 9.369-1.881a99.491 99.491 0 0 0 9.639 2.527c-1.049 2.891-2.539 5.613-3.99 8.08l2.361 2.359a3.452 3.452 0 0 1 1.893-.563c1.807 0 3.535 1.236 3.521 3.465 0 1.812-1.223 3.512-3.762 3.508-1.377 0-3.16-.727-4.121-2.789 0 0-.641 2.008-.641 4.426 0 7.32 7.957 15.379 18.604 18.754 10.707-3.348 18.633-11.434 18.633-18.754 0-2.418-.641-4.426-.641-4.426-.961 2.063-2.746 2.789-4.123 2.789-2.537.004-3.76-1.695-3.76-3.508-.014-2.229 1.715-3.465 3.519-3.465a3.47 3.47 0 0 1 1.895.563l2.168-2.156.055-.031.09-.113c.012.008.024.008.031.016l.004-.059.012-.016-.008-.02v-.004c-1.066-2.551-1.844-4.879-2.391-7.098 17.66-2.42 32.566-9.918 44.434-22.391l-.02-.024c24.489-18.615 38.665-46.781 38.917-77.54zM108.57 219.174c-11.363 0-20.607-9.277-20.607-20.68 0-3.566.902-6.922 2.49-9.851 1.055.957 2.181 1.951 3.35 2.955a16.221 16.221 0 0 0-1.582 6.967c0 6.191 3.121 11.305 9.024 14.785 3.424 2.021 7.309 3.84 11.427 5.418-1.34.269-2.711.406-4.102.406zm33.053-30.196c-3.855 0-7.652-.35-11.385-1.004-4.021-8.191-12.504-13.477-21.668-13.477-2.349 0-4.613.352-6.762.978-16.167-12.387-25.792-31.74-25.792-52.139 0-36.192 29.432-65.638 65.606-65.638 36.176 0 65.606 29.445 65.606 65.638 0 36.197-29.429 65.642-65.605 65.642zm14 1.889c-1.699 2.74-2.742 6.303-3.102 9.908-6.008-1.574-11.471-3.652-16.262-5.824.664-1.387 2.219-2.672 4.867-2.672.168 0 .33.012.496.012 4.796 0 9.477-.492 14.001-1.424zm-20.983 1.078a7.475 7.475 0 0 0-1.365 1.598c-2.107-.892-6.17-2.791-7.488-3.584 2.084.672 6.742 1.777 8.853 1.986zm-26.07-14.135c6.902 0 13.367 3.543 17.156 9.221a65.107 65.107 0 0 1-9.795-3.277l-.01.02-.094-.053a16.437 16.437 0 0 0-7.078-1.582c-5.498 0-10.363 2.691-13.37 6.809a86.332 86.332 0 0 1-3.749-2.203c3.724-5.392 9.925-8.935 16.94-8.935zm46.211 52.149c-3.781 0-6.588 2.947-6.588 6.59 0 4.248 2.973 6.805 6.805 6.805a6.86 6.86 0 0 0 1.391-.148c-1.143 5.297-7.402 11.031-14.945 13.598-7.412-2.566-13.775-8.301-14.916-13.598.449.094.914.148 1.391.148 3.83 0 6.803-2.557 6.803-6.805 0-3.643-2.805-6.59-6.588-6.59.953-1.754 2.035-3.914 2.836-6.18 4.451.766 8.834 1.184 12.916 1.184 3.293 0 6.496-.172 9.625-.48.422 1.611 1.437 4.699 1.707 5.504a3.503 3.503 0 0 0-.437-.028zm-10.896-8.311c-13.135 0-29.531-4.467-40.797-11.111-3.364-1.984-7.375-5.674-7.375-11.973 0-1.637.314-3.199.86-4.645 4.257 3.504 8.617 6.758 11.372 8.27.648.355 1.023.529 1.777.529a3.284 3.284 0 0 0 3.277-3.289c0-1.389-.754-2.514-2-3.057-2.361-1.035-7.259-3.063-12.566-5.793 2.386-3.111 6.115-5.125 10.316-5.125 1.93 0 3.789.414 5.525 1.232l3.586 2.092c11.4 6.963 40.539 24.754 75.85 15.514-13.337 11.649-29.698 17.356-49.825 17.356zm55.175-22.48c-15.781 5.565-30.52 5.209-43.125 2.43.402-5.396 2.412-11.377 5.738-12.277 28.35-8.596 49.045-34.92 49.045-65.982 0-38.02-30.998-68.952-69.096-68.952-38.101 0-69.098 30.933-69.098 68.952 0 20.766 9.515 40.523 25.603 53.563a24.277 24.277 0 0 0-9.357 7.976 50.965 50.965 0 0 1-3.243-2.437l-.645.646c.7.846 1.739 1.932 3.003 3.154a23.684 23.684 0 0 0-3.415 12.254c0 .309.035.607.047.912-24.119-18.131-38.284-46.541-38.037-76.841.214-26.357 10.943-50.785 30.215-68.783 17.885-16.703 41.218-25.793 65.7-25.595 52.461.425 94.797 43.456 94.371 95.924-.241 29.794-13.979 57.069-37.706 75.056z"/><path fill="#FFF" d="M89.055 69.898c0 1.409-.615 2.897-1.848 4.244-2.365 2.586-4.888 2.821-5.148 2.815l-.716-2.729c.395-.105 2.249-.484 3.563-1.924.595-.649.902-1.343.902-1.954 0-.649-.429-1.777-1.768-1.777-1.431 0-3.821 2.072-6.274 2.072-.941 0-1.987-.132-3.078-1.132-1.052-.963-1.54-2.191-1.54-3.44 0-1.364.623-2.798 1.78-4.064 2.198-2.402 4.617-2.598 4.827-2.606l.59 2.679c-.277.049-2.076.442-3.192 1.662-.573.627-.878 1.308-.878 1.905 0 .648.412 1.442 1.481 1.457 1.176.014 4.136-2.149 6.543-2.149 1.115 0 1.928.198 3.057 1.231 1.133 1.036 1.699 2.337 1.699 3.71zM164.873 53.351c-4.199 0-8.008-3.198-8.008-8.006 0-4.294 2.877-9.276 8.106-9.276 4.254 0 8.191 3.007 8.191 7.842 0 3.638-2.457 9.44-8.289 9.44zm4.781-9.486c0-1.137-.258-2.325-.947-3.248a4.059 4.059 0 0 0-3.275-1.628c-2.949 0-5.109 3.659-5.109 6.681 0 2.805 1.895 4.711 4.438 4.711 3.335 0 4.893-4.336 4.893-6.516zM210.529 88.514c-5.01 0-7.769-4.826-7.769-8.063 0-4.91 5.283-8.661 9.412-8.661 4.5 0 7.803 4.279 7.803 8.157-.001 4.407-4.606 8.567-9.446 8.567zm-.586-3.338c2.891 0 6.898-2.501 6.898-5.866 0-2.318-1.801-4.127-4.109-4.127-2.703 0-6.826 2.403-6.826 5.799 0 1.81 1.383 4.194 4.037 4.194zM213.767 136.997c0-4.064 2.752-8.059 8.223-8.059 4.6 0 9.047 2.836 9.047 7.929 0 4.183-2.68 8.203-8.113 8.203-4.649 0-9.157-2.936-9.157-8.073zm9.336 4.557c2.918 0 5.057-1.785 5.057-4.405 0-3.128-3.623-4.721-6.418-4.721-3.58 0-5.033 2.328-5.033 4.517 0 3.425 4.199 4.609 6.394 4.609zM207.508 156.4l4.895.019c2.32.02 2.498-.549 3.049-1.762l.162-.359-5.889-2.734 1.412-3.123 14.898 6.877-1.91 4.287c-1.307 2.885-2.424 4.34-5.154 4.34-1.754 0-4.328-1.459-4.309-4.141.004-.412.06-.853.193-1.324-.877 1.521-3.082 1.311-4.463 1.311l-4.408-.02 1.524-3.371zm9.545 1.832c0 1.258 1.057 2.258 2.232 2.258 1.053 0 1.709-.578 2.326-1.945l.518-1.23-4.068-1.91-.678 1.518c-.225.497-.33.934-.33 1.309zM197.49 174.599c0-3.367 1.561-5.199 3.535-7.633l2.137-2.619 12.766 10.389-2.867 3.52c-1.617 1.988-3.523 4.436-7.188 4.436-2.084 0-3.914-.967-5.211-2.022-1.621-1.319-3.172-3.555-3.172-6.071zm8.768 4.828c1.738 0 2.744-.521 4.74-2.975l.625-.766-8.48-6.9-1.043 1.281c-1.02 1.258-1.551 2.492-1.551 3.684 0 1.582.783 2.977 2.387 4.285 1.156.938 2.218 1.391 3.322 1.391z"/></svg>