<?xml version="1.0" encoding="iso-8859-1"?>
<!-- Generator: Adobe Illustrator 19.0.0, SVG Export Plug-In . SVG Version: 6.00 Build 0)  -->
<svg version="1.1" id="Capa_1" xmlns="http://www.w3.org/2000/svg" xmlns:xlink="http://www.w3.org/1999/xlink" x="0px" y="0px"
	 viewBox="0 0 512 512" style="enable-background:new 0 0 512 512;" xml:space="preserve">
<g>
	<g>
		<path d="M491.223,468.994H15c-8.284,0-15,6.716-15,15s6.716,15,15,15h476.223c8.284,0,15-6.716,15-15
			S499.507,468.994,491.223,468.994z"/>
	</g>
</g>
<g>
	<g>
		<path d="M491.223,407.636H15c-8.284,0-15,6.716-15,15s6.716,15,15,15h476.223c8.284,0,15-6.716,15-15
			S499.507,407.636,491.223,407.636z"/>
	</g>
</g>
<g>
	<g>
		<path d="M491.223,346.276H15c-8.284,0-15,6.716-15,15s6.716,15,15,15h476.223c8.284,0,15-6.716,15-15
			S499.507,346.276,491.223,346.276z"/>
	</g>
</g>
<g>
	<g>
		<path d="M491.223,284.918H15c-8.284,0-15,6.716-15,15s6.716,15,15,15h476.223c8.284,0,15-6.716,15-15
			S499.507,284.918,491.223,284.918z"/>
	</g>
</g>
<g>
	<g>
		<path d="M497,13.006H15c-8.284,0-15,6.716-15,15v184.077c0,8.284,6.716,15,15,15h482c8.284,0,15-6.716,15-15V28.006
			C512,19.722,505.284,13.006,497,13.006z M428.452,43.006L256,104.13L83.548,43.006H428.452z M30,55.855l181.101,64.189L30,184.234
			V55.855z M83.548,197.082L256,135.958l172.452,61.124H83.548z M482,184.234l-181.101-64.19L482,55.855V184.234z"/>
	</g>
</g>
<g>
</g>
<g>
</g>
<g>
</g>
<g>
</g>
<g>
</g>
<g>
</g>
<g>
</g>
<g>
</g>
<g>
</g>
<g>
</g>
<g>
</g>
<g>
</g>
<g>
</g>
<g>
</g>
<g>
</g>
</svg>
