<?xml version="1.0" standalone="no"?>
<!DOCTYPE svg PUBLIC "-//W3C//DTD SVG 20010904//EN"
 "http://www.w3.org/TR/2001/REC-SVG-20010904/DTD/svg10.dtd">
<svg version="1.0" xmlns="http://www.w3.org/2000/svg"
 width="800.000000pt" height="800.000000pt" viewBox="0 0 800.000000 800.000000"
 preserveAspectRatio="xMidYMid meet">
<metadata>
Created by potrace 1.11, written by Peter Selinger 2001-2013
</metadata>
<g transform="translate(0.000000,800.000000) scale(0.100000,-0.100000)"
fill="#000000" stroke="none">
<path d="M134 7776 c-60 -28 -108 -82 -123 -140 -9 -30 -11 -442 -9 -1531 l3
-1490 25 -40 c31 -51 54 -71 110 -98 l45 -21 3809 -1 c3603 0 3811 1 3855 17
56 21 102 63 130 121 21 41 21 43 21 1532 0 1479 -1 1490 -21 1535 -27 60 -54
88 -114 116 l-50 24 -3815 0 -3815 0 -51 -24z m6535 -450 c-2 -2 -94 -36 -204
-74 -110 -39 -263 -93 -340 -120 -77 -28 -210 -75 -295 -105 -85 -30 -240 -85
-345 -122 -104 -37 -341 -121 -525 -187 -184 -66 -342 -121 -350 -123 -8 -2
-149 -52 -313 -110 l-298 -106 -102 36 c-56 19 -111 39 -122 44 -11 5 -47 18
-80 29 -57 19 -261 91 -575 202 -80 29 -194 69 -255 90 -60 22 -168 60 -240
86 -148 52 -288 102 -660 234 -143 50 -330 117 -415 147 -85 30 -173 61 -195
68 -33 11 402 14 2639 14 1474 1 2677 -1 2675 -3z m-5789 -343 c102 -36 248
-88 325 -115 77 -27 185 -65 240 -85 55 -19 163 -57 240 -85 77 -28 190 -67
250 -88 61 -21 166 -59 235 -83 69 -25 343 -122 610 -217 267 -94 489 -175
493 -180 5 -4 -31 -21 -80 -38 -109 -37 -334 -117 -598 -211 -110 -40 -207
-74 -215 -76 -8 -2 -91 -31 -185 -65 -180 -65 -441 -158 -690 -245 -82 -29
-260 -92 -395 -140 -135 -48 -263 -93 -285 -101 -22 -7 -109 -38 -194 -68 -85
-31 -156 -56 -158 -56 -1 0 -3 450 -3 1000 l0 999 113 -40 c61 -22 195 -70
297 -106z m6647 -1850 c-4 -3 -148 47 -464 161 -38 14 -185 66 -328 117 -143
50 -323 114 -400 141 -77 27 -151 53 -165 58 -14 4 -191 67 -395 140 -203 72
-524 186 -712 252 -189 67 -343 124 -343 127 0 3 28 15 63 26 34 10 69 23 77
27 17 9 266 97 290 103 8 2 29 9 45 15 17 7 104 38 195 70 163 58 305 108 590
210 80 28 219 78 310 110 91 31 192 67 225 79 33 12 274 97 535 190 l475 168
3 -995 c1 -547 1 -997 -1 -999z m-3252 647 c143 -50 337 -118 430 -151 94 -33
181 -65 195 -70 14 -6 45 -18 70 -26 25 -8 299 -105 610 -215 728 -258 835
-296 890 -314 25 -8 54 -19 65 -24 11 -5 44 -17 73 -26 29 -9 54 -19 56 -23 2
-3 -1195 -6 -2660 -6 -1465 0 -2664 2 -2664 5 0 4 562 207 805 291 107 37 284
100 365 129 47 17 157 56 245 86 88 31 169 60 180 65 11 5 58 22 105 38 135
46 353 123 665 235 160 58 295 103 300 102 6 -2 127 -45 270 -96z"/>
<path d="M169 3544 c-112 -34 -177 -127 -166 -242 2 -33 12 -72 20 -89 23 -43
86 -101 127 -115 28 -10 804 -13 3810 -13 l3775 0 45 24 c83 44 129 119 130
209 0 92 -48 169 -135 215 l-40 21 -3764 1 c-2818 0 -3773 -3 -3802 -11z"/>
<path d="M170 2587 c-34 -9 -93 -46 -118 -77 -47 -55 -63 -144 -41 -225 14
-51 101 -138 150 -150 19 -4 1724 -8 3789 -9 4228 -1 3815 -9 3897 77 48 52
67 108 60 183 -8 83 -56 151 -136 191 -34 17 -199 18 -3801 19 -2257 0 -3779
-3 -3800 -9z"/>
<path d="M156 1623 c-61 -21 -102 -58 -132 -118 -23 -48 -26 -64 -22 -118 8
-95 66 -173 153 -207 23 -9 963 -12 3800 -12 3540 0 3773 1 3813 17 23 10 60
37 81 61 111 127 61 323 -97 378 -56 20 -7539 19 -7596 -1z"/>
<path d="M134 656 c-107 -50 -157 -170 -122 -290 16 -54 90 -128 144 -144 60
-18 7538 -18 7598 0 54 16 128 90 144 144 37 127 -26 259 -145 300 -31 11
-687 14 -3803 14 l-3765 0 -51 -24z"/>
</g>
</svg>
