<?xml version="1.0" encoding="utf-8"?>
<!-- Generator: Adobe Illustrator 15.1.0, SVG Export Plug-In . SVG Version: 6.00 Build 0)  -->
<!DOCTYPE svg PUBLIC "-//W3C//DTD SVG 1.1//EN" "http://www.w3.org/Graphics/SVG/1.1/DTD/svg11.dtd">
<svg version="1.1" id="Name" xmlns="http://www.w3.org/2000/svg" xmlns:xlink="http://www.w3.org/1999/xlink" x="0px" y="0px"
	 width="612.792px" height="212.599px" viewBox="0 0 612.792 212.599" enable-background="new 0 0 612.792 212.599"
	 xml:space="preserve">
<path d="M9.354,93.5H20.39l9.291,33.049h0.125L36.916,93.5h8.229l-9.416,43.523H24.507l-9.105-33.36h-0.125l-6.921,33.36H0
	L9.354,93.5z"/>
<path d="M65.224,132.097h-0.125c-2.868,3.617-5.736,5.675-10.351,5.675c-5.8,0-9.915-3.242-9.915-9.167
	c0-10.601,11.847-11.41,19.704-11.41h2.93c0.25-0.874,0.25-1.809,0.25-2.745c0-3.241-3.493-4.178-6.423-4.178
	c-3.678,0-7.233,0.937-10.538,2.495l1.185-6.672c3.555-1.247,7.172-1.933,10.912-1.933c6.423,0,12.471,2.37,12.471,9.915
	c0,4.302-3.18,16.898-3.928,22.946H64.35L65.224,132.097z M57.055,131.66c6.235,0,8.169-4.302,9.478-9.477h-2.931
	c-4.054,0-10.787,0.686-10.787,6.111C52.815,130.539,54.934,131.66,57.055,131.66z"/>
<path d="M81.679,104.911h6.048l1.434-6.61l8.98-2.93l-2.058,9.541h7.482l-1.309,6.11h-7.482l-3.056,14.03
	c-0.187,0.748-0.375,1.87-0.375,3.118c0,1.932,1.31,3.118,3.18,3.118c1.497,0,2.993-0.313,4.053-0.749l-1.434,6.484
	c-1.434,0.313-3.055,0.749-4.489,0.749c-5.674,0-9.666-2.245-9.666-8.418c0-2.494,0.5-4.927,1.061-7.482l2.369-10.85h-6.048
	L81.679,104.911z"/>
<path d="M109.196,104.911h8.355l-6.858,32.112h-8.356L109.196,104.911z M112.252,91.067h8.354l-1.746,7.981h-8.354L112.252,91.067z"
	/>
<path d="M154.203,118.254c0,11.287-7.794,19.518-19.142,19.518c-9.104,0-14.591-5.612-14.591-14.653
	c0-10.726,8.231-18.957,19.019-18.957C148.155,104.162,154.203,109.4,154.203,118.254z M145.474,118.317
	c0-4.177-1.434-7.67-6.36-7.67c-6.61,0-9.915,7.295-9.915,13.096c0,4.239,1.746,7.545,6.547,7.545
	C142.231,131.288,145.474,123.803,145.474,118.317z"/>
<path d="M163.039,109.525c0.375-1.934,0.687-3.617,0.811-4.614h8.167l-0.56,3.118h0.125c2.306-2.121,5.486-3.867,9.104-3.867
	c6.298,0,10.475,3.929,10.475,10.288c0,2.432-0.624,4.989-1.06,6.984l-3.367,15.589h-8.356l3.118-15.151
	c0.437-2.184,0.936-4.364,0.936-6.735c0-2.681-1.871-4.49-4.552-4.49c-5.8,0-7.919,5.424-8.98,10.226l-3.428,16.15h-8.356
	L163.039,109.525z"/>
<path d="M215.105,132.097h-0.125c-2.868,3.617-5.736,5.675-10.351,5.675c-5.798,0-9.914-3.242-9.914-9.167
	c0-10.601,11.847-11.41,19.704-11.41h2.93c0.25-0.874,0.25-1.809,0.25-2.745c0-3.241-3.493-4.178-6.423-4.178
	c-3.68,0-7.233,0.937-10.538,2.495l1.185-6.672c3.555-1.247,7.17-1.933,10.912-1.933c6.423,0,12.471,2.37,12.471,9.915
	c0,4.302-3.18,16.898-3.929,22.946h-7.045L215.105,132.097z M206.938,131.66c6.235,0,8.167-4.302,9.478-9.477h-2.932
	c-4.052,0-10.787,0.686-10.787,6.111C202.696,130.539,204.817,131.66,206.938,131.66z"/>
<path d="M238.913,90.257h8.356l-9.915,46.766h-8.356L238.913,90.257z"/>
<path d="M272.584,93.5h9.104l-9.166,43.523h-9.104L272.584,93.5z"/>
<path d="M287.387,109.525c0.375-1.934,0.687-3.617,0.812-4.614h8.167l-0.56,3.118h0.125c2.308-2.121,5.487-3.867,9.104-3.867
	c6.296,0,10.477,3.929,10.477,10.288c0,2.432-0.624,4.989-1.063,6.984l-3.364,15.589h-8.358l3.118-15.151
	c0.438-2.184,0.935-4.364,0.935-6.735c0-2.681-1.869-4.49-4.552-4.49c-5.797,0-7.919,5.424-8.979,10.226l-3.428,16.15h-8.356
	L287.387,109.525z"/>
<path d="M343.674,111.769c-2.183-0.81-4.487-1.497-6.859-1.497c-2.493,0-5.611,0.687-5.611,3.243
	c0,4.053,10.852,5.551,10.852,13.406c0,8.355-7.295,10.851-14.469,10.851c-3.367,0-6.731-0.499-9.789-1.933l1.809-6.673
	c2.369,1.31,4.738,2.493,7.98,2.493c2.808,0,5.739-0.935,5.739-3.553c0-5.176-10.852-5.675-10.852-13.718
	c0-7.546,7.296-10.227,13.905-10.227c3.057,0,6.175,0.562,9.104,1.309L343.674,111.769z"/>
<path d="M350.072,104.911h6.05l1.434-6.61l8.979-2.93l-2.059,9.541h7.483l-1.309,6.11h-7.484l-3.057,14.03
	c-0.186,0.748-0.371,1.87-0.371,3.118c0,1.932,1.309,3.118,3.179,3.118c1.498,0,2.992-0.313,4.052-0.749l-1.434,6.484
	c-1.435,0.313-3.054,0.749-4.488,0.749c-5.675,0-9.667-2.245-9.667-8.418c0-2.494,0.5-4.927,1.06-7.482l2.372-10.85h-6.05
	L350.072,104.911z"/>
<path d="M377.589,104.911h8.354l-6.859,32.112h-8.354L377.589,104.911z M380.643,91.067h8.358l-1.748,7.981h-8.354L380.643,91.067z"
	/>
<path d="M390.846,104.911h6.047l1.434-6.61l8.982-2.93l-2.059,9.541h7.481l-1.31,6.11h-7.481l-3.057,14.03
	c-0.186,0.748-0.374,1.87-0.374,3.118c0,1.932,1.309,3.118,3.182,3.118c1.495,0,2.993-0.313,4.053-0.749l-1.435,6.484
	c-1.434,0.313-3.057,0.749-4.491,0.749c-5.672,0-9.663-2.245-9.663-8.418c0-2.494,0.499-4.927,1.06-7.482l2.368-10.85h-6.047
	L390.846,104.911z"/>
<path d="M441.385,132.409c-0.375,1.934-0.688,3.617-0.81,4.614h-8.169l0.56-3.117h-0.125c-2.308,2.12-5.486,3.866-9.104,3.866
	c-6.299,0-10.477-3.929-10.477-10.289c0-2.432,0.624-4.989,1.06-6.983l3.367-15.588h8.358l-3.118,15.152
	c-0.438,2.182-0.938,4.364-0.938,6.734c0,2.682,1.872,4.49,4.555,4.49c5.797,0,7.916-5.426,8.979-10.228l3.429-16.149h8.354
	L441.385,132.409z"/>
<path d="M452.139,104.911h6.05l1.434-6.61l8.979-2.93l-2.059,9.541h7.483l-1.309,6.11h-7.484l-3.054,14.03
	c-0.188,0.748-0.374,1.87-0.374,3.118c0,1.932,1.309,3.118,3.179,3.118c1.498,0,2.992-0.313,4.052-0.749l-1.434,6.484
	c-1.434,0.313-3.054,0.749-4.488,0.749c-5.675,0-9.663-2.245-9.663-8.418c0-2.494,0.496-4.927,1.06-7.482l2.368-10.85h-6.05
	L452.139,104.911z"/>
<path d="M481.423,123.555c0,5.924,3.178,8.104,8.914,8.104c3.432,0,6.735-0.872,9.853-2.306l-1.06,6.609
	c-3.242,0.998-6.795,1.809-10.227,1.809c-9.229,0-15.464-4.49-15.464-14.029c0-9.978,7.733-19.581,18.271-19.581
	c7.92,0,13.156,4.052,13.156,12.221c0,2.433-0.311,4.802-0.81,7.172H481.423z M496.698,117.818c0.125-0.748,0.189-1.435,0.189-2.182
	c0-3.43-1.809-5.363-5.301-5.363c-5.177,0-7.42,3.118-9.043,7.545H496.698z"/>
<path d="M533.241,111.021h-6.485l1.31-6.11h6.485c1.684-8.169,4.427-15.403,14.154-15.403c1.931,0,3.803,0.375,5.173,0.812
	l-1.931,6.235c-0.749-0.375-1.684-0.562-2.557-0.562c-4.616,0-5.676,5.55-6.485,8.918h7.483l-1.313,6.11h-7.48l-5.486,26.001h-8.357
	L533.241,111.021z"/>
<path d="M583.752,118.254c0,11.287-7.795,19.518-19.143,19.518c-9.104,0-14.59-5.612-14.59-14.653
	c0-10.726,8.229-18.957,19.017-18.957C577.706,104.162,583.752,109.4,583.752,118.254z M575.023,118.317
	c0-4.177-1.434-7.67-6.36-7.67c-6.61,0-9.913,7.295-9.913,13.096c0,4.239,1.744,7.545,6.546,7.545
	C571.781,131.288,575.023,123.803,575.023,118.317z"/>
<path d="M592.402,109.213c0.25-1.372,0.5-2.806,0.746-4.302h7.983l-1.124,6.048h0.125c1.498-3.493,5.611-6.797,9.479-6.797
	c1.06,0,2.183,0.062,3.182,0.312l-1.748,8.169c-0.935-0.312-2.119-0.5-3.179-0.5c-5.925,0-8.793,5.301-9.853,10.475l-2.992,14.404
	h-8.355L592.402,109.213z"/>
<path d="M150.817,168.326h8.729l-3.678,17.583h17.583l3.68-17.583h8.729l-9.104,43.524h-8.729l3.99-19.081h-17.583l-3.992,19.081
	h-8.729L150.817,168.326z"/>
<path d="M194.89,198.38c0,5.925,3.18,8.107,8.916,8.107c3.43,0,6.735-0.873,9.853-2.308l-1.061,6.61
	c-3.241,0.998-6.796,1.809-10.226,1.809c-9.228,0-15.464-4.491-15.464-14.03c0-9.978,7.732-19.58,18.27-19.58
	c7.919,0,13.157,4.052,13.157,12.221c0,2.433-0.312,4.802-0.811,7.171H194.89z M210.167,192.644
	c0.125-0.749,0.187-1.435,0.187-2.184c0-3.428-1.809-5.361-5.301-5.361c-5.174,0-7.42,3.118-9.042,7.545H210.167z"/>
<path d="M241.282,206.923h-0.125c-2.868,3.617-5.736,5.676-10.351,5.676c-5.798,0-9.915-3.243-9.915-9.168
	c0-10.599,11.849-11.411,19.706-11.411h2.93c0.248-0.871,0.248-1.809,0.248-2.743c0-3.243-3.491-4.178-6.421-4.178
	c-3.68,0-7.234,0.935-10.54,2.493l1.186-6.671c3.553-1.248,7.17-1.933,10.912-1.933c6.421,0,12.471,2.368,12.471,9.913
	c0,4.302-3.18,16.898-3.929,22.948h-7.045L241.282,206.923z M233.113,206.488c6.235,0,8.169-4.302,9.478-9.478h-2.931
	c-4.052,0-10.787,0.685-10.787,6.11C228.873,205.365,230.994,206.488,233.113,206.488z"/>
<path d="M265.089,165.083h8.355l-9.914,46.767h-8.356L265.089,165.083z"/>
<path d="M275.259,179.738h6.048l1.434-6.61l8.98-2.932l-2.059,9.542h7.482l-1.309,6.11h-7.482l-3.055,14.03
	c-0.188,0.749-0.375,1.869-0.375,3.117c0,1.934,1.309,3.118,3.18,3.118c1.497,0,2.993-0.313,4.052-0.749l-1.434,6.485
	c-1.434,0.311-3.055,0.749-4.489,0.749c-5.674,0-9.666-2.247-9.666-8.419c0-2.493,0.5-4.926,1.061-7.483l2.369-10.849h-6.048
	L275.259,179.738z"/>
<path d="M305.893,165.083h8.357l-3.991,17.771h0.125c2.308-2.122,5.486-3.866,9.104-3.866c6.296,0,10.477,3.928,10.477,10.288
	c0,2.433-0.624,4.99-1.063,6.984l-3.367,15.589h-8.354l3.117-15.153c0.438-2.181,0.935-4.363,0.935-6.732
	c0-2.683-1.869-4.491-4.552-4.491c-5.797,0-7.919,5.426-8.979,10.228l-3.429,16.149h-8.357L305.893,165.083z"/>
<path d="M360.454,168.326h10.288c8.045,0,17.337-0.125,17.337,10.288c0,7.484-5.611,11.473-12.721,11.598v0.125
	c2.369,0.124,3.866,1.622,4.427,3.991l4.178,17.522h-9.165l-2.122-10.228c-0.995-4.612-0.749-7.855-5.486-7.855h-3.304
	l-3.806,18.083h-8.729L360.454,168.326z M365.444,186.908h3.179c4.677,0,10.353-1.435,10.353-7.17c0-4.552-3.931-4.552-7.484-4.552
	h-3.617L365.444,186.908z"/>
<path d="M398.099,198.38c0,5.925,3.178,8.107,8.914,8.107c3.432,0,6.735-0.873,9.853-2.308l-1.06,6.61
	c-3.242,0.998-6.795,1.809-10.227,1.809c-9.229,0-15.464-4.491-15.464-14.03c0-9.978,7.733-19.58,18.271-19.58
	c7.92,0,13.156,4.052,13.156,12.221c0,2.433-0.311,4.802-0.81,7.171H398.099z M413.374,192.644c0.125-0.749,0.189-1.435,0.189-2.184
	c0-3.428-1.809-5.361-5.301-5.361c-5.177,0-7.42,3.118-9.043,7.545H413.374z"/>
<path d="M448.561,186.597c-2.183-0.813-4.487-1.498-6.859-1.498c-2.493,0-5.611,0.685-5.611,3.242
	c0,4.053,10.852,5.551,10.852,13.406c0,8.357-7.295,10.852-14.469,10.852c-3.367,0-6.731-0.5-9.788-1.934l1.808-6.671
	c2.369,1.309,4.738,2.493,7.98,2.493c2.808,0,5.739-0.935,5.739-3.556c0-5.173-10.852-5.673-10.852-13.717
	c0-7.545,7.296-10.227,13.905-10.227c3.058,0,6.175,0.56,9.104,1.309L448.561,186.597z"/>
<path d="M459.985,198.38c0,5.925,3.179,8.107,8.915,8.107c3.432,0,6.735-0.873,9.853-2.308l-1.06,6.61
	c-3.242,0.998-6.796,1.809-10.227,1.809c-9.229,0-15.465-4.491-15.465-14.03c0-9.978,7.734-19.58,18.271-19.58
	c7.92,0,13.156,4.052,13.156,12.221c0,2.433-0.311,4.802-0.81,7.171H459.985z M475.26,192.644c0.125-0.749,0.188-1.435,0.188-2.184
	c0-3.428-1.809-5.361-5.301-5.361c-5.176,0-7.42,3.118-9.042,7.545H475.26z"/>
<path d="M506.377,206.923h-0.125c-2.868,3.617-5.736,5.676-10.353,5.676c-5.797,0-9.913-3.243-9.913-9.168
	c0-10.599,11.847-11.411,19.705-11.411h2.93c0.249-0.871,0.249-1.809,0.249-2.743c0-3.243-3.492-4.178-6.421-4.178
	c-3.682,0-7.234,0.935-10.538,2.493l1.185-6.671c3.554-1.248,7.17-1.933,10.912-1.933c6.421,0,12.472,2.368,12.472,9.913
	c0,4.302-3.183,16.898-3.932,22.948h-7.045L506.377,206.923z M498.208,206.488c6.235,0,8.169-4.302,9.478-9.478h-2.932
	c-4.053,0-10.787,0.685-10.787,6.11C493.967,205.365,496.089,206.488,498.208,206.488z"/>
<path d="M526.006,184.04c0.25-1.373,0.499-2.808,0.749-4.302h7.98l-1.121,6.046h0.125c1.495-3.492,5.611-6.795,9.479-6.795
	c1.06,0,2.18,0.063,3.179,0.311l-1.745,8.169c-0.938-0.311-2.122-0.5-3.182-0.5c-5.925,0-8.793,5.301-9.853,10.478l-2.993,14.404
	h-8.354L526.006,184.04z"/>
<path d="M571.25,187.093c-1.62-1.06-3.803-1.62-6.11-1.62c-6.671,0-10.413,6.236-10.413,12.286c0,4.177,1.373,8.354,7.109,8.354
	c2.059,0,4.612-0.561,6.796-1.623l-0.935,6.61c-2.558,1.248-5.301,1.498-8.044,1.498c-8.294,0-13.656-5.551-13.656-13.845
	c0-11.223,7.42-19.766,18.957-19.766c3.117,0,6.11,0.56,8.354,1.248L571.25,187.093z"/>
<path d="M582.799,165.083h8.354l-3.992,17.771h0.125c2.309-2.122,5.49-3.866,9.104-3.866c6.3,0,10.478,3.928,10.478,10.288
	c0,2.433-0.624,4.99-1.06,6.984l-3.367,15.589h-8.355l3.118-15.153c0.436-2.181,0.935-4.363,0.935-6.732
	c0-2.683-1.872-4.491-4.552-4.491c-5.8,0-7.919,5.426-8.979,10.228l-3.432,16.149h-8.354L582.799,165.083z"/>
<rect x="425.181" fill="#2B72B2" width="184.694" height="74.749"/>
<polygon fill="#FFFFFF" points="443.24,7.214 463.326,7.214 475.65,48.936 475.824,48.936 484.273,7.214 499.445,7.214 
	486.684,67.383 466.687,67.383 454.1,25.747 453.929,25.747 445.569,67.383 430.394,67.383 "/>
<polygon fill="#FFFFFF" points="505.381,7.214 521.503,7.214 516.762,30.23 535.81,30.23 540.551,7.214 556.672,7.214 
	544.174,67.383 528.052,67.383 533.396,41.609 514.348,41.609 509.001,67.383 492.883,67.383 "/>
<path fill="#FFFFFF" d="M599.083,20.834c-3.103-1.466-7.329-2.758-13.275-2.758c-6.379,0-11.552,0.947-11.552,5.774
	c0,8.534,23.362,5.345,23.362,23.619c0,16.638-15.434,20.947-29.396,20.947c-6.208,0-13.36-1.464-18.618-3.103l3.79-12.241
	c3.188,2.069,9.569,3.448,14.828,3.448c4.999,0,12.846-0.948,12.846-7.155c0-9.655-23.362-6.033-23.362-23.015
	c0-15.517,13.619-20.172,26.809-20.172c7.414,0,14.396,0.776,18.445,2.673L599.083,20.834z"/>
</svg>
